<svg width="172" height="155" viewBox="0 0 172 155" fill="none" xmlns="http://www.w3.org/2000/svg">
<rect y="0.0771484" width="171.404" height="154.497" rx="9.25944" fill="white"/>
<path d="M24.8614 21.2704V22.3167H23.1391V27.7335H21.8428V22.3167H20.1205V21.2704H24.8614ZM28.085 27.8169C27.5912 27.8169 27.1467 27.7088 26.7517 27.4928C26.3566 27.2705 26.0448 26.9588 25.8164 26.5576C25.5942 26.1563 25.4831 25.6934 25.4831 25.1687C25.4831 24.644 25.5973 24.181 25.8257 23.7797C26.0603 23.3785 26.3782 23.0699 26.7794 22.8538C27.1807 22.6316 27.6282 22.5205 28.122 22.5205C28.6159 22.5205 29.0634 22.6316 29.4647 22.8538C29.8659 23.0699 30.1807 23.3785 30.4091 23.7797C30.6437 24.181 30.761 24.644 30.761 25.1687C30.761 25.6934 30.6406 26.1563 30.3999 26.5576C30.1653 26.9588 29.8443 27.2705 29.4369 27.4928C29.0356 27.7088 28.585 27.8169 28.085 27.8169ZM28.085 26.6872C28.3196 26.6872 28.5387 26.6316 28.7424 26.5205C28.9523 26.4032 29.119 26.2304 29.2424 26.002C29.3659 25.7736 29.4276 25.4958 29.4276 25.1687C29.4276 24.681 29.298 24.3075 29.0387 24.0483C28.7856 23.7828 28.4739 23.6501 28.1035 23.6501C27.7332 23.6501 27.4214 23.7828 27.1683 24.0483C26.9214 24.3075 26.7979 24.681 26.7979 25.1687C26.7979 25.6563 26.9183 26.0329 27.1591 26.2983C27.406 26.5576 27.7146 26.6872 28.085 26.6872ZM33.2212 23.6686V26.1502C33.2212 26.323 33.2613 26.4495 33.3415 26.5298C33.428 26.6039 33.5699 26.6409 33.7675 26.6409H34.3693V27.7335H33.5545C32.4619 27.7335 31.9156 27.2026 31.9156 26.1409V23.6686H31.3045V22.6038H31.9156V21.3352H33.2212V22.6038H34.3693V23.6686H33.2212ZM34.9684 25.1501C34.9684 24.6316 35.0702 24.1717 35.274 23.7705C35.4838 23.3692 35.7647 23.0606 36.1166 22.8445C36.4746 22.6285 36.8727 22.5205 37.311 22.5205C37.6937 22.5205 38.0271 22.5976 38.311 22.7519C38.6012 22.9063 38.8327 23.1007 39.0055 23.3353V22.6038H40.3111V27.7335H39.0055V26.9835C38.8388 27.2243 38.6073 27.4249 38.311 27.5854C38.0209 27.7397 37.6845 27.8169 37.3018 27.8169C36.8697 27.8169 36.4746 27.7057 36.1166 27.4835C35.7647 27.2613 35.4838 26.9496 35.274 26.5483C35.0702 26.1409 34.9684 25.6748 34.9684 25.1501ZM39.0055 25.1687C39.0055 24.8538 38.9438 24.5853 38.8203 24.3631C38.6969 24.1347 38.5302 23.9618 38.3203 23.8446C38.1104 23.7211 37.8851 23.6594 37.6444 23.6594C37.4036 23.6594 37.1814 23.718 36.9777 23.8353C36.774 23.9526 36.6073 24.1254 36.4777 24.3538C36.3542 24.5761 36.2925 24.8415 36.2925 25.1501C36.2925 25.4588 36.3542 25.7304 36.4777 25.965C36.6073 26.1934 36.774 26.3693 36.9777 26.4928C37.1876 26.6162 37.4098 26.6779 37.6444 26.6779C37.8851 26.6779 38.1104 26.6193 38.3203 26.502C38.5302 26.3786 38.6969 26.2057 38.8203 25.9835C38.9438 25.7551 39.0055 25.4835 39.0055 25.1687ZM42.8735 20.8815V27.7335H41.5772V20.8815H42.8735ZM46.0273 25.1687C46.0273 24.6378 46.1353 24.1748 46.3513 23.7797C46.5674 23.3785 46.8668 23.0699 47.2495 22.8538C47.6322 22.6316 48.0705 22.5205 48.5644 22.5205C49.2002 22.5205 49.7249 22.681 50.1385 23.0019C50.5582 23.3168 50.8391 23.7612 50.9811 24.3353H49.5829C49.5088 24.1131 49.3823 23.9402 49.2033 23.8168C49.0304 23.6871 48.8144 23.6223 48.5551 23.6223C48.1847 23.6223 47.8915 23.7581 47.6754 24.0297C47.4594 24.2952 47.3514 24.6748 47.3514 25.1687C47.3514 25.6563 47.4594 26.036 47.6754 26.3076C47.8915 26.573 48.1847 26.7057 48.5551 26.7057C49.0798 26.7057 49.4224 26.4712 49.5829 26.002H50.9811C50.8391 26.5576 50.5582 26.9989 50.1385 27.3261C49.7187 27.6533 49.194 27.8169 48.5644 27.8169C48.0705 27.8169 47.6322 27.7088 47.2495 27.4928C46.8668 27.2705 46.5674 26.9619 46.3513 26.5668C46.1353 26.1656 46.0273 25.6995 46.0273 25.1687ZM56.7734 22.6038V27.7335H55.4678V27.0854C55.3012 27.3076 55.082 27.4835 54.8104 27.6131C54.545 27.7366 54.2549 27.7983 53.94 27.7983C53.5388 27.7983 53.1838 27.715 52.8752 27.5483C52.5666 27.3755 52.3227 27.1255 52.1437 26.7983C51.9709 26.465 51.8844 26.0699 51.8844 25.6131V22.6038H53.1808V25.4279C53.1808 25.8353 53.2826 26.1502 53.4863 26.3724C53.69 26.5884 53.9678 26.6965 54.3197 26.6965C54.6777 26.6965 54.9586 26.5884 55.1623 26.3724C55.366 26.1502 55.4678 25.8353 55.4678 25.4279V22.6038H56.7734ZM60.0155 27.8169C59.5957 27.8169 59.2191 27.7428 58.8858 27.5946C58.5525 27.4403 58.287 27.2335 58.0895 26.9742C57.8981 26.715 57.7932 26.4279 57.7747 26.1131H59.0802C59.1049 26.3107 59.2006 26.4742 59.3673 26.6039C59.5401 26.7335 59.7531 26.7983 60.0062 26.7983C60.2531 26.7983 60.4445 26.7489 60.5803 26.6502C60.7223 26.5514 60.7932 26.4249 60.7932 26.2705C60.7932 26.1039 60.7068 25.9804 60.534 25.9002C60.3673 25.8137 60.0988 25.7211 59.7284 25.6224C59.3457 25.5298 59.0309 25.4341 58.7839 25.3353C58.5432 25.2366 58.3333 25.0853 58.1543 24.8816C57.9815 24.6779 57.895 24.4032 57.895 24.0575C57.895 23.7736 57.9753 23.5143 58.1358 23.2797C58.3025 23.0452 58.537 22.86 58.8395 22.7242C59.1482 22.5884 59.5093 22.5205 59.9229 22.5205C60.534 22.5205 61.0216 22.6748 61.3858 22.9834C61.7501 23.2859 61.9507 23.6964 61.9877 24.2149H60.7469C60.7284 24.0112 60.642 23.8507 60.4877 23.7334C60.3395 23.61 60.1389 23.5483 59.8858 23.5483C59.6512 23.5483 59.4691 23.5915 59.3395 23.6779C59.2161 23.7643 59.1543 23.8847 59.1543 24.039C59.1543 24.2118 59.2407 24.3446 59.4136 24.4372C59.5864 24.5236 59.855 24.6131 60.2192 24.7057C60.5895 24.7983 60.8951 24.894 61.1358 24.9927C61.3766 25.0915 61.5834 25.2458 61.7562 25.4557C61.9352 25.6594 62.0278 25.931 62.034 26.2705C62.034 26.5668 61.9507 26.8323 61.784 27.0668C61.6235 27.3014 61.3889 27.4866 61.0803 27.6224C60.7778 27.752 60.4229 27.8169 60.0155 27.8169ZM64.6074 23.6686V26.1502C64.6074 26.323 64.6475 26.4495 64.7278 26.5298C64.8142 26.6039 64.9562 26.6409 65.1537 26.6409H65.7556V27.7335H64.9407C63.8481 27.7335 63.3018 27.2026 63.3018 26.1409V23.6686H62.6907V22.6038H63.3018V21.3352H64.6074V22.6038H65.7556V23.6686H64.6074ZM68.9658 27.8169C68.4719 27.8169 68.0275 27.7088 67.6324 27.4928C67.2374 27.2705 66.9256 26.9588 66.6972 26.5576C66.475 26.1563 66.3639 25.6934 66.3639 25.1687C66.3639 24.644 66.4781 24.181 66.7065 23.7797C66.9411 23.3785 67.259 23.0699 67.6602 22.8538C68.0614 22.6316 68.509 22.5205 69.0028 22.5205C69.4967 22.5205 69.9442 22.6316 70.3454 22.8538C70.7467 23.0699 71.0615 23.3785 71.2899 23.7797C71.5245 24.181 71.6418 24.644 71.6418 25.1687C71.6418 25.6934 71.5214 26.1563 71.2806 26.5576C71.0461 26.9588 70.7251 27.2705 70.3177 27.4928C69.9164 27.7088 69.4658 27.8169 68.9658 27.8169ZM68.9658 26.6872C69.2004 26.6872 69.4195 26.6316 69.6232 26.5205C69.8331 26.4032 69.9998 26.2304 70.1232 26.002C70.2467 25.7736 70.3084 25.4958 70.3084 25.1687C70.3084 24.681 70.1788 24.3075 69.9195 24.0483C69.6664 23.7828 69.3547 23.6501 68.9843 23.6501C68.6139 23.6501 68.3022 23.7828 68.0491 24.0483C67.8022 24.3075 67.6787 24.681 67.6787 25.1687C67.6787 25.6563 67.7991 26.0329 68.0398 26.2983C68.2868 26.5576 68.5954 26.6872 68.9658 26.6872ZM78.9632 22.5297C79.5928 22.5297 80.099 22.7242 80.4817 23.1131C80.8706 23.4958 81.065 24.0328 81.065 24.7242V27.7335H79.7687V24.9001C79.7687 24.4989 79.6669 24.1933 79.4632 23.9834C79.2595 23.7674 78.9817 23.6594 78.6298 23.6594C78.278 23.6594 77.9971 23.7674 77.7872 23.9834C77.5835 24.1933 77.4816 24.4989 77.4816 24.9001V27.7335H76.1853V24.9001C76.1853 24.4989 76.0835 24.1933 75.8798 23.9834C75.6761 23.7674 75.3983 23.6594 75.0464 23.6594C74.6884 23.6594 74.4044 23.7674 74.1945 23.9834C73.9908 24.1933 73.889 24.4989 73.889 24.9001V27.7335H72.5927V22.6038H73.889V23.2242C74.0557 23.0081 74.2686 22.8384 74.5279 22.7149C74.7933 22.5914 75.0835 22.5297 75.3983 22.5297C75.7995 22.5297 76.1575 22.6161 76.4724 22.789C76.7872 22.9557 77.031 23.1964 77.2039 23.5112C77.3705 23.2149 77.6113 22.9773 77.9261 22.7982C78.2471 22.6192 78.5928 22.5297 78.9632 22.5297ZM87.0638 25.0575C87.0638 25.2427 87.0514 25.4094 87.0268 25.5576H83.2767C83.3075 25.9279 83.4372 26.2181 83.6656 26.4279C83.894 26.6378 84.1748 26.7428 84.5082 26.7428C84.9897 26.7428 85.3323 26.536 85.536 26.1224H86.9342C86.786 26.6162 86.502 27.0236 86.0823 27.3446C85.6625 27.6594 85.1471 27.8169 84.536 27.8169C84.0421 27.8169 83.5977 27.7088 83.2026 27.4928C82.8137 27.2705 82.5081 26.9588 82.2859 26.5576C82.0699 26.1563 81.9618 25.6934 81.9618 25.1687C81.9618 24.6378 82.0699 24.1717 82.2859 23.7705C82.502 23.3692 82.8044 23.0606 83.1933 22.8445C83.5822 22.6285 84.0298 22.5205 84.536 22.5205C85.0236 22.5205 85.4588 22.6254 85.8415 22.8353C86.2304 23.0452 86.5298 23.3445 86.7397 23.7334C86.9558 24.1162 87.0638 24.5575 87.0638 25.0575ZM85.7212 24.6872C85.715 24.3538 85.5946 24.0884 85.3601 23.8909C85.1255 23.6871 84.8384 23.5853 84.4989 23.5853C84.1779 23.5853 83.9063 23.6841 83.6841 23.8816C83.468 24.073 83.3353 24.3415 83.2859 24.6872H85.7212ZM89.3063 23.4001C89.473 23.1285 89.689 22.9155 89.9545 22.7612C90.2261 22.6069 90.5347 22.5297 90.8804 22.5297V23.8909H90.5378C90.1304 23.8909 89.8218 23.9865 89.6119 24.1779C89.4082 24.3693 89.3063 24.7026 89.3063 25.1779V27.7335H88.01V22.6038H89.3063V23.4001ZM93.7165 27.8169C93.2968 27.8169 92.9202 27.7428 92.5869 27.5946C92.2536 27.4403 91.9881 27.2335 91.7906 26.9742C91.5992 26.715 91.4943 26.4279 91.4758 26.1131H92.7813C92.806 26.3107 92.9017 26.4742 93.0684 26.6039C93.2412 26.7335 93.4542 26.7983 93.7073 26.7983C93.9542 26.7983 94.1456 26.7489 94.2814 26.6502C94.4234 26.5514 94.4943 26.4249 94.4943 26.2705C94.4943 26.1039 94.4079 25.9804 94.2351 25.9002C94.0684 25.8137 93.7999 25.7211 93.4295 25.6224C93.0468 25.5298 92.732 25.4341 92.485 25.3353C92.2443 25.2366 92.0344 25.0853 91.8554 24.8816C91.6826 24.6779 91.5961 24.4032 91.5961 24.0575C91.5961 23.7736 91.6764 23.5143 91.8369 23.2797C92.0036 23.0452 92.2381 22.86 92.5406 22.7242C92.8492 22.5884 93.2104 22.5205 93.624 22.5205C94.2351 22.5205 94.7227 22.6748 95.0869 22.9834C95.4512 23.2859 95.6518 23.6964 95.6888 24.2149H94.448C94.4295 24.0112 94.3431 23.8507 94.1888 23.7334C94.0406 23.61 93.84 23.5483 93.5869 23.5483C93.3523 23.5483 93.1702 23.5915 93.0406 23.6779C92.9172 23.7643 92.8554 23.8847 92.8554 24.039C92.8554 24.2118 92.9418 24.3446 93.1147 24.4372C93.2875 24.5236 93.5561 24.6131 93.9203 24.7057C94.2906 24.7983 94.5962 24.894 94.8369 24.9927C95.0777 25.0915 95.2845 25.2458 95.4573 25.4557C95.6363 25.6594 95.7289 25.931 95.7351 26.2705C95.7351 26.5668 95.6518 26.8323 95.4851 27.0668C95.3246 27.3014 95.09 27.4866 94.7814 27.6224C94.4789 27.752 94.124 27.8169 93.7165 27.8169Z" fill="#131316"/>
<path d="M20.5729 57.5829C20.5999 57.228 20.7368 56.9502 20.9838 56.7495C21.2307 56.5489 21.5509 56.4486 21.9444 56.4486C22.2068 56.4486 22.4325 56.4968 22.6215 56.5933C22.8144 56.6859 22.9591 56.8132 23.0556 56.9752C23.1559 57.1373 23.206 57.3205 23.206 57.525C23.206 57.7642 23.1366 57.9706 22.9977 58.1443C22.8627 58.3179 22.6852 58.4298 22.4653 58.4799V58.5088C22.7161 58.5706 22.9147 58.6921 23.0614 58.8734C23.208 59.0548 23.2813 59.292 23.2813 59.5853C23.2813 59.8052 23.2311 60.0039 23.1308 60.1813C23.0305 60.3549 22.88 60.4919 22.6794 60.5922C22.4788 60.6925 22.2376 60.7427 21.956 60.7427C21.547 60.7427 21.2114 60.6366 20.949 60.4244C20.6867 60.2083 20.5401 59.9035 20.5092 59.51H21.0185C21.0455 59.7415 21.14 59.9306 21.3021 60.0772C21.4641 60.2238 21.6802 60.2971 21.9502 60.2971C22.2203 60.2971 22.4248 60.2276 22.5637 60.0887C22.7064 59.946 22.7778 59.7627 22.7778 59.539C22.7778 59.2496 22.6813 59.0413 22.4884 58.9139C22.2955 58.7866 22.0042 58.723 21.6146 58.723H21.4815V58.2831H21.6204C21.9753 58.2793 22.2434 58.2214 22.4248 58.1095C22.6061 57.9938 22.6968 57.8163 22.6968 57.5771C22.6968 57.3726 22.6292 57.2087 22.4942 57.0852C22.363 56.9617 22.174 56.9 21.9271 56.9C21.6879 56.9 21.495 56.9617 21.3484 57.0852C21.2017 57.2087 21.1149 57.3746 21.0879 57.5829H20.5729ZM23.9923 58.5783C23.9923 57.9147 24.1003 57.3977 24.3164 57.0273C24.5324 56.6531 24.9105 56.466 25.4507 56.466C25.987 56.466 26.3631 56.6531 26.5792 57.0273C26.7952 57.3977 26.9032 57.9147 26.9032 58.5783C26.9032 59.2535 26.7952 59.7782 26.5792 60.1524C26.3631 60.5266 25.987 60.7137 25.4507 60.7137C24.9105 60.7137 24.5324 60.5266 24.3164 60.1524C24.1003 59.7782 23.9923 59.2535 23.9923 58.5783ZM26.3824 58.5783C26.3824 58.2426 26.3593 57.9591 26.313 57.7276C26.2705 57.4922 26.1799 57.3032 26.041 57.1604C25.9059 57.0177 25.7092 56.9463 25.4507 56.9463C25.1883 56.9463 24.9877 57.0177 24.8488 57.1604C24.7138 57.3032 24.6231 57.4922 24.5768 57.7276C24.5344 57.9591 24.5132 58.2426 24.5132 58.5783C24.5132 58.9255 24.5344 59.2168 24.5768 59.4521C24.6231 59.6875 24.7138 59.8765 24.8488 60.0193C24.9877 60.162 25.1883 60.2334 25.4507 60.2334C25.7092 60.2334 25.9059 60.162 26.041 60.0193C26.1799 59.8765 26.2705 59.6875 26.313 59.4521C26.3593 59.2168 26.3824 58.9255 26.3824 58.5783ZM27.6262 58.5783C27.6262 57.9147 27.7343 57.3977 27.9503 57.0273C28.1664 56.6531 28.5445 56.466 29.0846 56.466C29.6209 56.466 29.997 56.6531 30.2131 57.0273C30.4291 57.3977 30.5372 57.9147 30.5372 58.5783C30.5372 59.2535 30.4291 59.7782 30.2131 60.1524C29.997 60.5266 29.6209 60.7137 29.0846 60.7137C28.5445 60.7137 28.1664 60.5266 27.9503 60.1524C27.7343 59.7782 27.6262 59.2535 27.6262 58.5783ZM30.0163 58.5783C30.0163 58.2426 29.9932 57.9591 29.9469 57.7276C29.9044 57.4922 29.8138 57.3032 29.6749 57.1604C29.5399 57.0177 29.3431 56.9463 29.0846 56.9463C28.8222 56.9463 28.6216 57.0177 28.4827 57.1604C28.3477 57.3032 28.257 57.4922 28.2107 57.7276C28.1683 57.9591 28.1471 58.2426 28.1471 58.5783C28.1471 58.9255 28.1683 59.2168 28.2107 59.4521C28.257 59.6875 28.3477 59.8765 28.4827 60.0193C28.6216 60.162 28.8222 60.2334 29.0846 60.2334C29.3431 60.2334 29.5399 60.162 29.6749 60.0193C29.8138 59.8765 29.9044 59.6875 29.9469 59.4521C29.9932 59.2168 30.0163 58.9255 30.0163 58.5783Z" fill="#747B7E"/>
<path d="M27.6223 132.037C27.6223 131.374 27.7304 130.857 27.9464 130.486C28.1625 130.112 28.5406 129.925 29.0807 129.925C29.617 129.925 29.9931 130.112 30.2092 130.486C30.4252 130.857 30.5333 131.374 30.5333 132.037C30.5333 132.713 30.4252 133.237 30.2092 133.611C29.9931 133.986 29.617 134.173 29.0807 134.173C28.5406 134.173 28.1625 133.986 27.9464 133.611C27.7304 133.237 27.6223 132.713 27.6223 132.037ZM30.0124 132.037C30.0124 131.702 29.9893 131.418 29.943 131.187C29.9005 130.951 29.8099 130.762 29.671 130.62C29.536 130.477 29.3392 130.405 29.0807 130.405C28.8183 130.405 28.6177 130.477 28.4788 130.62C28.3438 130.762 28.2531 130.951 28.2068 131.187C28.1644 131.418 28.1432 131.702 28.1432 132.037C28.1432 132.385 28.1644 132.676 28.2068 132.911C28.2531 133.147 28.3438 133.336 28.4788 133.478C28.6177 133.621 28.8183 133.693 29.0807 133.693C29.3392 133.693 29.536 133.621 29.671 133.478C29.8099 133.336 29.9005 133.147 29.943 132.911C29.9893 132.676 30.0124 132.385 30.0124 132.037Z" fill="#747B7E"/>
<path d="M22.0007 105.983V105.503H23.0887V109.687H22.5563V105.983H22.0007ZM23.9933 107.551C23.9933 106.888 24.1013 106.371 24.3174 106C24.5334 105.626 24.9115 105.439 25.4517 105.439C25.9879 105.439 26.3641 105.626 26.5801 106C26.7962 106.371 26.9042 106.888 26.9042 107.551C26.9042 108.226 26.7962 108.751 26.5801 109.125C26.3641 109.5 25.9879 109.687 25.4517 109.687C24.9115 109.687 24.5334 109.5 24.3174 109.125C24.1013 108.751 23.9933 108.226 23.9933 107.551ZM26.3834 107.551C26.3834 107.216 26.3602 106.932 26.3139 106.7C26.2715 106.465 26.1808 106.276 26.0419 106.133C25.9069 105.991 25.7101 105.919 25.4517 105.919C25.1893 105.919 24.9887 105.991 24.8498 106.133C24.7148 106.276 24.6241 106.465 24.5778 106.7C24.5354 106.932 24.5141 107.216 24.5141 107.551C24.5141 107.898 24.5354 108.19 24.5778 108.425C24.6241 108.66 24.7148 108.849 24.8498 108.992C24.9887 109.135 25.1893 109.206 25.4517 109.206C25.7101 109.206 25.9069 109.135 26.0419 108.992C26.1808 108.849 26.2715 108.66 26.3139 108.425C26.3602 108.19 26.3834 107.898 26.3834 107.551ZM27.6272 107.551C27.6272 106.888 27.7352 106.371 27.9513 106C28.1673 105.626 28.5454 105.439 29.0856 105.439C29.6218 105.439 29.998 105.626 30.2141 106C30.4301 106.371 30.5381 106.888 30.5381 107.551C30.5381 108.226 30.4301 108.751 30.2141 109.125C29.998 109.5 29.6218 109.687 29.0856 109.687C28.5454 109.687 28.1673 109.5 27.9513 109.125C27.7352 108.751 27.6272 108.226 27.6272 107.551ZM30.0173 107.551C30.0173 107.216 29.9942 106.932 29.9479 106.7C29.9054 106.465 29.8148 106.276 29.6759 106.133C29.5408 105.991 29.3441 105.919 29.0856 105.919C28.8232 105.919 28.6226 105.991 28.4837 106.133C28.3487 106.276 28.258 106.465 28.2117 106.7C28.1693 106.932 28.1481 107.216 28.1481 107.551C28.1481 107.898 28.1693 108.19 28.2117 108.425C28.258 108.66 28.3487 108.849 28.4837 108.992C28.6226 109.135 28.8232 109.206 29.0856 109.206C29.3441 109.206 29.5408 109.135 29.6759 108.992C29.8148 108.849 29.9054 108.66 29.9479 108.425C29.9942 108.19 30.0173 107.898 30.0173 107.551Z" fill="#747B7E"/>
<path d="M20.5999 84.7776C21.0899 84.3841 21.4738 84.0619 21.7516 83.8112C22.0293 83.5565 22.2628 83.2922 22.4518 83.0183C22.6447 82.7405 22.7412 82.4685 22.7412 82.2023C22.7412 81.9516 22.6794 81.7548 22.556 81.612C22.4364 81.4654 22.2415 81.3921 21.9715 81.3921C21.7091 81.3921 21.5046 81.4751 21.358 81.641C21.2153 81.803 21.1381 82.021 21.1265 82.2949H20.6173C20.6327 81.8628 20.7639 81.5291 21.0108 81.2937C21.2577 81.0584 21.576 80.9407 21.9657 80.9407C22.3631 80.9407 22.6775 81.0507 22.909 81.2706C23.1443 81.4905 23.262 81.7934 23.262 82.1792C23.262 82.4994 23.1656 82.8119 22.9726 83.1167C22.7836 83.4176 22.5675 83.6838 22.3245 83.9153C22.0814 84.143 21.7708 84.4092 21.3928 84.714H23.3835V85.1538H20.5999V84.7776ZM23.9923 83.0646C23.9923 82.401 24.1003 81.884 24.3164 81.5137C24.5324 81.1394 24.9105 80.9523 25.4507 80.9523C25.987 80.9523 26.3631 81.1394 26.5792 81.5137C26.7952 81.884 26.9032 82.401 26.9032 83.0646C26.9032 83.7398 26.7952 84.2645 26.5792 84.6387C26.3631 85.013 25.987 85.2001 25.4507 85.2001C24.9105 85.2001 24.5324 85.013 24.3164 84.6387C24.1003 84.2645 23.9923 83.7398 23.9923 83.0646ZM26.3824 83.0646C26.3824 82.729 26.3593 82.4454 26.313 82.2139C26.2705 81.9786 26.1799 81.7895 26.041 81.6468C25.9059 81.504 25.7092 81.4326 25.4507 81.4326C25.1883 81.4326 24.9877 81.504 24.8488 81.6468C24.7138 81.7895 24.6231 81.9786 24.5768 82.2139C24.5344 82.4454 24.5132 82.729 24.5132 83.0646C24.5132 83.4118 24.5344 83.7031 24.5768 83.9385C24.6231 84.1738 24.7138 84.3629 24.8488 84.5056C24.9877 84.6484 25.1883 84.7197 25.4507 84.7197C25.7092 84.7197 25.9059 84.6484 26.041 84.5056C26.1799 84.3629 26.2705 84.1738 26.313 83.9385C26.3593 83.7031 26.3824 83.4118 26.3824 83.0646ZM27.6262 83.0646C27.6262 82.401 27.7343 81.884 27.9503 81.5137C28.1664 81.1394 28.5445 80.9523 29.0846 80.9523C29.6209 80.9523 29.997 81.1394 30.2131 81.5137C30.4291 81.884 30.5372 82.401 30.5372 83.0646C30.5372 83.7398 30.4291 84.2645 30.2131 84.6387C29.997 85.013 29.6209 85.2001 29.0846 85.2001C28.5445 85.2001 28.1664 85.013 27.9503 84.6387C27.7343 84.2645 27.6262 83.7398 27.6262 83.0646ZM30.0163 83.0646C30.0163 82.729 29.9932 82.4454 29.9469 82.2139C29.9044 81.9786 29.8138 81.7895 29.6749 81.6468C29.5399 81.504 29.3431 81.4326 29.0846 81.4326C28.8222 81.4326 28.6216 81.504 28.4827 81.6468C28.3477 81.7895 28.257 81.9786 28.2107 82.2139C28.1683 82.4454 28.1471 82.729 28.1471 83.0646C28.1471 83.4118 28.1683 83.7031 28.2107 83.9385C28.257 84.1738 28.3477 84.3629 28.4827 84.5056C28.6216 84.6484 28.8222 84.7197 29.0846 84.7197C29.3431 84.7197 29.5399 84.6484 29.6749 84.5056C29.8138 84.3629 29.9044 84.1738 29.9469 83.9385C29.9932 83.7031 30.0163 83.4118 30.0163 83.0646Z" fill="#747B7E"/>
<rect x="46.6447" y="105.601" width="10.4941" height="30.3164" fill="#F6FEE0"/>
<rect x="57.1408" y="78.2" width="10.4941" height="57.7177" fill="#131316"/>
<mask id="mask0_1_341" style="mask-type:alpha" maskUnits="userSpaceOnUse" x="46" y="105" width="12" height="31">
<rect x="46.6447" y="105.602" width="10.4941" height="30.3164" fill="#DAF4FE"/>
</mask>
<g mask="url(#mask0_1_341)">
<line x1="34.025" y1="126.385" x2="70.1714" y2="162.532" stroke="#131316" stroke-width="0.578715"/>
<line x1="34.025" y1="98.4009" x2="70.1714" y2="134.547" stroke="#131316" stroke-width="0.578715"/>
<line x1="34.025" y1="112.393" x2="70.1714" y2="148.539" stroke="#131316" stroke-width="0.578715"/>
<line x1="34.025" y1="84.4087" x2="70.1714" y2="120.555" stroke="#131316" stroke-width="0.578715"/>
<line x1="34.025" y1="119.389" x2="70.1714" y2="155.536" stroke="#131316" stroke-width="0.578715"/>
<line x1="34.025" y1="91.4046" x2="70.1714" y2="127.551" stroke="#131316" stroke-width="0.578715"/>
<line x1="34.025" y1="105.397" x2="70.1714" y2="141.543" stroke="#131316" stroke-width="0.578715"/>
<line x1="34.025" y1="77.4126" x2="70.1714" y2="113.559" stroke="#131316" stroke-width="0.578715"/>
</g>
<rect x="81.6288" y="80.5323" width="10.4941" height="55.3857" fill="#F6FEE0"/>
<rect x="92.125" y="55.463" width="10.4941" height="80.455" fill="#131316"/>
<mask id="mask1_1_341" style="mask-type:alpha" maskUnits="userSpaceOnUse" x="81" y="80" width="12" height="56">
<rect x="81.6288" y="80.5323" width="10.4941" height="55.3857" fill="#DAF4FE"/>
</mask>
<g mask="url(#mask1_1_341)">
<line x1="69.0055" y1="126.385" x2="105.152" y2="162.532" stroke="#131316" stroke-width="0.578715"/>
<line x1="69.0055" y1="98.401" x2="105.152" y2="134.547" stroke="#131316" stroke-width="0.578715"/>
<line x1="69.0055" y1="112.393" x2="105.152" y2="148.54" stroke="#131316" stroke-width="0.578715"/>
<line x1="69.0055" y1="84.4088" x2="105.152" y2="120.555" stroke="#131316" stroke-width="0.578715"/>
<line x1="69.0055" y1="63.4205" x2="105.152" y2="99.567" stroke="#131316" stroke-width="0.578715"/>
<line x1="69.0055" y1="119.389" x2="105.152" y2="155.536" stroke="#131316" stroke-width="0.578715"/>
<line x1="69.0055" y1="91.4049" x2="105.152" y2="127.551" stroke="#131316" stroke-width="0.578715"/>
<line x1="69.0055" y1="70.4165" x2="105.152" y2="106.563" stroke="#131316" stroke-width="0.578715"/>
<line x1="69.0055" y1="105.397" x2="105.152" y2="141.543" stroke="#131316" stroke-width="0.578715"/>
<line x1="69.0055" y1="77.4127" x2="105.152" y2="113.559" stroke="#131316" stroke-width="0.578715"/>
<line x1="69.0055" y1="56.4244" x2="105.152" y2="92.5709" stroke="#131316" stroke-width="0.578715"/>
</g>
</svg>
