<svg width="106" height="155" viewBox="0 0 106 155" fill="none" xmlns="http://www.w3.org/2000/svg">
<rect x="0.726807" y="26.0099" width="23.4125" height="23.4125" rx="4.61814" fill="white"/>
<rect x="0.726807" y="61.1288" width="23.4125" height="23.4125" rx="4.61814" fill="#F6FEE0"/>
<rect x="0.726807" y="96.2473" width="23.4125" height="23.4125" rx="4.61814" fill="#DAF4FE"/>
<rect x="0.726807" y="131.366" width="23.4125" height="23.4125" rx="4.61814" fill="#DFECF4" fill-opacity="0.2"/>
<rect x="1.01544" y="131.655" width="22.8353" height="22.8353" rx="4.32951" stroke="#DFECF4" stroke-opacity="0.5" stroke-width="0.577268"/>
<g clip-path="url(#clip0_1_467)">
<path d="M14.7776 110.295H15.9483" stroke="#131316" stroke-width="0.865902" stroke-linecap="round" stroke-linejoin="round"/>
<path d="M8.91821 105.612H10.0888" stroke="#131316" stroke-width="0.865902" stroke-linecap="round" stroke-linejoin="round"/>
<path d="M12.4287 109.71C13.0752 109.71 13.5993 108.923 13.5993 107.954C13.5993 106.984 13.0752 106.198 12.4287 106.198C11.7822 106.198 11.2581 106.984 11.2581 107.954C11.2581 108.923 11.7822 109.71 12.4287 109.71Z" stroke="#131316" stroke-width="0.865902" stroke-miterlimit="10"/>
<path d="M15.9473 103.271H8.92353C7.63049 103.271 6.58228 104.319 6.58228 105.612V110.295C6.58228 111.588 7.63049 112.636 8.92353 112.636H15.9473C17.2403 112.636 18.2885 111.588 18.2885 110.295V105.612C18.2885 104.319 17.2403 103.271 15.9473 103.271Z" stroke="#131316" stroke-width="0.865902" stroke-miterlimit="10"/>
</g>
<path d="M5.75135 3.3945V4.4382H4.0334V9.84143H2.74032V4.4382H1.02237V3.3945H5.75135ZM8.96694 9.92456C8.47434 9.92456 8.031 9.8168 7.63692 9.60129C7.24284 9.37962 6.93188 9.06866 6.70405 8.66842C6.48238 8.26818 6.37155 7.80637 6.37155 7.28298C6.37155 6.75959 6.48546 6.29778 6.71329 5.89754C6.94728 5.4973 7.26439 5.18942 7.66463 4.97391C8.06487 4.75224 8.51129 4.6414 9.00389 4.6414C9.49649 4.6414 9.94291 4.75224 10.3431 4.97391C10.7434 5.18942 11.0574 5.4973 11.2852 5.89754C11.5192 6.29778 11.6362 6.75959 11.6362 7.28298C11.6362 7.80637 11.5162 8.26818 11.276 8.66842C11.042 9.06866 10.7218 9.37962 10.3154 9.60129C9.9152 9.8168 9.4657 9.92456 8.96694 9.92456ZM8.96694 8.79773C9.20093 8.79773 9.41952 8.74231 9.62272 8.63148C9.83207 8.51448 9.99833 8.34207 10.1215 8.11425C10.2446 7.88642 10.3062 7.60933 10.3062 7.28298C10.3062 6.79654 10.1769 6.42401 9.91828 6.16539C9.66582 5.90062 9.35487 5.76823 8.98542 5.76823C8.61596 5.76823 8.30501 5.90062 8.05255 6.16539C7.80625 6.42401 7.6831 6.79654 7.6831 7.28298C7.6831 7.76942 7.80317 8.14503 8.04331 8.40981C8.28962 8.66842 8.59749 8.79773 8.96694 8.79773ZM14.4531 7.26451C14.4531 6.74728 14.5547 6.28854 14.7579 5.8883C14.9672 5.48806 15.2505 5.18019 15.6076 4.96467C15.9648 4.74916 16.3619 4.6414 16.7991 4.6414C17.1316 4.6414 17.4487 4.71529 17.7504 4.86307C18.0522 5.0047 18.2923 5.19558 18.4709 5.43572V3.00658H19.7824V9.84143H18.4709V9.08406C18.3108 9.33651 18.086 9.53971 17.7966 9.69365C17.5072 9.84759 17.1716 9.92456 16.7899 9.92456C16.3588 9.92456 15.9648 9.81372 15.6076 9.59205C15.2505 9.37038 14.9672 9.05943 14.7579 8.65919C14.5547 8.25279 14.4531 7.7879 14.4531 7.26451ZM18.4801 7.28298C18.4801 6.96895 18.4185 6.70109 18.2954 6.47942C18.1722 6.2516 18.006 6.07918 17.7966 5.96219C17.5873 5.83904 17.3625 5.77747 17.1224 5.77747C16.8822 5.77747 16.6606 5.83596 16.4574 5.95296C16.2542 6.06995 16.0879 6.24236 15.9586 6.47019C15.8354 6.69186 15.7739 6.95663 15.7739 7.26451C15.7739 7.57238 15.8354 7.84331 15.9586 8.0773C16.0879 8.30513 16.2542 8.48062 16.4574 8.60377C16.6667 8.72692 16.8884 8.78849 17.1224 8.78849C17.3625 8.78849 17.5873 8.73 17.7966 8.613C18.006 8.48985 18.1722 8.31744 18.2954 8.09577C18.4185 7.86794 18.4801 7.59701 18.4801 7.28298ZM23.3175 9.92456C22.8249 9.92456 22.3815 9.8168 21.9874 9.60129C21.5934 9.37962 21.2824 9.06866 21.0546 8.66842C20.8329 8.26818 20.7221 7.80637 20.7221 7.28298C20.7221 6.75959 20.836 6.29778 21.0638 5.89754C21.2978 5.4973 21.6149 5.18942 22.0151 4.97391C22.4154 4.75224 22.8618 4.6414 23.3544 4.6414C23.847 4.6414 24.2934 4.75224 24.6937 4.97391C25.0939 5.18942 25.4079 5.4973 25.6358 5.89754C25.8698 6.29778 25.9867 6.75959 25.9867 7.28298C25.9867 7.80637 25.8667 8.26818 25.6265 8.66842C25.3925 9.06866 25.0724 9.37962 24.666 9.60129C24.2657 9.8168 23.8162 9.92456 23.3175 9.92456ZM23.3175 8.79773C23.5514 8.79773 23.77 8.74231 23.9732 8.63148C24.1826 8.51448 24.3488 8.34207 24.472 8.11425C24.5951 7.88642 24.6567 7.60933 24.6567 7.28298C24.6567 6.79654 24.5274 6.42401 24.2688 6.16539C24.0163 5.90062 23.7054 5.76823 23.3359 5.76823C22.9665 5.76823 22.6555 5.90062 22.4031 6.16539C22.1568 6.42401 22.0336 6.79654 22.0336 7.28298C22.0336 7.76942 22.1537 8.14503 22.3938 8.40981C22.6401 8.66842 22.948 8.79773 23.3175 8.79773ZM30.4292 3.00658V9.84143H29.1361V3.00658H30.4292ZM32.3625 4.11493C32.1347 4.11493 31.9438 4.04412 31.7899 3.9025C31.6421 3.75472 31.5682 3.57307 31.5682 3.35756C31.5682 3.14205 31.6421 2.96348 31.7899 2.82185C31.9438 2.67407 32.1347 2.60018 32.3625 2.60018C32.5903 2.60018 32.7782 2.67407 32.9259 2.82185C33.0799 2.96348 33.1568 3.14205 33.1568 3.35756C33.1568 3.57307 33.0799 3.75472 32.9259 3.9025C32.7782 4.04412 32.5903 4.11493 32.3625 4.11493ZM32.9998 4.72453V9.84143H31.7067V4.72453H32.9998ZM36.2355 9.92456C35.8168 9.92456 35.4412 9.85067 35.1087 9.70289C34.7762 9.54895 34.5114 9.34267 34.3143 9.08406C34.1235 8.82544 34.0188 8.53911 34.0003 8.22508H35.3026C35.3272 8.42212 35.4227 8.5853 35.5889 8.7146C35.7614 8.84391 35.9738 8.90857 36.2262 8.90857C36.4725 8.90857 36.6634 8.85931 36.7989 8.76079C36.9405 8.66227 37.0113 8.53604 37.0113 8.3821C37.0113 8.21584 36.9251 8.09269 36.7527 8.01265C36.5865 7.92644 36.3186 7.83408 35.9492 7.73556C35.5674 7.6432 35.2534 7.54775 35.0071 7.44923C34.7669 7.35071 34.5576 7.19985 34.379 6.99666C34.2066 6.79346 34.1204 6.51945 34.1204 6.17463C34.1204 5.89138 34.2004 5.63276 34.3605 5.39878C34.5268 5.16479 34.7608 4.98007 35.0625 4.8446C35.3704 4.70914 35.7306 4.6414 36.1431 4.6414C36.7527 4.6414 37.2392 4.79534 37.6025 5.10322C37.9657 5.40494 38.1659 5.81441 38.2028 6.33164H36.9651C36.9467 6.12844 36.8605 5.96835 36.7065 5.85136C36.5588 5.72821 36.3586 5.66663 36.1062 5.66663C35.8722 5.66663 35.6905 5.70973 35.5612 5.79594C35.4381 5.88214 35.3765 6.00222 35.3765 6.15615C35.3765 6.32856 35.4627 6.46095 35.6351 6.55331C35.8075 6.63952 36.0754 6.7288 36.4387 6.82117C36.8081 6.91353 37.1129 7.00897 37.3531 7.10749C37.5932 7.20601 37.7995 7.35995 37.9719 7.5693C38.1505 7.7725 38.2428 8.04343 38.249 8.3821C38.249 8.67766 38.1659 8.94243 37.9996 9.17642C37.8395 9.4104 37.6055 9.59513 37.2977 9.7306C36.9959 9.8599 36.6419 9.92456 36.2355 9.92456ZM40.816 5.7867V8.26203C40.816 8.43444 40.856 8.56067 40.936 8.64071C41.0222 8.7146 41.1639 8.75155 41.3609 8.75155H41.9613V9.84143H41.1485C40.0586 9.84143 39.5136 9.31188 39.5136 8.25279V5.7867H38.904V4.72453H39.5136V3.45916H40.816V4.72453H41.9613V5.7867H40.816Z" fill="white"/>
<path d="M32.2592 31.9244V35.9364H31.6012V31.9244H32.2592ZM36.9736 32.7037C37.2238 32.7037 37.447 32.7557 37.6433 32.8596C37.8434 32.9635 37.9992 33.1174 38.1108 33.3214C38.2263 33.5253 38.284 33.7716 38.284 34.0603V35.9364H37.6317V34.1584C37.6317 33.8736 37.5605 33.6562 37.4181 33.5061C37.2757 33.3522 37.0814 33.2752 36.8351 33.2752C36.5888 33.2752 36.3925 33.3522 36.2463 33.5061C36.1039 33.6562 36.0327 33.8736 36.0327 34.1584V35.9364H35.3804V34.1584C35.3804 33.8736 35.3092 33.6562 35.1668 33.5061C35.0244 33.3522 34.83 33.2752 34.5837 33.2752C34.3374 33.2752 34.1412 33.3522 33.9949 33.5061C33.8525 33.6562 33.7813 33.8736 33.7813 34.1584V35.9364H33.1233V32.7557H33.7813V33.1193C33.8891 32.9885 34.0257 32.8865 34.1912 32.8134C34.3567 32.7403 34.5337 32.7037 34.7223 32.7037C34.9763 32.7037 35.2033 32.7576 35.4035 32.8653C35.6036 32.9731 35.7575 33.129 35.8653 33.3329C35.9615 33.1405 36.1116 32.9885 36.3155 32.8769C36.5195 32.7614 36.7389 32.7037 36.9736 32.7037ZM39.7795 33.2232C39.8911 33.077 40.0431 32.9539 40.2356 32.8538C40.428 32.7537 40.6454 32.7037 40.8879 32.7037C41.165 32.7037 41.417 32.773 41.6441 32.9115C41.875 33.0462 42.0559 33.2367 42.1867 33.483C42.3176 33.7293 42.383 34.0122 42.383 34.3316C42.383 34.651 42.3176 34.9377 42.1867 35.1917C42.0559 35.4419 41.875 35.6381 41.6441 35.7805C41.417 35.9191 41.165 35.9884 40.8879 35.9884C40.6454 35.9884 40.4299 35.9402 40.2413 35.844C40.0528 35.744 39.8988 35.6208 39.7795 35.4746V37.4488H39.1214V32.7557H39.7795V33.2232ZM41.7134 34.3316C41.7134 34.1122 41.6672 33.9237 41.5748 33.7659C41.4863 33.6042 41.367 33.483 41.2169 33.4022C41.0707 33.3175 40.9129 33.2752 40.7436 33.2752C40.5781 33.2752 40.4203 33.3175 40.2702 33.4022C40.1239 33.4869 40.0046 33.61 39.9123 33.7716C39.8238 33.9333 39.7795 34.1238 39.7795 34.3431C39.7795 34.5625 39.8238 34.7549 39.9123 34.9204C40.0046 35.082 40.1239 35.2052 40.2702 35.2899C40.4203 35.3745 40.5781 35.4169 40.7436 35.4169C40.9129 35.4169 41.0707 35.3745 41.2169 35.2899C41.367 35.2013 41.4863 35.0743 41.5748 34.9089C41.6672 34.7434 41.7134 34.551 41.7134 34.3316ZM44.4134 35.9884C44.1133 35.9884 43.8419 35.921 43.5995 35.7863C43.357 35.6478 43.1665 35.4553 43.028 35.209C42.8895 34.9589 42.8202 34.6703 42.8202 34.3431C42.8202 34.0199 42.8914 33.7332 43.0338 33.483C43.1762 33.2329 43.3705 33.0404 43.6168 32.9057C43.8631 32.7711 44.1383 32.7037 44.4423 32.7037C44.7463 32.7037 45.0215 32.7711 45.2678 32.9057C45.5141 33.0404 45.7084 33.2329 45.8508 33.483C45.9932 33.7332 46.0644 34.0199 46.0644 34.3431C46.0644 34.6664 45.9913 34.9531 45.8451 35.2033C45.6988 35.4534 45.4987 35.6478 45.2447 35.7863C44.9946 35.921 44.7175 35.9884 44.4134 35.9884ZM44.4134 35.4169C44.5828 35.4169 44.7406 35.3765 44.8868 35.2956C45.0369 35.2148 45.1581 35.0936 45.2505 34.932C45.3428 34.7703 45.389 34.574 45.389 34.3431C45.389 34.1122 45.3448 33.9179 45.2563 33.7601C45.1677 33.5985 45.0504 33.4772 44.9041 33.3964C44.7579 33.3156 44.6001 33.2752 44.4308 33.2752C44.2614 33.2752 44.1036 33.3156 43.9574 33.3964C43.815 33.4772 43.7015 33.5985 43.6168 33.7601C43.5321 33.9179 43.4898 34.1122 43.4898 34.3431C43.4898 34.6857 43.5764 34.9512 43.7496 35.1398C43.9266 35.3245 44.1479 35.4169 44.4134 35.4169ZM47.3731 33.2175C47.4693 33.0558 47.5963 32.9308 47.7541 32.8422C47.9157 32.7499 48.1062 32.7037 48.3256 32.7037V33.3849H48.1581C47.9003 33.3849 47.704 33.4503 47.5693 33.5811C47.4385 33.712 47.3731 33.9391 47.3731 34.2623V35.9364H46.715V32.7557H47.3731V33.2175ZM49.6982 33.2925V35.0532C49.6982 35.1725 49.7252 35.2591 49.7791 35.313C49.8368 35.363 49.933 35.388 50.0677 35.388H50.4718V35.9364H49.9522C49.6559 35.9364 49.4288 35.8671 49.2711 35.7286C49.1133 35.59 49.0344 35.3649 49.0344 35.0532V33.2925H48.6592V32.7557H49.0344V31.9648H49.6982V32.7557H50.4718V33.2925H49.6982ZM52.3585 34.3316C52.3585 34.0122 52.4239 33.7293 52.5548 33.483C52.6895 33.2367 52.8703 33.0462 53.0974 32.9115C53.3283 32.773 53.5842 32.7037 53.8652 32.7037C54.073 32.7037 54.2769 32.7499 54.4771 32.8422C54.681 32.9308 54.8427 33.0501 54.962 33.2002V31.6646H55.6258V35.9364H54.962V35.4573C54.8542 35.6112 54.7041 35.7382 54.5117 35.8383C54.3231 35.9383 54.1057 35.9884 53.8594 35.9884C53.5823 35.9884 53.3283 35.9191 53.0974 35.7805C52.8703 35.6381 52.6895 35.4419 52.5548 35.1917C52.4239 34.9377 52.3585 34.651 52.3585 34.3316ZM54.962 34.3431C54.962 34.1238 54.9158 33.9333 54.8234 33.7716C54.7349 33.61 54.6175 33.4869 54.4713 33.4022C54.3251 33.3175 54.1673 33.2752 53.9979 33.2752C53.8286 33.2752 53.6708 33.3175 53.5246 33.4022C53.3783 33.483 53.259 33.6042 53.1667 33.7659C53.0782 33.9237 53.0339 34.1122 53.0339 34.3316C53.0339 34.551 53.0782 34.7434 53.1667 34.9089C53.259 35.0743 53.3783 35.2013 53.5246 35.2899C53.6747 35.3745 53.8324 35.4169 53.9979 35.4169C54.1673 35.4169 54.3251 35.3745 54.4713 35.2899C54.6175 35.2052 54.7349 35.082 54.8234 34.9204C54.9158 34.7549 54.962 34.5625 54.962 34.3431ZM56.2708 34.3316C56.2708 34.0122 56.3363 33.7293 56.4671 33.483C56.6018 33.2367 56.7827 33.0462 57.0097 32.9115C57.2406 32.773 57.4946 32.7037 57.7717 32.7037C58.0219 32.7037 58.2393 32.7537 58.424 32.8538C58.6126 32.95 58.7627 33.0712 58.8743 33.2175V32.7557H59.5382V35.9364H58.8743V35.463C58.7627 35.6131 58.6107 35.7382 58.4183 35.8383C58.2258 35.9383 58.0065 35.9884 57.7602 35.9884C57.4869 35.9884 57.2368 35.9191 57.0097 35.7805C56.7827 35.6381 56.6018 35.4419 56.4671 35.1917C56.3363 34.9377 56.2708 34.651 56.2708 34.3316ZM58.8743 34.3431C58.8743 34.1238 58.8281 33.9333 58.7358 33.7716C58.6473 33.61 58.5299 33.4869 58.3836 33.4022C58.2374 33.3175 58.0796 33.2752 57.9103 33.2752C57.7409 33.2752 57.5832 33.3175 57.4369 33.4022C57.2907 33.483 57.1714 33.6042 57.079 33.7659C56.9905 33.9237 56.9462 34.1122 56.9462 34.3316C56.9462 34.551 56.9905 34.7434 57.079 34.9089C57.1714 35.0743 57.2907 35.2013 57.4369 35.2899C57.587 35.3745 57.7448 35.4169 57.9103 35.4169C58.0796 35.4169 58.2374 35.3745 58.3836 35.2899C58.5299 35.2052 58.6473 35.082 58.7358 34.9204C58.8281 34.7549 58.8743 34.5625 58.8743 34.3431ZM61.1703 33.2925V35.0532C61.1703 35.1725 61.1972 35.2591 61.2511 35.313C61.3088 35.363 61.4051 35.388 61.5398 35.388H61.9438V35.9364H61.4243C61.128 35.9364 60.9009 35.8671 60.7431 35.7286C60.5853 35.59 60.5064 35.3649 60.5064 35.0532V33.2925H60.1312V32.7557H60.5064V31.9648H61.1703V32.7557H61.9438V33.2925H61.1703ZM62.331 34.3316C62.331 34.0122 62.3964 33.7293 62.5273 33.483C62.662 33.2367 62.8429 33.0462 63.0699 32.9115C63.3008 32.773 63.5548 32.7037 63.8319 32.7037C64.0821 32.7037 64.2995 32.7537 64.4842 32.8538C64.6728 32.95 64.8229 33.0712 64.9345 33.2175V32.7557H65.5984V35.9364H64.9345V35.463C64.8229 35.6131 64.6709 35.7382 64.4785 35.8383C64.286 35.9383 64.0667 35.9884 63.8204 35.9884C63.5471 35.9884 63.297 35.9191 63.0699 35.7805C62.8429 35.6381 62.662 35.4419 62.5273 35.1917C62.3964 34.9377 62.331 34.651 62.331 34.3316ZM64.9345 34.3431C64.9345 34.1238 64.8883 33.9333 64.796 33.7716C64.7074 33.61 64.5901 33.4869 64.4438 33.4022C64.2976 33.3175 64.1398 33.2752 63.9705 33.2752C63.8011 33.2752 63.6433 33.3175 63.4971 33.4022C63.3509 33.483 63.2316 33.6042 63.1392 33.7659C63.0507 33.9237 63.0064 34.1122 63.0064 34.3316C63.0064 34.551 63.0507 34.7434 63.1392 34.9089C63.2316 35.0743 63.3509 35.2013 63.4971 35.2899C63.6472 35.3745 63.805 35.4169 63.9705 35.4169C64.1398 35.4169 64.2976 35.3745 64.4438 35.2899C64.5901 35.2052 64.7074 35.082 64.796 34.9204C64.8883 34.7549 64.9345 34.5625 64.9345 34.3431Z" fill="white"/>
<path d="M33.6759 42.7808C33.6759 43.0486 33.5835 43.2718 33.3988 43.4504C33.2171 43.6259 32.9385 43.7136 32.5629 43.7136H31.9441V45.0575H31.5238V41.8387H32.5629C32.9262 41.8387 33.2017 41.9264 33.3895 42.1019C33.5804 42.2774 33.6759 42.5037 33.6759 42.7808ZM32.5629 43.3673C32.7969 43.3673 32.9693 43.3165 33.0801 43.2149C33.191 43.1133 33.2464 42.9686 33.2464 42.7808C33.2464 42.3836 33.0185 42.185 32.5629 42.185H31.9441V43.3673H32.5629ZM34.0412 43.7829C34.0412 43.5243 34.0935 43.298 34.1982 43.104C34.3029 42.907 34.446 42.7546 34.6277 42.6468C34.8124 42.5391 35.0171 42.4852 35.2419 42.4852C35.4636 42.4852 35.656 42.5329 35.8192 42.6284C35.9823 42.7238 36.1039 42.8439 36.184 42.9886V42.5268H36.6089V45.0575H36.184V44.5864C36.1009 44.7342 35.9762 44.8574 35.8099 44.9559C35.6467 45.0513 35.4559 45.0991 35.2373 45.0991C35.0125 45.0991 34.8093 45.0436 34.6277 44.9328C34.446 44.822 34.3029 44.6665 34.1982 44.4664C34.0935 44.2663 34.0412 44.0384 34.0412 43.7829ZM36.184 43.7875C36.184 43.5966 36.1455 43.4304 36.0685 43.2887C35.9916 43.1471 35.8869 43.0394 35.7545 42.9655C35.6252 42.8885 35.482 42.85 35.325 42.85C35.168 42.85 35.0248 42.887 34.8955 42.9609C34.7662 43.0347 34.6631 43.1425 34.5861 43.2841C34.5091 43.4258 34.4707 43.592 34.4707 43.7829C34.4707 43.9768 34.5091 44.1462 34.5861 44.2909C34.6631 44.4325 34.7662 44.5418 34.8955 44.6188C35.0248 44.6927 35.168 44.7296 35.325 44.7296C35.482 44.7296 35.6252 44.6927 35.7545 44.6188C35.8869 44.5418 35.9916 44.4325 36.0685 44.2909C36.1455 44.1462 36.184 43.9784 36.184 43.7875ZM38.215 45.0991C38.021 45.0991 37.847 45.0667 37.6931 45.0021C37.5392 44.9343 37.4176 44.842 37.3283 44.725C37.239 44.6049 37.1897 44.4679 37.1805 44.314H37.6146C37.6269 44.4402 37.6854 44.5433 37.7901 44.6234C37.8978 44.7034 38.0379 44.7435 38.2103 44.7435C38.3704 44.7435 38.4967 44.7081 38.589 44.6372C38.6814 44.5664 38.7276 44.4771 38.7276 44.3694C38.7276 44.2586 38.6783 44.177 38.5798 44.1246C38.4813 44.0692 38.3289 44.0153 38.1226 43.963C37.9348 43.9137 37.7809 43.8645 37.6608 43.8152C37.5438 43.7629 37.4422 43.6874 37.356 43.5889C37.2729 43.4873 37.2313 43.3549 37.2313 43.1918C37.2313 43.0625 37.2698 42.9439 37.3467 42.8362C37.4237 42.7284 37.533 42.6437 37.6746 42.5822C37.8163 42.5175 37.9779 42.4852 38.1595 42.4852C38.4397 42.4852 38.666 42.556 38.8384 42.6976C39.0108 42.8392 39.1032 43.0332 39.1155 43.2795H38.6952C38.686 43.1471 38.6321 43.0409 38.5336 42.9609C38.4382 42.8808 38.3089 42.8408 38.1457 42.8408C37.9948 42.8408 37.8748 42.8731 37.7855 42.9378C37.6962 43.0024 37.6515 43.0871 37.6515 43.1918C37.6515 43.2749 37.6777 43.3442 37.7301 43.3996C37.7855 43.4519 37.8532 43.495 37.9332 43.5289C38.0164 43.5597 38.1303 43.5951 38.275 43.6351C38.4566 43.6844 38.6044 43.7336 38.7183 43.7829C38.8322 43.8291 38.9292 43.8999 39.0093 43.9953C39.0924 44.0908 39.1355 44.2155 39.1386 44.3694C39.1386 44.5079 39.1001 44.6326 39.0231 44.7435C38.9462 44.8543 38.8369 44.942 38.6952 45.0067C38.5567 45.0683 38.3966 45.0991 38.215 45.0991ZM40.2444 42.8731V44.3648C40.2444 44.4879 40.2706 44.5757 40.323 44.628C40.3753 44.6773 40.4661 44.7019 40.5954 44.7019H40.9048V45.0575H40.5262C40.2922 45.0575 40.1167 45.0036 39.9997 44.8959C39.8827 44.7881 39.8242 44.6111 39.8242 44.3648V42.8731H39.4963V42.5268H39.8242V41.8894H40.2444V42.5268H40.9048V42.8731H40.2444ZM44.631 42.0465L43.3472 45.0575H42.9223L44.2246 42.088H42.442V41.7278H44.631V42.0465ZM46.2405 43.7829C46.2405 43.5243 46.2928 43.298 46.3975 43.104C46.5022 42.907 46.6453 42.7546 46.827 42.6468C47.0117 42.5391 47.218 42.4852 47.4458 42.4852C47.6428 42.4852 47.826 42.5314 47.9953 42.6237C48.1647 42.713 48.294 42.8316 48.3833 42.9793V41.6401H48.8081V45.0575H48.3833V44.5818C48.3001 44.7327 48.177 44.8574 48.0138 44.9559C47.8506 45.0513 47.6598 45.0991 47.4412 45.0991C47.2164 45.0991 47.0117 45.0436 46.827 44.9328C46.6453 44.822 46.5022 44.6665 46.3975 44.4664C46.2928 44.2663 46.2405 44.0384 46.2405 43.7829ZM48.3833 43.7875C48.3833 43.5966 48.3448 43.4304 48.2678 43.2887C48.1909 43.1471 48.0862 43.0394 47.9538 42.9655C47.8245 42.8885 47.6813 42.85 47.5243 42.85C47.3673 42.85 47.2241 42.887 47.0948 42.9609C46.9655 43.0347 46.8624 43.1425 46.7854 43.2841C46.7084 43.4258 46.6699 43.592 46.6699 43.7829C46.6699 43.9768 46.7084 44.1462 46.7854 44.2909C46.8624 44.4325 46.9655 44.5418 47.0948 44.6188C47.2241 44.6927 47.3673 44.7296 47.5243 44.7296C47.6813 44.7296 47.8245 44.6927 47.9538 44.6188C48.0862 44.5418 48.1909 44.4325 48.2678 44.2909C48.3448 44.1462 48.3833 43.9784 48.3833 43.7875ZM49.3613 43.7829C49.3613 43.5243 49.4136 43.298 49.5183 43.104C49.623 42.907 49.7662 42.7546 49.9478 42.6468C50.1325 42.5391 50.3373 42.4852 50.562 42.4852C50.7837 42.4852 50.9761 42.5329 51.1393 42.6284C51.3025 42.7238 51.4241 42.8439 51.5041 42.9886V42.5268H51.929V45.0575H51.5041V44.5864C51.421 44.7342 51.2963 44.8574 51.1301 44.9559C50.9669 45.0513 50.776 45.0991 50.5574 45.0991C50.3327 45.0991 50.1295 45.0436 49.9478 44.9328C49.7662 44.822 49.623 44.6665 49.5183 44.4664C49.4136 44.2663 49.3613 44.0384 49.3613 43.7829ZM51.5041 43.7875C51.5041 43.5966 51.4656 43.4304 51.3887 43.2887C51.3117 43.1471 51.207 43.0394 51.0746 42.9655C50.9453 42.8885 50.8022 42.85 50.6452 42.85C50.4881 42.85 50.345 42.887 50.2157 42.9609C50.0864 43.0347 49.9832 43.1425 49.9063 43.2841C49.8293 43.4258 49.7908 43.592 49.7908 43.7829C49.7908 43.9768 49.8293 44.1462 49.9063 44.2909C49.9832 44.4325 50.0864 44.5418 50.2157 44.6188C50.345 44.6927 50.4881 44.7296 50.6452 44.7296C50.8022 44.7296 50.9453 44.6927 51.0746 44.6188C51.207 44.5418 51.3117 44.4325 51.3887 44.2909C51.4656 44.1462 51.5041 43.9784 51.5041 43.7875ZM54.8189 42.5268L53.295 46.249H52.8609L53.3596 45.0298L52.339 42.5268H52.8054L53.5998 44.5772L54.3848 42.5268H54.8189ZM56.1373 45.0991C55.9434 45.0991 55.7694 45.0667 55.6155 45.0021C55.4615 44.9343 55.3399 44.842 55.2506 44.725C55.1613 44.6049 55.1121 44.4679 55.1029 44.314H55.537C55.5493 44.4402 55.6078 44.5433 55.7124 44.6234C55.8202 44.7034 55.9603 44.7435 56.1327 44.7435C56.2928 44.7435 56.419 44.7081 56.5114 44.6372C56.6037 44.5664 56.6499 44.4771 56.6499 44.3694C56.6499 44.2586 56.6007 44.177 56.5021 44.1246C56.4036 44.0692 56.2512 44.0153 56.045 43.963C55.8571 43.9137 55.7032 43.8645 55.5831 43.8152C55.4661 43.7629 55.3645 43.6874 55.2783 43.5889C55.1952 43.4873 55.1536 43.3549 55.1536 43.1918C55.1536 43.0625 55.1921 42.9439 55.2691 42.8362C55.3461 42.7284 55.4554 42.6437 55.597 42.5822C55.7386 42.5175 55.9002 42.4852 56.0819 42.4852C56.3621 42.4852 56.5884 42.556 56.7608 42.6976C56.9332 42.8392 57.0255 43.0332 57.0379 43.2795H56.6176C56.6084 43.1471 56.5545 43.0409 56.456 42.9609C56.3605 42.8808 56.2312 42.8408 56.068 42.8408C55.9172 42.8408 55.7971 42.8731 55.7078 42.9378C55.6185 43.0024 55.5739 43.0871 55.5739 43.1918C55.5739 43.2749 55.6001 43.3442 55.6524 43.3996C55.7078 43.4519 55.7756 43.495 55.8556 43.5289C55.9387 43.5597 56.0526 43.5951 56.1973 43.6351C56.379 43.6844 56.5268 43.7336 56.6407 43.7829C56.7546 43.8291 56.8516 43.8999 56.9316 43.9953C57.0148 44.0908 57.0579 44.2155 57.0609 44.3694C57.0609 44.5079 57.0225 44.6326 56.9455 44.7435C56.8685 44.8543 56.7592 44.942 56.6176 45.0067C56.4791 45.0683 56.319 45.0991 56.1373 45.0991Z" fill="#DBEDF8"/>
<path d="M33.9622 67.0433V67.5801H32.2592V68.7635H33.587V69.3004H32.2592V71.0553H31.6012V67.0433H33.9622ZM35.9517 71.1073C35.6516 71.1073 35.3802 71.0399 35.1378 70.9052C34.8953 70.7667 34.7048 70.5742 34.5663 70.3279C34.4277 70.0778 34.3585 69.7892 34.3585 69.462C34.3585 69.1388 34.4297 68.8521 34.5721 68.6019C34.7145 68.3518 34.9088 68.1593 35.1551 68.0246C35.4014 67.8899 35.6766 67.8226 35.9806 67.8226C36.2846 67.8226 36.5598 67.8899 36.8061 68.0246C37.0524 68.1593 37.2467 68.3518 37.3891 68.6019C37.5315 68.8521 37.6027 69.1388 37.6027 69.462C37.6027 69.7853 37.5296 70.072 37.3834 70.3222C37.2371 70.5723 37.037 70.7667 36.783 70.9052C36.5328 71.0399 36.2558 71.1073 35.9517 71.1073ZM35.9517 70.5358C36.1211 70.5358 36.2789 70.4953 36.4251 70.4145C36.5752 70.3337 36.6964 70.2125 36.7888 70.0509C36.8811 69.8892 36.9273 69.6929 36.9273 69.462C36.9273 69.2311 36.8831 69.0368 36.7945 68.879C36.706 68.7174 36.5887 68.5961 36.4424 68.5153C36.2962 68.4345 36.1384 68.3941 35.9691 68.3941C35.7997 68.3941 35.6419 68.4345 35.4957 68.5153C35.3533 68.5961 35.2398 68.7174 35.1551 68.879C35.0704 69.0368 35.0281 69.2311 35.0281 69.462C35.0281 69.8046 35.1147 70.0701 35.2879 70.2587C35.4649 70.4434 35.6862 70.5358 35.9517 70.5358ZM38.9114 66.7835V71.0553H38.2533V66.7835H38.9114ZM40.4334 66.7835V71.0553H39.7754V66.7835H40.4334ZM42.6771 71.1073C42.3769 71.1073 42.1056 71.0399 41.8632 70.9052C41.6207 70.7667 41.4302 70.5742 41.2917 70.3279C41.1531 70.0778 41.0839 69.7892 41.0839 69.462C41.0839 69.1388 41.1551 68.8521 41.2975 68.6019C41.4398 68.3518 41.6342 68.1593 41.8805 68.0246C42.1268 67.8899 42.402 67.8226 42.706 67.8226C43.01 67.8226 43.2852 67.8899 43.5315 68.0246C43.7778 68.1593 43.9721 68.3518 44.1145 68.6019C44.2569 68.8521 44.3281 69.1388 44.3281 69.462C44.3281 69.7853 44.255 70.072 44.1088 70.3222C43.9625 70.5723 43.7624 70.7667 43.5084 70.9052C43.2582 71.0399 42.9812 71.1073 42.6771 71.1073ZM42.6771 70.5358C42.8465 70.5358 43.0042 70.4953 43.1505 70.4145C43.3006 70.3337 43.4218 70.2125 43.5142 70.0509C43.6065 69.8892 43.6527 69.6929 43.6527 69.462C43.6527 69.2311 43.6085 69.0368 43.5199 68.879C43.4314 68.7174 43.314 68.5961 43.1678 68.5153C43.0216 68.4345 42.8638 68.3941 42.6944 68.3941C42.5251 68.3941 42.3673 68.4345 42.2211 68.5153C42.0787 68.5961 41.9652 68.7174 41.8805 68.879C41.7958 69.0368 41.7535 69.2311 41.7535 69.462C41.7535 69.8046 41.8401 70.0701 42.0133 70.2587C42.1903 70.4434 42.4116 70.5358 42.6771 70.5358ZM49.2504 67.8746L48.2633 71.0553H47.5706L46.9298 68.7058L46.2891 71.0553H45.5963L44.6034 67.8746H45.2731L45.9369 70.4318L46.6123 67.8746H47.2993L47.9458 70.4203L48.6039 67.8746H49.2504ZM54.1224 67.8746V71.0553H53.4643V70.6801C53.3604 70.8109 53.2237 70.9148 53.0544 70.9918C52.8889 71.0649 52.7119 71.1015 52.5233 71.1015C52.2732 71.1015 52.048 71.0495 51.8479 70.9456C51.6517 70.8417 51.4958 70.6878 51.3803 70.4838C51.2687 70.2798 51.2129 70.0335 51.2129 69.7449V67.8746H51.8652V69.6468C51.8652 69.9316 51.9364 70.1509 52.0788 70.3048C52.2212 70.4549 52.4156 70.53 52.6619 70.53C52.9082 70.53 53.1025 70.4549 53.2449 70.3048C53.3912 70.1509 53.4643 69.9316 53.4643 69.6468V67.8746H54.1224ZM55.6487 68.3421C55.7603 68.1959 55.9124 68.0727 56.1048 67.9727C56.2972 67.8726 56.5146 67.8226 56.7571 67.8226C57.0342 67.8226 57.2863 67.8919 57.5133 68.0304C57.7442 68.1651 57.9251 68.3556 58.0559 68.6019C58.1868 68.8482 58.2522 69.1311 58.2522 69.4505C58.2522 69.7699 58.1868 70.0566 58.0559 70.3106C57.9251 70.5608 57.7442 70.757 57.5133 70.8994C57.2863 71.038 57.0342 71.1073 56.7571 71.1073C56.5146 71.1073 56.2991 71.0591 56.1106 70.9629C55.922 70.8629 55.768 70.7397 55.6487 70.5935V72.5677H54.9907V67.8746H55.6487V68.3421ZM57.5826 69.4505C57.5826 69.2311 57.5364 69.0426 57.444 68.8848C57.3555 68.7231 57.2362 68.6019 57.0861 68.5211C56.9399 68.4364 56.7821 68.3941 56.6128 68.3941C56.4473 68.3941 56.2895 68.4364 56.1394 68.5211C55.9932 68.6058 55.8739 68.7289 55.7815 68.8905C55.693 69.0522 55.6487 69.2427 55.6487 69.462C55.6487 69.6814 55.693 69.8738 55.7815 70.0393C55.8739 70.2009 55.9932 70.3241 56.1394 70.4088C56.2895 70.4934 56.4473 70.5358 56.6128 70.5358C56.7821 70.5358 56.9399 70.4934 57.0861 70.4088C57.2362 70.3202 57.3555 70.1932 57.444 70.0278C57.5364 69.8623 57.5826 69.6699 57.5826 69.4505ZM64.6743 67.8746L63.6872 71.0553H62.9945L62.3537 68.7058L61.7129 71.0553H61.0202L60.0273 67.8746H60.6969L61.3608 70.4318L62.0362 67.8746H62.7232L63.3697 70.4203L64.0278 67.8746H64.6743ZM65.5009 67.4531C65.3816 67.4531 65.2816 67.4127 65.2008 67.3319C65.1199 67.2511 65.0795 67.151 65.0795 67.0317C65.0795 66.9124 65.1199 66.8124 65.2008 66.7316C65.2816 66.6507 65.3816 66.6103 65.5009 66.6103C65.6164 66.6103 65.7145 66.6507 65.7953 66.7316C65.8762 66.8124 65.9166 66.9124 65.9166 67.0317C65.9166 67.151 65.8762 67.2511 65.7953 67.3319C65.7145 67.4127 65.6164 67.4531 65.5009 67.4531ZM65.8242 67.8746V71.0553H65.1661V67.8746H65.8242ZM67.456 68.4114V70.1721C67.456 70.2914 67.4829 70.378 67.5368 70.4318C67.5945 70.4819 67.6907 70.5069 67.8254 70.5069H68.2295V71.0553H67.71C67.4136 71.0553 67.1866 70.986 67.0288 70.8475C66.871 70.7089 66.7921 70.4838 66.7921 70.1721V68.4114H66.4169V67.8746H66.7921V67.0837H67.456V67.8746H68.2295V68.4114H67.456ZM70.4813 67.8226C70.7237 67.8226 70.9392 67.8746 71.1278 67.9785C71.3202 68.0824 71.4703 68.2363 71.5781 68.4403C71.6897 68.6442 71.7455 68.8905 71.7455 69.1792V71.0553H71.0932V69.2773C71.0932 68.9925 71.022 68.7751 70.8796 68.625C70.7372 68.4711 70.5428 68.3941 70.2965 68.3941C70.0502 68.3941 69.854 68.4711 69.7077 68.625C69.5653 68.7751 69.4941 68.9925 69.4941 69.2773V71.0553H68.8361V66.7835H69.4941V68.244C69.6057 68.1093 69.7462 68.0054 69.9155 67.9323C70.0887 67.8592 70.2773 67.8226 70.4813 67.8226ZM74.8522 68.4114V70.1721C74.8522 70.2914 74.8792 70.378 74.933 70.4318C74.9908 70.4819 75.087 70.5069 75.2217 70.5069H75.6258V71.0553H75.1062C74.8099 71.0553 74.5828 70.986 74.425 70.8475C74.2673 70.7089 74.1884 70.4838 74.1884 70.1721V68.4114H73.8131V67.8746H74.1884V67.0837H74.8522V67.8746H75.6258V68.4114H74.8522ZM77.8775 67.8226C78.12 67.8226 78.3355 67.8746 78.5241 67.9785C78.7165 68.0824 78.8666 68.2363 78.9743 68.4403C79.0859 68.6442 79.1417 68.8905 79.1417 69.1792V71.0553H78.4894V69.2773C78.4894 68.9925 78.4182 68.7751 78.2758 68.625C78.1334 68.4711 77.9391 68.3941 77.6928 68.3941C77.4465 68.3941 77.2502 68.4711 77.104 68.625C76.9616 68.7751 76.8904 68.9925 76.8904 69.2773V71.0553H76.2323V66.7835H76.8904V68.244C77.002 68.1093 77.1425 68.0054 77.3118 67.9323C77.485 67.8592 77.6735 67.8226 77.8775 67.8226ZM82.8964 69.387C82.8964 69.5063 82.8887 69.6141 82.8733 69.7103H80.443C80.4622 69.9643 80.5565 70.1682 80.7258 70.3222C80.8952 70.4761 81.103 70.5531 81.3493 70.5531C81.7033 70.5531 81.9535 70.4049 82.0997 70.1086H82.8098C82.7136 70.4011 82.5385 70.6416 82.2845 70.8302C82.0343 71.0149 81.7226 71.1073 81.3493 71.1073C81.0453 71.1073 80.772 71.0399 80.5296 70.9052C80.291 70.7667 80.1024 70.5742 79.9638 70.3279C79.8291 70.0778 79.7618 69.7892 79.7618 69.462C79.7618 69.1349 79.8272 68.8482 79.9581 68.6019C80.0928 68.3518 80.2794 68.1593 80.518 68.0246C80.7605 67.8899 81.0376 67.8226 81.3493 67.8226C81.6495 67.8226 81.9169 67.888 82.1517 68.0189C82.3864 68.1497 82.5692 68.3344 82.7001 68.573C82.8309 68.8078 82.8964 69.0791 82.8964 69.387ZM82.2094 69.1792C82.2056 68.9367 82.119 68.7424 81.9496 68.5961C81.7803 68.4499 81.5706 68.3768 81.3204 68.3768C81.0934 68.3768 80.899 68.4499 80.7374 68.5961C80.5757 68.7385 80.4795 68.9329 80.4487 69.1792H82.2094ZM84.8242 69.462C84.8242 69.1349 84.8896 68.8482 85.0204 68.6019C85.1551 68.3518 85.3399 68.1593 85.5746 68.0246C85.8094 67.8899 86.0788 67.8226 86.3828 67.8226C86.7676 67.8226 87.0851 67.915 87.3353 68.0997C87.5893 68.2806 87.7605 68.5403 87.849 68.879H87.139C87.0813 68.7212 86.9889 68.5981 86.8619 68.5095C86.7349 68.421 86.5752 68.3768 86.3828 68.3768C86.1134 68.3768 85.8979 68.473 85.7362 68.6654C85.5785 68.854 85.4996 69.1195 85.4996 69.462C85.4996 69.8046 85.5785 70.072 85.7362 70.2644C85.8979 70.4569 86.1134 70.5531 86.3828 70.5531C86.7638 70.5531 87.0159 70.3857 87.139 70.0509H87.849C87.7567 70.3741 87.5835 70.632 87.3295 70.8244C87.0755 71.013 86.7599 71.1073 86.3828 71.1073C86.0788 71.1073 85.8094 71.0399 85.5746 70.9052C85.3399 70.7667 85.1551 70.5742 85.0204 70.3279C84.8896 70.0778 84.8242 69.7892 84.8242 69.462ZM89.163 66.7835V71.0553H88.5049V66.7835H89.163ZM90.3618 67.4531C90.2425 67.4531 90.1424 67.4127 90.0616 67.3319C89.9808 67.2511 89.9404 67.151 89.9404 67.0317C89.9404 66.9124 89.9808 66.8124 90.0616 66.7316C90.1424 66.6507 90.2425 66.6103 90.3618 66.6103C90.4772 66.6103 90.5754 66.6507 90.6562 66.7316C90.737 66.8124 90.7774 66.9124 90.7774 67.0317C90.7774 67.151 90.737 67.2511 90.6562 67.3319C90.5754 67.4127 90.4772 67.4531 90.3618 67.4531ZM90.6851 67.8746V71.0553H90.027V67.8746H90.6851ZM94.4643 69.387C94.4643 69.5063 94.4566 69.6141 94.4412 69.7103H92.0109C92.0301 69.9643 92.1244 70.1682 92.2937 70.3222C92.4631 70.4761 92.6709 70.5531 92.9172 70.5531C93.2712 70.5531 93.5214 70.4049 93.6676 70.1086H94.3777C94.2815 70.4011 94.1064 70.6416 93.8524 70.8302C93.6022 71.0149 93.2905 71.1073 92.9172 71.1073C92.6132 71.1073 92.3399 71.0399 92.0975 70.9052C91.8589 70.7667 91.6703 70.5742 91.5317 70.3279C91.397 70.0778 91.3297 69.7892 91.3297 69.462C91.3297 69.1349 91.3951 68.8482 91.526 68.6019C91.6607 68.3518 91.8473 68.1593 92.0859 68.0246C92.3284 67.8899 92.6055 67.8226 92.9172 67.8226C93.2174 67.8226 93.4848 67.888 93.7196 68.0189C93.9543 68.1497 94.1371 68.3344 94.268 68.573C94.3988 68.8078 94.4643 69.0791 94.4643 69.387ZM93.7773 69.1792C93.7735 68.9367 93.6869 68.7424 93.5175 68.5961C93.3482 68.4499 93.1385 68.3768 92.8883 68.3768C92.6613 68.3768 92.4669 68.4499 92.3053 68.5961C92.1436 68.7385 92.0474 68.9329 92.0166 69.1792H93.7773ZM96.7167 67.8226C96.9668 67.8226 97.19 67.8746 97.3863 67.9785C97.5864 68.0824 97.7423 68.2363 97.8539 68.4403C97.9655 68.6442 98.0213 68.8905 98.0213 69.1792V71.0553H97.369V69.2773C97.369 68.9925 97.2978 68.7751 97.1554 68.625C97.013 68.4711 96.8187 68.3941 96.5724 68.3941C96.3261 68.3941 96.1298 68.4711 95.9836 68.625C95.8412 68.7751 95.77 68.9925 95.77 69.2773V71.0553H95.1119V67.8746H95.77V68.2382C95.8777 68.1074 96.0143 68.0054 96.1798 67.9323C96.3492 67.8592 96.5281 67.8226 96.7167 67.8226ZM99.6285 68.4114V70.1721C99.6285 70.2914 99.6555 70.378 99.7093 70.4318C99.7671 70.4819 99.8633 70.5069 99.998 70.5069H100.402V71.0553H99.8825C99.5862 71.0553 99.3591 70.986 99.2013 70.8475C99.0435 70.7089 98.9647 70.4838 98.9647 70.1721V68.4114H98.5894V67.8746H98.9647V67.0837H99.6285V67.8746H100.402V68.4114H99.6285Z" fill="white"/>
<path d="M33.6759 77.8996C33.6759 78.1675 33.5835 78.3907 33.3988 78.5693C33.2171 78.7448 32.9385 78.8325 32.5629 78.8325H31.9441V80.1764H31.5238V76.9575H32.5629C32.9262 76.9575 33.2017 77.0453 33.3895 77.2208C33.5804 77.3963 33.6759 77.6226 33.6759 77.8996ZM32.5629 78.4862C32.7969 78.4862 32.9693 78.4354 33.0801 78.3338C33.191 78.2322 33.2464 78.0875 33.2464 77.8996C33.2464 77.5025 33.0185 77.3039 32.5629 77.3039H31.9441V78.4862H32.5629ZM34.0412 78.9018C34.0412 78.6432 34.0935 78.4169 34.1982 78.2229C34.3029 78.0259 34.446 77.8735 34.6277 77.7657C34.8124 77.658 35.0171 77.6041 35.2419 77.6041C35.4636 77.6041 35.656 77.6518 35.8192 77.7472C35.9823 77.8427 36.1039 77.9628 36.184 78.1075V77.6456H36.6089V80.1764H36.184V79.7053C36.1009 79.8531 35.9762 79.9763 35.8099 80.0748C35.6467 80.1702 35.4559 80.218 35.2373 80.218C35.0125 80.218 34.8093 80.1625 34.6277 80.0517C34.446 79.9409 34.3029 79.7854 34.1982 79.5853C34.0935 79.3851 34.0412 79.1573 34.0412 78.9018ZM36.184 78.9064C36.184 78.7155 36.1455 78.5493 36.0685 78.4076C35.9916 78.266 35.8869 78.1583 35.7545 78.0844C35.6252 78.0074 35.482 77.9689 35.325 77.9689C35.168 77.9689 35.0248 78.0059 34.8955 78.0798C34.7662 78.1536 34.6631 78.2614 34.5861 78.403C34.5091 78.5446 34.4707 78.7109 34.4707 78.9018C34.4707 79.0957 34.5091 79.2651 34.5861 79.4098C34.6631 79.5514 34.7662 79.6607 34.8955 79.7377C35.0248 79.8116 35.168 79.8485 35.325 79.8485C35.482 79.8485 35.6252 79.8116 35.7545 79.7377C35.8869 79.6607 35.9916 79.5514 36.0685 79.4098C36.1455 79.2651 36.184 79.0973 36.184 78.9064ZM38.215 80.218C38.021 80.218 37.847 80.1856 37.6931 80.121C37.5392 80.0532 37.4176 79.9609 37.3283 79.8439C37.239 79.7238 37.1897 79.5868 37.1805 79.4329H37.6146C37.6269 79.5591 37.6854 79.6622 37.7901 79.7423C37.8978 79.8223 38.0379 79.8624 38.2103 79.8624C38.3704 79.8624 38.4967 79.827 38.589 79.7561C38.6814 79.6853 38.7276 79.596 38.7276 79.4883C38.7276 79.3775 38.6783 79.2959 38.5798 79.2435C38.4813 79.1881 38.3289 79.1342 38.1226 79.0819C37.9348 79.0326 37.7809 78.9834 37.6608 78.9341C37.5438 78.8818 37.4422 78.8063 37.356 78.7078C37.2729 78.6062 37.2313 78.4738 37.2313 78.3107C37.2313 78.1814 37.2698 78.0628 37.3467 77.9551C37.4237 77.8473 37.533 77.7626 37.6746 77.7011C37.8163 77.6364 37.9779 77.6041 38.1595 77.6041C38.4397 77.6041 38.666 77.6749 38.8384 77.8165C39.0108 77.9581 39.1032 78.1521 39.1155 78.3984H38.6952C38.686 78.266 38.6321 78.1598 38.5336 78.0798C38.4382 77.9997 38.3089 77.9597 38.1457 77.9597C37.9948 77.9597 37.8748 77.992 37.7855 78.0567C37.6962 78.1213 37.6515 78.206 37.6515 78.3107C37.6515 78.3938 37.6777 78.4631 37.7301 78.5185C37.7855 78.5708 37.8532 78.6139 37.9332 78.6478C38.0164 78.6786 38.1303 78.714 38.275 78.754C38.4566 78.8033 38.6044 78.8525 38.7183 78.9018C38.8322 78.948 38.9292 79.0188 39.0093 79.1142C39.0924 79.2097 39.1355 79.3344 39.1386 79.4883C39.1386 79.6268 39.1001 79.7515 39.0231 79.8624C38.9462 79.9732 38.8369 80.0609 38.6952 80.1256C38.5567 80.1872 38.3966 80.218 38.215 80.218ZM40.2444 77.992V79.4837C40.2444 79.6068 40.2706 79.6946 40.323 79.7469C40.3753 79.7962 40.4661 79.8208 40.5954 79.8208H40.9048V80.1764H40.5262C40.2922 80.1764 40.1167 80.1225 39.9997 80.0148C39.8827 79.907 39.8242 79.73 39.8242 79.4837V77.992H39.4963V77.6456H39.8242V77.0083H40.2444V77.6456H40.9048V77.992H40.2444ZM44.631 77.1654L43.3472 80.1764H42.9223L44.2246 77.2069H42.442V76.8467H44.631V77.1654ZM46.2405 78.9018C46.2405 78.6432 46.2928 78.4169 46.3975 78.2229C46.5022 78.0259 46.6453 77.8735 46.827 77.7657C47.0117 77.658 47.218 77.6041 47.4458 77.6041C47.6428 77.6041 47.826 77.6503 47.9953 77.7426C48.1647 77.8319 48.294 77.9504 48.3833 78.0982V76.759H48.8081V80.1764H48.3833V79.7007C48.3001 79.8516 48.177 79.9763 48.0138 80.0748C47.8506 80.1702 47.6598 80.218 47.4412 80.218C47.2164 80.218 47.0117 80.1625 46.827 80.0517C46.6453 79.9409 46.5022 79.7854 46.3975 79.5853C46.2928 79.3851 46.2405 79.1573 46.2405 78.9018ZM48.3833 78.9064C48.3833 78.7155 48.3448 78.5493 48.2678 78.4076C48.1909 78.266 48.0862 78.1583 47.9538 78.0844C47.8245 78.0074 47.6813 77.9689 47.5243 77.9689C47.3673 77.9689 47.2241 78.0059 47.0948 78.0798C46.9655 78.1536 46.8624 78.2614 46.7854 78.403C46.7084 78.5446 46.6699 78.7109 46.6699 78.9018C46.6699 79.0957 46.7084 79.2651 46.7854 79.4098C46.8624 79.5514 46.9655 79.6607 47.0948 79.7377C47.2241 79.8116 47.3673 79.8485 47.5243 79.8485C47.6813 79.8485 47.8245 79.8116 47.9538 79.7377C48.0862 79.6607 48.1909 79.5514 48.2678 79.4098C48.3448 79.2651 48.3833 79.0973 48.3833 78.9064ZM49.3613 78.9018C49.3613 78.6432 49.4136 78.4169 49.5183 78.2229C49.623 78.0259 49.7662 77.8735 49.9478 77.7657C50.1325 77.658 50.3373 77.6041 50.562 77.6041C50.7837 77.6041 50.9761 77.6518 51.1393 77.7472C51.3025 77.8427 51.4241 77.9628 51.5041 78.1075V77.6456H51.929V80.1764H51.5041V79.7053C51.421 79.8531 51.2963 79.9763 51.1301 80.0748C50.9669 80.1702 50.776 80.218 50.5574 80.218C50.3327 80.218 50.1295 80.1625 49.9478 80.0517C49.7662 79.9409 49.623 79.7854 49.5183 79.5853C49.4136 79.3851 49.3613 79.1573 49.3613 78.9018ZM51.5041 78.9064C51.5041 78.7155 51.4656 78.5493 51.3887 78.4076C51.3117 78.266 51.207 78.1583 51.0746 78.0844C50.9453 78.0074 50.8022 77.9689 50.6452 77.9689C50.4881 77.9689 50.345 78.0059 50.2157 78.0798C50.0864 78.1536 49.9832 78.2614 49.9063 78.403C49.8293 78.5446 49.7908 78.7109 49.7908 78.9018C49.7908 79.0957 49.8293 79.2651 49.9063 79.4098C49.9832 79.5514 50.0864 79.6607 50.2157 79.7377C50.345 79.8116 50.4881 79.8485 50.6452 79.8485C50.8022 79.8485 50.9453 79.8116 51.0746 79.7377C51.207 79.6607 51.3117 79.5514 51.3887 79.4098C51.4656 79.2651 51.5041 79.0973 51.5041 78.9064ZM54.8189 77.6456L53.295 81.3679H52.8609L53.3596 80.1487L52.339 77.6456H52.8054L53.5998 79.6961L54.3848 77.6456H54.8189ZM56.1373 80.218C55.9434 80.218 55.7694 80.1856 55.6155 80.121C55.4615 80.0532 55.3399 79.9609 55.2506 79.8439C55.1613 79.7238 55.1121 79.5868 55.1029 79.4329H55.537C55.5493 79.5591 55.6078 79.6622 55.7124 79.7423C55.8202 79.8223 55.9603 79.8624 56.1327 79.8624C56.2928 79.8624 56.419 79.827 56.5114 79.7561C56.6037 79.6853 56.6499 79.596 56.6499 79.4883C56.6499 79.3775 56.6007 79.2959 56.5021 79.2435C56.4036 79.1881 56.2512 79.1342 56.045 79.0819C55.8571 79.0326 55.7032 78.9834 55.5831 78.9341C55.4661 78.8818 55.3645 78.8063 55.2783 78.7078C55.1952 78.6062 55.1536 78.4738 55.1536 78.3107C55.1536 78.1814 55.1921 78.0628 55.2691 77.9551C55.3461 77.8473 55.4554 77.7626 55.597 77.7011C55.7386 77.6364 55.9002 77.6041 56.0819 77.6041C56.3621 77.6041 56.5884 77.6749 56.7608 77.8165C56.9332 77.9581 57.0255 78.1521 57.0379 78.3984H56.6176C56.6084 78.266 56.5545 78.1598 56.456 78.0798C56.3605 77.9997 56.2312 77.9597 56.068 77.9597C55.9172 77.9597 55.7971 77.992 55.7078 78.0567C55.6185 78.1213 55.5739 78.206 55.5739 78.3107C55.5739 78.3938 55.6001 78.4631 55.6524 78.5185C55.7078 78.5708 55.7756 78.6139 55.8556 78.6478C55.9387 78.6786 56.0526 78.714 56.1973 78.754C56.379 78.8033 56.5268 78.8525 56.6407 78.9018C56.7546 78.948 56.8516 79.0188 56.9316 79.1142C57.0148 79.2097 57.0579 79.3344 57.0609 79.4883C57.0609 79.6268 57.0225 79.7515 56.9455 79.8624C56.8685 79.9732 56.7592 80.0609 56.6176 80.1256C56.4791 80.1872 56.319 80.218 56.1373 80.218Z" fill="#DBEDF8"/>
<path d="M33.6851 106.174L32.7615 104.569H32.2592V106.174H31.6012V102.162H32.9866C33.2945 102.162 33.5543 102.216 33.7659 102.324C33.9814 102.431 34.1411 102.576 34.2451 102.757C34.3528 102.937 34.4067 103.139 34.4067 103.363C34.4067 103.624 34.3297 103.863 34.1758 104.078C34.0257 104.29 33.7929 104.434 33.4773 104.511L34.4702 106.174H33.6851ZM32.2592 104.044H32.9866C33.2329 104.044 33.4176 103.982 33.5408 103.859C33.6678 103.736 33.7313 103.57 33.7313 103.363C33.7313 103.155 33.6697 102.993 33.5466 102.878C33.4234 102.758 33.2368 102.699 32.9866 102.699H32.2592V104.044ZM38.1638 104.506C38.1638 104.625 38.1561 104.733 38.1407 104.829H35.7104C35.7296 105.083 35.8239 105.287 35.9932 105.441C36.1626 105.595 36.3704 105.672 36.6167 105.672C36.9707 105.672 37.2209 105.524 37.3671 105.227H38.0772C37.9809 105.52 37.8058 105.76 37.5518 105.949C37.3017 106.134 36.99 106.226 36.6167 106.226C36.3126 106.226 36.0394 106.159 35.797 106.024C35.5583 105.885 35.3698 105.693 35.2312 105.447C35.0965 105.196 35.0292 104.908 35.0292 104.581C35.0292 104.254 35.0946 103.967 35.2255 103.721C35.3602 103.47 35.5468 103.278 35.7854 103.143C36.0279 103.009 36.3049 102.941 36.6167 102.941C36.9169 102.941 37.1843 103.007 37.4191 103.138C37.6538 103.268 37.8366 103.453 37.9675 103.692C38.0983 103.926 38.1638 104.198 38.1638 104.506ZM37.4768 104.298C37.473 104.055 37.3864 103.861 37.217 103.715C37.0477 103.569 36.838 103.495 36.5878 103.495C36.3608 103.495 36.1664 103.569 36.0048 103.715C35.8431 103.857 35.7469 104.052 35.7161 104.298H37.4768ZM39.9659 106.226C39.7158 106.226 39.4906 106.182 39.2905 106.093C39.0942 106.001 38.9384 105.878 38.8229 105.724C38.7075 105.566 38.6459 105.391 38.6382 105.198H39.3194C39.3309 105.333 39.3944 105.447 39.5099 105.539C39.6292 105.627 39.7773 105.672 39.9544 105.672C40.1391 105.672 40.2815 105.637 40.3815 105.568C40.4854 105.495 40.5374 105.402 40.5374 105.291C40.5374 105.171 40.4797 105.083 40.3642 105.025C40.2526 104.967 40.0737 104.904 39.8274 104.835C39.5888 104.769 39.3944 104.706 39.2443 104.644C39.0942 104.583 38.9634 104.488 38.8518 104.361C38.744 104.234 38.6901 104.067 38.6901 103.859C38.6901 103.69 38.7402 103.536 38.8402 103.397C38.9403 103.255 39.0827 103.143 39.2674 103.062C39.456 102.982 39.6715 102.941 39.914 102.941C40.2757 102.941 40.5663 103.034 40.7856 103.218C41.0088 103.399 41.1281 103.647 41.1435 103.963H40.4854C40.4739 103.821 40.4162 103.707 40.3123 103.622C40.2084 103.538 40.0679 103.495 39.8909 103.495C39.7177 103.495 39.5849 103.528 39.4925 103.594C39.4002 103.659 39.354 103.746 39.354 103.853C39.354 103.938 39.3848 104.009 39.4464 104.067C39.5079 104.125 39.583 104.171 39.6715 104.205C39.76 104.236 39.8909 104.277 40.064 104.327C40.295 104.388 40.4835 104.452 40.6298 104.517C40.7799 104.579 40.9088 104.671 41.0165 104.794C41.1243 104.917 41.1801 105.081 41.1839 105.285C41.1839 105.466 41.1339 105.627 41.0339 105.77C40.9338 105.912 40.7914 106.024 40.6067 106.105C40.4258 106.185 40.2122 106.226 39.9659 106.226ZM44.8102 104.506C44.8102 104.625 44.8025 104.733 44.7871 104.829H42.3568C42.3761 105.083 42.4704 105.287 42.6397 105.441C42.809 105.595 43.0168 105.672 43.2631 105.672C43.6172 105.672 43.8674 105.524 44.0136 105.227H44.7236C44.6274 105.52 44.4523 105.76 44.1983 105.949C43.9482 106.134 43.6364 106.226 43.2631 106.226C42.9591 106.226 42.6859 106.159 42.4434 106.024C42.2048 105.885 42.0162 105.693 41.8777 105.447C41.743 105.196 41.6757 104.908 41.6757 104.581C41.6757 104.254 41.7411 103.967 41.8719 103.721C42.0066 103.47 42.1933 103.278 42.4319 103.143C42.6743 103.009 42.9514 102.941 43.2631 102.941C43.5633 102.941 43.8308 103.007 44.0655 103.138C44.3003 103.268 44.4831 103.453 44.614 103.692C44.7448 103.926 44.8102 104.198 44.8102 104.506ZM44.1233 104.298C44.1194 104.055 44.0328 103.861 43.8635 103.715C43.6942 103.569 43.4844 103.495 43.2343 103.495C43.0072 103.495 42.8129 103.569 42.6512 103.715C42.4896 103.857 42.3934 104.052 42.3626 104.298H44.1233ZM45.2385 104.569C45.2385 104.25 45.3039 103.967 45.4348 103.721C45.5694 103.474 45.7503 103.284 45.9774 103.149C46.2083 103.011 46.4623 102.941 46.7394 102.941C46.9895 102.941 47.207 102.991 47.3917 103.091C47.5803 103.188 47.7304 103.309 47.842 103.455V102.993H48.5058V106.174H47.842V105.701C47.7304 105.851 47.5783 105.976 47.3859 106.076C47.1935 106.176 46.9741 106.226 46.7278 106.226C46.4546 106.226 46.2044 106.157 45.9774 106.018C45.7503 105.876 45.5694 105.679 45.4348 105.429C45.3039 105.175 45.2385 104.889 45.2385 104.569ZM47.842 104.581C47.842 104.361 47.7958 104.171 47.7034 104.009C47.6149 103.848 47.4975 103.724 47.3513 103.64C47.205 103.555 47.0473 103.513 46.8779 103.513C46.7086 103.513 46.5508 103.555 46.4046 103.64C46.2583 103.721 46.139 103.842 46.0467 104.003C45.9581 104.161 45.9139 104.35 45.9139 104.569C45.9139 104.789 45.9581 104.981 46.0467 105.146C46.139 105.312 46.2583 105.439 46.4046 105.527C46.5547 105.612 46.7124 105.654 46.8779 105.654C47.0473 105.654 47.205 105.612 47.3513 105.527C47.4975 105.443 47.6149 105.32 47.7034 105.158C47.7958 104.992 47.842 104.8 47.842 104.581ZM50.0283 103.455C50.1245 103.293 50.2515 103.168 50.4093 103.08C50.5709 102.987 50.7614 102.941 50.9808 102.941V103.622H50.8134C50.5555 103.622 50.3592 103.688 50.2245 103.819C50.0937 103.95 50.0283 104.177 50.0283 104.5V106.174H49.3702V102.993H50.0283V103.455ZM51.3663 104.581C51.3663 104.254 51.4317 103.967 51.5626 103.721C51.6973 103.47 51.882 103.278 52.1168 103.143C52.3515 103.009 52.6209 102.941 52.9249 102.941C53.3098 102.941 53.6273 103.034 53.8774 103.218C54.1314 103.399 54.3027 103.659 54.3912 103.998H53.6812C53.6234 103.84 53.5311 103.717 53.4041 103.628C53.2771 103.54 53.1174 103.495 52.9249 103.495C52.6555 103.495 52.44 103.592 52.2784 103.784C52.1206 103.973 52.0417 104.238 52.0417 104.581C52.0417 104.923 52.1206 105.191 52.2784 105.383C52.44 105.576 52.6555 105.672 52.9249 105.672C53.3059 105.672 53.558 105.504 53.6812 105.17H54.3912C54.2988 105.493 54.1257 105.751 53.8717 105.943C53.6177 106.132 53.3021 106.226 52.9249 106.226C52.6209 106.226 52.3515 106.159 52.1168 106.024C51.882 105.885 51.6973 105.693 51.5626 105.447C51.4317 105.196 51.3663 104.908 51.3663 104.581ZM56.6922 102.941C56.9347 102.941 57.1502 102.993 57.3388 103.097C57.5312 103.201 57.6813 103.355 57.789 103.559C57.9007 103.763 57.9565 104.009 57.9565 104.298V106.174H57.3041V104.396C57.3041 104.111 57.2329 103.894 57.0906 103.744C56.9482 103.59 56.7538 103.513 56.5075 103.513C56.2612 103.513 56.0649 103.59 55.9187 103.744C55.7763 103.894 55.7051 104.111 55.7051 104.396V106.174H55.047V101.902H55.7051V103.363C55.8167 103.228 55.9572 103.124 56.1265 103.051C56.2997 102.978 56.4883 102.941 56.6922 102.941ZM60.9535 103.461C61.0651 103.315 61.2171 103.191 61.4096 103.091C61.602 102.991 61.8194 102.941 62.0619 102.941C62.339 102.941 62.591 103.011 62.8181 103.149C63.049 103.284 63.2299 103.474 63.3607 103.721C63.4916 103.967 63.557 104.25 63.557 104.569C63.557 104.889 63.4916 105.175 63.3607 105.429C63.2299 105.679 63.049 105.876 62.8181 106.018C62.591 106.157 62.339 106.226 62.0619 106.226C61.8194 106.226 61.6039 106.178 61.4153 106.082C61.2268 105.982 61.0728 105.858 60.9535 105.712V107.686H60.2954V102.993H60.9535V103.461ZM62.8874 104.569C62.8874 104.35 62.8412 104.161 62.7488 104.003C62.6603 103.842 62.541 103.721 62.3909 103.64C62.2447 103.555 62.0869 103.513 61.9175 103.513C61.7521 103.513 61.5943 103.555 61.4442 103.64C61.2979 103.724 61.1786 103.848 61.0863 104.009C60.9978 104.171 60.9535 104.361 60.9535 104.581C60.9535 104.8 60.9978 104.992 61.0863 105.158C61.1786 105.32 61.2979 105.443 61.4442 105.527C61.5943 105.612 61.7521 105.654 61.9175 105.654C62.0869 105.654 62.2447 105.612 62.3909 105.527C62.541 105.439 62.6603 105.312 62.7488 105.146C62.8412 104.981 62.8874 104.789 62.8874 104.569ZM64.8659 103.455C64.9621 103.293 65.0891 103.168 65.2469 103.08C65.4085 102.987 65.599 102.941 65.8183 102.941V103.622H65.6509C65.3931 103.622 65.1968 103.688 65.0621 103.819C64.9313 103.95 64.8659 104.177 64.8659 104.5V106.174H64.2078V102.993H64.8659V103.455ZM66.7581 102.572C66.6388 102.572 66.5387 102.531 66.4579 102.451C66.3771 102.37 66.3367 102.27 66.3367 102.15C66.3367 102.031 66.3771 101.931 66.4579 101.85C66.5387 101.769 66.6388 101.729 66.7581 101.729C66.8735 101.729 66.9717 101.769 67.0525 101.85C67.1333 101.931 67.1737 102.031 67.1737 102.15C67.1737 102.27 67.1333 102.37 67.0525 102.451C66.9717 102.531 66.8735 102.572 66.7581 102.572ZM67.0813 102.993V106.174H66.4233V102.993H67.0813ZM67.726 104.581C67.726 104.254 67.7914 103.967 67.9223 103.721C68.057 103.47 68.2417 103.278 68.4764 103.143C68.7112 103.009 68.9806 102.941 69.2846 102.941C69.6695 102.941 69.987 103.034 70.2371 103.218C70.4911 103.399 70.6624 103.659 70.7509 103.998H70.0408C69.9831 103.84 69.8907 103.717 69.7637 103.628C69.6367 103.54 69.477 103.495 69.2846 103.495C69.0152 103.495 68.7997 103.592 68.6381 103.784C68.4803 103.973 68.4014 104.238 68.4014 104.581C68.4014 104.923 68.4803 105.191 68.6381 105.383C68.7997 105.576 69.0152 105.672 69.2846 105.672C69.6656 105.672 69.9177 105.504 70.0408 105.17H70.7509C70.6585 105.493 70.4853 105.751 70.2313 105.943C69.9773 106.132 69.6618 106.226 69.2846 106.226C68.9806 106.226 68.7112 106.159 68.4764 106.024C68.2417 105.885 68.057 105.693 67.9223 105.447C67.7914 105.196 67.726 104.908 67.726 104.581ZM71.7415 102.572C71.6222 102.572 71.5222 102.531 71.4413 102.451C71.3605 102.37 71.3201 102.27 71.3201 102.15C71.3201 102.031 71.3605 101.931 71.4413 101.85C71.5222 101.769 71.6222 101.729 71.7415 101.729C71.857 101.729 71.9551 101.769 72.0359 101.85C72.1167 101.931 72.1571 102.031 72.1571 102.15C72.1571 102.27 72.1167 102.37 72.0359 102.451C71.9551 102.531 71.857 102.572 71.7415 102.572ZM72.0648 102.993V106.174H71.4067V102.993H72.0648ZM74.5336 102.941C74.7838 102.941 75.007 102.993 75.2032 103.097C75.4034 103.201 75.5592 103.355 75.6708 103.559C75.7824 103.763 75.8382 104.009 75.8382 104.298V106.174H75.1859V104.396C75.1859 104.111 75.1147 103.894 74.9723 103.744C74.8299 103.59 74.6356 103.513 74.3893 103.513C74.143 103.513 73.9467 103.59 73.8005 103.744C73.6581 103.894 73.5869 104.111 73.5869 104.396V106.174H72.9288V102.993H73.5869V103.357C73.6946 103.226 73.8313 103.124 73.9967 103.051C74.1661 102.978 74.345 102.941 74.5336 102.941ZM77.9592 102.941C78.2055 102.941 78.4229 102.991 78.6115 103.091C78.8039 103.188 78.954 103.309 79.0618 103.455V102.993H79.7256V106.226C79.7256 106.518 79.6641 106.778 79.5409 107.005C79.4177 107.236 79.2388 107.417 79.004 107.548C78.7731 107.679 78.496 107.744 78.1728 107.744C77.7417 107.744 77.3838 107.642 77.0991 107.438C76.8143 107.238 76.6526 106.965 76.6142 106.618H77.2665C77.3165 106.784 77.4223 106.917 77.584 107.017C77.7494 107.121 77.9457 107.173 78.1728 107.173C78.4383 107.173 78.6519 107.092 78.8135 106.93C78.979 106.769 79.0618 106.534 79.0618 106.226V105.695C78.9502 105.845 78.7981 105.972 78.6057 106.076C78.4172 106.176 78.2016 106.226 77.9592 106.226C77.6821 106.226 77.4281 106.157 77.1972 106.018C76.9701 105.876 76.7893 105.679 76.6546 105.429C76.5237 105.175 76.4583 104.889 76.4583 104.569C76.4583 104.25 76.5237 103.967 76.6546 103.721C76.7893 103.474 76.9701 103.284 77.1972 103.149C77.4281 103.011 77.6821 102.941 77.9592 102.941ZM79.0618 104.581C79.0618 104.361 79.0156 104.171 78.9232 104.009C78.8347 103.848 78.7173 103.724 78.5711 103.64C78.4248 103.555 78.2671 103.513 78.0977 103.513C77.9284 103.513 77.7706 103.555 77.6244 103.64C77.4781 103.721 77.3588 103.842 77.2665 104.003C77.178 104.161 77.1337 104.35 77.1337 104.569C77.1337 104.789 77.178 104.981 77.2665 105.146C77.3588 105.312 77.4781 105.439 77.6244 105.527C77.7745 105.612 77.9322 105.654 78.0977 105.654C78.2671 105.654 78.4248 105.612 78.5711 105.527C78.7173 105.443 78.8347 105.32 78.9232 105.158C79.0156 104.992 79.0618 104.8 79.0618 104.581Z" fill="white"/>
<path d="M34.0199 144.57H32.3401L32.0514 145.39H31.3645L32.8019 141.372H33.5639L35.0013 145.39H34.3085L34.0199 144.57ZM33.8352 144.033L33.1829 142.169L32.5248 144.033H33.8352ZM35.4069 143.785C35.4069 143.466 35.4723 143.183 35.6032 142.937C35.7379 142.69 35.9187 142.5 36.1458 142.365C36.3767 142.226 36.6326 142.157 36.9136 142.157C37.1214 142.157 37.3253 142.203 37.5255 142.296C37.7294 142.384 37.8911 142.504 38.0104 142.654V141.118H38.6742V145.39H38.0104V144.911C37.9026 145.065 37.7525 145.192 37.5601 145.292C37.3715 145.392 37.1541 145.442 36.9078 145.442C36.6307 145.442 36.3767 145.373 36.1458 145.234C35.9187 145.092 35.7379 144.895 35.6032 144.645C35.4723 144.391 35.4069 144.105 35.4069 143.785ZM38.0104 143.797C38.0104 143.577 37.9642 143.387 37.8718 143.225C37.7833 143.064 37.6659 142.94 37.5197 142.856C37.3734 142.771 37.2157 142.729 37.0463 142.729C36.877 142.729 36.7192 142.771 36.573 142.856C36.4267 142.937 36.3074 143.058 36.2151 143.219C36.1266 143.377 36.0823 143.566 36.0823 143.785C36.0823 144.004 36.1266 144.197 36.2151 144.362C36.3074 144.528 36.4267 144.655 36.573 144.743C36.7231 144.828 36.8808 144.87 37.0463 144.87C37.2157 144.87 37.3734 144.828 37.5197 144.743C37.6659 144.659 37.7833 144.536 37.8718 144.374C37.9642 144.208 38.0104 144.016 38.0104 143.797ZM39.3192 143.785C39.3192 143.466 39.3847 143.183 39.5155 142.937C39.6502 142.69 39.8311 142.5 40.0581 142.365C40.289 142.226 40.545 142.157 40.8259 142.157C41.0337 142.157 41.2377 142.203 41.4378 142.296C41.6418 142.384 41.8034 142.504 41.9227 142.654V141.118H42.5866V145.39H41.9227V144.911C41.815 145.065 41.6649 145.192 41.4724 145.292C41.2839 145.392 41.0664 145.442 40.8201 145.442C40.543 145.442 40.289 145.373 40.0581 145.234C39.8311 145.092 39.6502 144.895 39.5155 144.645C39.3847 144.391 39.3192 144.105 39.3192 143.785ZM41.9227 143.797C41.9227 143.577 41.8765 143.387 41.7842 143.225C41.6957 143.064 41.5783 142.94 41.432 142.856C41.2858 142.771 41.128 142.729 40.9587 142.729C40.7893 142.729 40.6316 142.771 40.4853 142.856C40.3391 142.937 40.2198 143.058 40.1274 143.219C40.0389 143.377 39.9946 143.566 39.9946 143.785C39.9946 144.004 40.0389 144.197 40.1274 144.362C40.2198 144.528 40.3391 144.655 40.4853 144.743C40.6354 144.828 40.7932 144.87 40.9587 144.87C41.128 144.87 41.2858 144.828 41.432 144.743C41.5783 144.659 41.6957 144.536 41.7842 144.374C41.8765 144.208 41.9227 144.016 41.9227 143.797ZM45.7182 142.746V144.507C45.7182 144.626 45.7452 144.713 45.7991 144.766C45.8568 144.816 45.953 144.841 46.0877 144.841H46.4918V145.39H45.9722C45.6759 145.39 45.4489 145.321 45.2911 145.182C45.1333 145.044 45.0544 144.818 45.0544 144.507V142.746H44.6792V142.209H45.0544V141.418H45.7182V142.209H46.4918V142.746H45.7182ZM46.879 143.785C46.879 143.466 46.9444 143.183 47.0752 142.937C47.2099 142.69 47.3908 142.5 47.6179 142.365C47.8488 142.226 48.1028 142.157 48.3799 142.157C48.63 142.157 48.8474 142.207 49.0322 142.307C49.2207 142.403 49.3708 142.525 49.4824 142.671V142.209H50.1463V145.39H49.4824V144.917C49.3708 145.067 49.2188 145.192 49.0264 145.292C48.834 145.392 48.6146 145.442 48.3683 145.442C48.0951 145.442 47.8449 145.373 47.6179 145.234C47.3908 145.092 47.2099 144.895 47.0752 144.645C46.9444 144.391 46.879 144.105 46.879 143.785ZM49.4824 143.797C49.4824 143.577 49.4363 143.387 49.3439 143.225C49.2554 143.064 49.138 142.94 48.9918 142.856C48.8455 142.771 48.6877 142.729 48.5184 142.729C48.3491 142.729 48.1913 142.771 48.045 142.856C47.8988 142.937 47.7795 143.058 47.6871 143.219C47.5986 143.377 47.5544 143.566 47.5544 143.785C47.5544 144.004 47.5986 144.197 47.6871 144.362C47.7795 144.528 47.8988 144.655 48.045 144.743C48.1951 144.828 48.3529 144.87 48.5184 144.87C48.6877 144.87 48.8455 144.828 48.9918 144.743C49.138 144.659 49.2554 144.536 49.3439 144.374C49.4363 144.208 49.4824 144.016 49.4824 143.797ZM52.1652 145.442C51.915 145.442 51.6899 145.398 51.4898 145.309C51.2935 145.217 51.1377 145.094 51.0222 144.94C50.9068 144.782 50.8452 144.607 50.8375 144.414H51.5187C51.5302 144.549 51.5937 144.663 51.7092 144.755C51.8285 144.843 51.9766 144.888 52.1537 144.888C52.3384 144.888 52.4808 144.853 52.5808 144.784C52.6847 144.711 52.7367 144.618 52.7367 144.507C52.7367 144.387 52.679 144.299 52.5635 144.241C52.4519 144.183 52.273 144.12 52.0267 144.051C51.788 143.985 51.5937 143.922 51.4436 143.86C51.2935 143.799 51.1627 143.704 51.0511 143.577C50.9433 143.45 50.8894 143.283 50.8894 143.075C50.8894 142.906 50.9395 142.752 51.0395 142.613C51.1396 142.471 51.282 142.359 51.4667 142.278C51.6553 142.198 51.8708 142.157 52.1132 142.157C52.475 142.157 52.7656 142.25 52.9849 142.434C53.2081 142.615 53.3274 142.863 53.3428 143.179H52.6847C52.6732 143.037 52.6155 142.923 52.5116 142.838C52.4076 142.754 52.2672 142.711 52.0902 142.711C51.917 142.711 51.7842 142.744 51.6918 142.81C51.5995 142.875 51.5533 142.962 51.5533 143.069C51.5533 143.154 51.5841 143.225 51.6457 143.283C51.7072 143.341 51.7823 143.387 51.8708 143.421C51.9593 143.452 52.0902 143.493 52.2633 143.543C52.4942 143.604 52.6828 143.668 52.8291 143.733C52.9791 143.795 53.1081 143.887 53.2158 144.01C53.3236 144.133 53.3794 144.297 53.3832 144.501C53.3832 144.682 53.3332 144.843 53.2331 144.986C53.1331 145.128 52.9907 145.24 52.806 145.321C52.6251 145.401 52.4115 145.442 52.1652 145.442ZM55.3528 143.802L56.819 145.39H55.93L54.7524 144.022V145.39H54.0943V141.118H54.7524V143.6L55.9069 142.209H56.819L55.3528 143.802Z" fill="white"/>
<path d="M33.6759 113.018C33.6759 113.286 33.5835 113.509 33.3988 113.688C33.2171 113.863 32.9385 113.951 32.5629 113.951H31.9441V115.295H31.5238V112.076H32.5629C32.9262 112.076 33.2017 112.164 33.3895 112.339C33.5804 112.515 33.6759 112.741 33.6759 113.018ZM32.5629 113.605C32.7969 113.605 32.9693 113.554 33.0801 113.452C33.191 113.351 33.2464 113.206 33.2464 113.018C33.2464 112.621 33.0185 112.423 32.5629 112.423H31.9441V113.605H32.5629ZM34.0412 114.02C34.0412 113.762 34.0935 113.536 34.1982 113.342C34.3029 113.145 34.446 112.992 34.6277 112.884C34.8124 112.777 35.0171 112.723 35.2419 112.723C35.4636 112.723 35.656 112.77 35.8192 112.866C35.9823 112.961 36.1039 113.081 36.184 113.226V112.764H36.6089V115.295H36.184V114.824C36.1009 114.972 35.9762 115.095 35.8099 115.193C35.6467 115.289 35.4559 115.337 35.2373 115.337C35.0125 115.337 34.8093 115.281 34.6277 115.17C34.446 115.06 34.3029 114.904 34.1982 114.704C34.0935 114.504 34.0412 114.276 34.0412 114.02ZM36.184 114.025C36.184 113.834 36.1455 113.668 36.0685 113.526C35.9916 113.385 35.8869 113.277 35.7545 113.203C35.6252 113.126 35.482 113.088 35.325 113.088C35.168 113.088 35.0248 113.125 34.8955 113.198C34.7662 113.272 34.6631 113.38 34.5861 113.522C34.5091 113.663 34.4707 113.83 34.4707 114.02C34.4707 114.214 34.5091 114.384 34.5861 114.528C34.6631 114.67 34.7662 114.779 34.8955 114.856C35.0248 114.93 35.168 114.967 35.325 114.967C35.482 114.967 35.6252 114.93 35.7545 114.856C35.8869 114.779 35.9916 114.67 36.0685 114.528C36.1455 114.384 36.184 114.216 36.184 114.025ZM38.215 115.337C38.021 115.337 37.847 115.304 37.6931 115.24C37.5392 115.172 37.4176 115.08 37.3283 114.963C37.239 114.842 37.1897 114.705 37.1805 114.552H37.6146C37.6269 114.678 37.6854 114.781 37.7901 114.861C37.8978 114.941 38.0379 114.981 38.2103 114.981C38.3704 114.981 38.4967 114.946 38.589 114.875C38.6814 114.804 38.7276 114.715 38.7276 114.607C38.7276 114.496 38.6783 114.415 38.5798 114.362C38.4813 114.307 38.3289 114.253 38.1226 114.201C37.9348 114.151 37.7809 114.102 37.6608 114.053C37.5438 114 37.4422 113.925 37.356 113.826C37.2729 113.725 37.2313 113.592 37.2313 113.429C37.2313 113.3 37.2698 113.181 37.3467 113.074C37.4237 112.966 37.533 112.881 37.6746 112.82C37.8163 112.755 37.9779 112.723 38.1595 112.723C38.4397 112.723 38.666 112.794 38.8384 112.935C39.0108 113.077 39.1032 113.271 39.1155 113.517H38.6952C38.686 113.385 38.6321 113.278 38.5336 113.198C38.4382 113.118 38.3089 113.078 38.1457 113.078C37.9948 113.078 37.8748 113.111 37.7855 113.175C37.6962 113.24 37.6515 113.325 37.6515 113.429C37.6515 113.512 37.6777 113.582 37.7301 113.637C37.7855 113.689 37.8532 113.733 37.9332 113.766C38.0164 113.797 38.1303 113.833 38.275 113.873C38.4566 113.922 38.6044 113.971 38.7183 114.02C38.8322 114.067 38.9292 114.137 39.0093 114.233C39.0924 114.328 39.1355 114.453 39.1386 114.607C39.1386 114.745 39.1001 114.87 39.0231 114.981C38.9462 115.092 38.8369 115.18 38.6952 115.244C38.5567 115.306 38.3966 115.337 38.215 115.337ZM40.2444 113.111V114.602C40.2444 114.725 40.2706 114.813 40.323 114.866C40.3753 114.915 40.4661 114.939 40.5954 114.939H40.9048V115.295H40.5262C40.2922 115.295 40.1167 115.241 39.9997 115.133C39.8827 115.026 39.8242 114.849 39.8242 114.602V113.111H39.4963V112.764H39.8242V112.127H40.2444V112.764H40.9048V113.111H40.2444ZM44.631 112.284L43.3472 115.295H42.9223L44.2246 112.326H42.442V111.965H44.631V112.284ZM46.2405 114.02C46.2405 113.762 46.2928 113.536 46.3975 113.342C46.5022 113.145 46.6453 112.992 46.827 112.884C47.0117 112.777 47.218 112.723 47.4458 112.723C47.6428 112.723 47.826 112.769 47.9953 112.861C48.1647 112.951 48.294 113.069 48.3833 113.217V111.878H48.8081V115.295H48.3833V114.819C48.3001 114.97 48.177 115.095 48.0138 115.193C47.8506 115.289 47.6598 115.337 47.4412 115.337C47.2164 115.337 47.0117 115.281 46.827 115.17C46.6453 115.06 46.5022 114.904 46.3975 114.704C46.2928 114.504 46.2405 114.276 46.2405 114.02ZM48.3833 114.025C48.3833 113.834 48.3448 113.668 48.2678 113.526C48.1909 113.385 48.0862 113.277 47.9538 113.203C47.8245 113.126 47.6813 113.088 47.5243 113.088C47.3673 113.088 47.2241 113.125 47.0948 113.198C46.9655 113.272 46.8624 113.38 46.7854 113.522C46.7084 113.663 46.6699 113.83 46.6699 114.02C46.6699 114.214 46.7084 114.384 46.7854 114.528C46.8624 114.67 46.9655 114.779 47.0948 114.856C47.2241 114.93 47.3673 114.967 47.5243 114.967C47.6813 114.967 47.8245 114.93 47.9538 114.856C48.0862 114.779 48.1909 114.67 48.2678 114.528C48.3448 114.384 48.3833 114.216 48.3833 114.025ZM49.3613 114.02C49.3613 113.762 49.4136 113.536 49.5183 113.342C49.623 113.145 49.7662 112.992 49.9478 112.884C50.1325 112.777 50.3373 112.723 50.562 112.723C50.7837 112.723 50.9761 112.77 51.1393 112.866C51.3025 112.961 51.4241 113.081 51.5041 113.226V112.764H51.929V115.295H51.5041V114.824C51.421 114.972 51.2963 115.095 51.1301 115.193C50.9669 115.289 50.776 115.337 50.5574 115.337C50.3327 115.337 50.1295 115.281 49.9478 115.17C49.7662 115.06 49.623 114.904 49.5183 114.704C49.4136 114.504 49.3613 114.276 49.3613 114.02ZM51.5041 114.025C51.5041 113.834 51.4656 113.668 51.3887 113.526C51.3117 113.385 51.207 113.277 51.0746 113.203C50.9453 113.126 50.8022 113.088 50.6452 113.088C50.4881 113.088 50.345 113.125 50.2157 113.198C50.0864 113.272 49.9832 113.38 49.9063 113.522C49.8293 113.663 49.7908 113.83 49.7908 114.02C49.7908 114.214 49.8293 114.384 49.9063 114.528C49.9832 114.67 50.0864 114.779 50.2157 114.856C50.345 114.93 50.4881 114.967 50.6452 114.967C50.8022 114.967 50.9453 114.93 51.0746 114.856C51.207 114.779 51.3117 114.67 51.3887 114.528C51.4656 114.384 51.5041 114.216 51.5041 114.025ZM54.8189 112.764L53.295 116.487H52.8609L53.3596 115.267L52.339 112.764H52.8054L53.5998 114.815L54.3848 112.764H54.8189ZM56.1373 115.337C55.9434 115.337 55.7694 115.304 55.6155 115.24C55.4615 115.172 55.3399 115.08 55.2506 114.963C55.1613 114.842 55.1121 114.705 55.1029 114.552H55.537C55.5493 114.678 55.6078 114.781 55.7124 114.861C55.8202 114.941 55.9603 114.981 56.1327 114.981C56.2928 114.981 56.419 114.946 56.5114 114.875C56.6037 114.804 56.6499 114.715 56.6499 114.607C56.6499 114.496 56.6007 114.415 56.5021 114.362C56.4036 114.307 56.2512 114.253 56.045 114.201C55.8571 114.151 55.7032 114.102 55.5831 114.053C55.4661 114 55.3645 113.925 55.2783 113.826C55.1952 113.725 55.1536 113.592 55.1536 113.429C55.1536 113.3 55.1921 113.181 55.2691 113.074C55.3461 112.966 55.4554 112.881 55.597 112.82C55.7386 112.755 55.9002 112.723 56.0819 112.723C56.3621 112.723 56.5884 112.794 56.7608 112.935C56.9332 113.077 57.0255 113.271 57.0379 113.517H56.6176C56.6084 113.385 56.5545 113.278 56.456 113.198C56.3605 113.118 56.2312 113.078 56.068 113.078C55.9172 113.078 55.7971 113.111 55.7078 113.175C55.6185 113.24 55.5739 113.325 55.5739 113.429C55.5739 113.512 55.6001 113.582 55.6524 113.637C55.7078 113.689 55.7756 113.733 55.8556 113.766C55.9387 113.797 56.0526 113.833 56.1973 113.873C56.379 113.922 56.5268 113.971 56.6407 114.02C56.7546 114.067 56.8516 114.137 56.9316 114.233C57.0148 114.328 57.0579 114.453 57.0609 114.607C57.0609 114.745 57.0225 114.87 56.9455 114.981C56.8685 115.092 56.7592 115.18 56.6176 115.244C56.4791 115.306 56.319 115.337 56.1373 115.337Z" fill="#DBEDF8"/>
<g clip-path="url(#clip1_1_467)">
<path d="M15.3626 32.4484H9.50947C8.21643 32.4484 7.16821 33.4966 7.16821 34.7896V40.6427C7.16821 41.9358 8.21643 42.984 9.50947 42.984H15.3626C16.6556 42.984 17.7039 41.9358 17.7039 40.6427V34.7896C17.7039 33.4966 16.6556 32.4484 15.3626 32.4484Z" stroke="#131316" stroke-width="0.865902" stroke-miterlimit="10"/>
<path d="M12.4377 34.7899V40.643" stroke="#131316" stroke-width="0.865902" stroke-linecap="round" stroke-linejoin="round"/>
<path d="M14.7776 36.2528V40.6427" stroke="#131316" stroke-width="0.865902" stroke-linecap="round" stroke-linejoin="round"/>
<path d="M10.0901 37.2306V40.643" stroke="#131316" stroke-width="0.865902" stroke-linecap="round" stroke-linejoin="round"/>
</g>
<g clip-path="url(#clip2_1_467)">
<path d="M17.7039 73.4201V75.7614C17.7039 76.3823 17.4572 76.9778 17.0181 77.4169C16.579 77.856 15.9835 78.1027 15.3626 78.1027H9.50947C8.88853 78.1027 8.29302 77.856 7.85395 77.4169C7.41488 76.9778 7.16821 76.3823 7.16821 75.7614V69.9083C7.16821 69.2873 7.41488 68.6918 7.85395 68.2528C8.29302 67.8137 8.88853 67.567 9.50947 67.567H11.8507" stroke="#131316" stroke-width="0.865902" stroke-linecap="round" stroke-linejoin="round"/>
<path d="M15.3319 67.8593L10.6799 72.5063V74.5866H12.7603L17.4122 69.9347C17.5043 69.8427 17.5774 69.7334 17.6273 69.6132C17.6771 69.4929 17.7028 69.364 17.7028 69.2338C17.7028 69.1036 17.6771 68.9747 17.6273 68.8544C17.5774 68.7342 17.5043 68.6249 17.4122 68.5329L16.7287 67.8543C16.5424 67.6705 16.291 67.5678 16.0293 67.5687C15.7675 67.5697 15.5168 67.6741 15.3319 67.8593Z" stroke="#131316" stroke-width="0.865902" stroke-linecap="round" stroke-linejoin="round"/>
<path d="M15.9398 71.0786L14.1838 69.3226" stroke="#131316" stroke-width="0.865902" stroke-miterlimit="10" stroke-linecap="round"/>
</g>
<g clip-path="url(#clip3_1_467)">
<path d="M14.2081 143.192H10.3596" stroke="white" stroke-width="0.865902" stroke-linecap="round" stroke-linejoin="round"/>
<path d="M12.2893 145.115V141.267" stroke="white" stroke-width="0.865902" stroke-linecap="round" stroke-linejoin="round"/>
</g>
<defs>
<clipPath id="clip0_1_467">
<rect width="12.8769" height="10.5356" fill="white" transform="translate(5.99634 102.686)"/>
</clipPath>
<clipPath id="clip1_1_467">
<rect width="11.7063" height="11.7063" fill="white" transform="translate(6.58228 31.8632)"/>
</clipPath>
<clipPath id="clip2_1_467">
<rect width="12.2916" height="12.2916" fill="white" transform="translate(6.58228 66.3961)"/>
</clipPath>
<clipPath id="clip3_1_467">
<rect width="4.61814" height="4.61814" fill="white" transform="translate(9.98071 140.882)"/>
</clipPath>
</defs>
</svg>
