<svg width="512" height="347" viewBox="0 0 512 347" fill="none" xmlns="http://www.w3.org/2000/svg">
<rect x="265.16" width="246.387" height="163.244" rx="16" fill="white"/>
<path d="M308.261 47.4459H306.021L300.949 39.7819V47.4459H298.709V36.2619H300.949L306.021 43.9419V36.2619H308.261V47.4459ZM318.715 42.8219C318.715 43.1419 318.694 43.4299 318.651 43.6859H312.171C312.224 44.3259 312.448 44.8273 312.843 45.1899C313.238 45.5526 313.723 45.7339 314.299 45.7339C315.131 45.7339 315.723 45.3766 316.075 44.6619H318.491C318.235 45.5153 317.744 46.2193 317.019 46.7739C316.294 47.3179 315.403 47.5899 314.347 47.5899C313.494 47.5899 312.726 47.4033 312.043 47.0299C311.371 46.6459 310.843 46.1073 310.459 45.4139C310.086 44.7206 309.899 43.9206 309.899 43.0139C309.899 42.0966 310.086 41.2913 310.459 40.5979C310.832 39.9046 311.355 39.3713 312.027 38.9979C312.699 38.6246 313.472 38.4379 314.347 38.4379C315.19 38.4379 315.942 38.6193 316.603 38.9819C317.275 39.3446 317.792 39.8619 318.155 40.5339C318.528 41.1953 318.715 41.9579 318.715 42.8219ZM316.395 42.1819C316.384 41.6059 316.176 41.1473 315.771 40.8059C315.366 40.4539 314.87 40.2779 314.283 40.2779C313.728 40.2779 313.259 40.4486 312.875 40.7899C312.502 41.1206 312.272 41.5846 312.187 42.1819H316.395ZM332.638 38.5819L330.046 47.4459H327.63L326.014 41.2539L324.398 47.4459H321.966L319.358 38.5819H321.63L323.198 45.3339L324.894 38.5819H327.262L328.926 45.3179L330.494 38.5819H332.638ZM337.087 43.0139C337.087 42.0966 337.273 41.2966 337.647 40.6139C338.02 39.9206 338.537 39.3873 339.199 39.0139C339.86 38.6299 340.617 38.4379 341.471 38.4379C342.569 38.4379 343.476 38.7153 344.191 39.2699C344.916 39.8139 345.401 40.5819 345.647 41.5739H343.231C343.103 41.1899 342.884 40.8913 342.575 40.6779C342.276 40.4539 341.903 40.3419 341.455 40.3419C340.815 40.3419 340.308 40.5766 339.935 41.0459C339.561 41.5046 339.375 42.1606 339.375 43.0139C339.375 43.8566 339.561 44.5126 339.935 44.9819C340.308 45.4406 340.815 45.6699 341.455 45.6699C342.361 45.6699 342.953 45.2646 343.231 44.4539H345.647C345.401 45.4139 344.916 46.1766 344.191 46.7419C343.465 47.3073 342.559 47.5899 341.471 47.5899C340.617 47.5899 339.86 47.4033 339.199 47.0299C338.537 46.6459 338.02 46.1126 337.647 45.4299C337.273 44.7366 337.087 43.9313 337.087 43.0139ZM349.528 35.6059V47.4459H347.288V35.6059H349.528ZM352.877 37.5259C352.482 37.5259 352.151 37.4033 351.885 37.1579C351.629 36.9019 351.501 36.5873 351.501 36.2139C351.501 35.8406 351.629 35.5313 351.885 35.2859C352.151 35.0299 352.482 34.9019 352.877 34.9019C353.271 34.9019 353.597 35.0299 353.853 35.2859C354.119 35.5313 354.253 35.8406 354.253 36.2139C354.253 36.5873 354.119 36.9019 353.853 37.1579C353.597 37.4033 353.271 37.5259 352.877 37.5259ZM353.981 38.5819V47.4459H351.741V38.5819H353.981ZM364.434 42.8219C364.434 43.1419 364.413 43.4299 364.37 43.6859H357.89C357.943 44.3259 358.167 44.8273 358.562 45.1899C358.957 45.5526 359.442 45.7339 360.018 45.7339C360.85 45.7339 361.442 45.3766 361.794 44.6619H364.21C363.954 45.5153 363.463 46.2193 362.738 46.7739C362.013 47.3179 361.122 47.5899 360.066 47.5899C359.213 47.5899 358.445 47.4033 357.762 47.0299C357.09 46.6459 356.562 46.1073 356.178 45.4139C355.805 44.7206 355.618 43.9206 355.618 43.0139C355.618 42.0966 355.805 41.2913 356.178 40.5979C356.551 39.9046 357.074 39.3713 357.746 38.9979C358.418 38.6246 359.191 38.4379 360.066 38.4379C360.909 38.4379 361.661 38.6193 362.322 38.9819C362.994 39.3446 363.511 39.8619 363.874 40.5339C364.247 41.1953 364.434 41.9579 364.434 42.8219ZM362.114 42.1819C362.103 41.6059 361.895 41.1473 361.49 40.8059C361.085 40.4539 360.589 40.2779 360.002 40.2779C359.447 40.2779 358.978 40.4486 358.594 40.7899C358.221 41.1206 357.991 41.5846 357.906 42.1819H362.114ZM370.981 38.4539C372.037 38.4539 372.89 38.7899 373.541 39.4619C374.192 40.1233 374.517 41.0513 374.517 42.2459V47.4459H372.277V42.5499C372.277 41.8459 372.101 41.3073 371.749 40.9339C371.397 40.5499 370.917 40.3579 370.309 40.3579C369.69 40.3579 369.2 40.5499 368.837 40.9339C368.485 41.3073 368.309 41.8459 368.309 42.5499V47.4459H366.069V38.5819H368.309V39.6859C368.608 39.3019 368.986 39.0033 369.445 38.7899C369.914 38.5659 370.426 38.4539 370.981 38.4539ZM379.255 40.4219V44.7099C379.255 45.0086 379.324 45.2273 379.463 45.3659C379.612 45.4939 379.858 45.5579 380.199 45.5579H381.239V47.4459H379.831C377.943 47.4459 376.999 46.5286 376.999 44.6939V40.4219H375.943V38.5819H376.999V36.3899H379.255V38.5819H381.239V40.4219H379.255ZM386.242 47.5899C385.517 47.5899 384.866 47.4619 384.29 47.2059C383.714 46.9393 383.255 46.5819 382.914 46.1339C382.583 45.6859 382.402 45.1899 382.37 44.6459H384.626C384.669 44.9873 384.834 45.2699 385.122 45.4939C385.421 45.7179 385.789 45.8299 386.226 45.8299C386.653 45.8299 386.983 45.7446 387.218 45.5739C387.463 45.4033 387.586 45.1846 387.586 44.9179C387.586 44.6299 387.437 44.4166 387.138 44.2779C386.85 44.1286 386.386 43.9686 385.746 43.7979C385.085 43.6379 384.541 43.4726 384.114 43.3019C383.698 43.1313 383.335 42.8699 383.026 42.5179C382.727 42.1659 382.578 41.6913 382.578 41.0939C382.578 40.6033 382.717 40.1553 382.994 39.7499C383.282 39.3446 383.687 39.0246 384.21 38.7899C384.743 38.5553 385.367 38.4379 386.082 38.4379C387.138 38.4379 387.981 38.7046 388.61 39.2379C389.239 39.7606 389.586 40.4699 389.65 41.3659H387.506C387.474 41.0139 387.325 40.7366 387.058 40.5339C386.802 40.3206 386.455 40.2139 386.018 40.2139C385.613 40.2139 385.298 40.2886 385.074 40.4379C384.861 40.5873 384.754 40.7953 384.754 41.0619C384.754 41.3606 384.903 41.5899 385.202 41.7499C385.501 41.8993 385.965 42.0539 386.594 42.2139C387.234 42.3739 387.762 42.5393 388.178 42.7099C388.594 42.8806 388.951 43.1473 389.25 43.5099C389.559 43.8619 389.719 44.3313 389.73 44.9179C389.73 45.4299 389.586 45.8886 389.298 46.2939C389.021 46.6993 388.615 47.0193 388.082 47.2539C387.559 47.4779 386.946 47.5899 386.242 47.5899Z" fill="#131316"/>
<path d="M303.509 110.55C306.581 107.894 308.997 105.718 310.757 104.022C312.549 102.294 314.037 100.502 315.221 98.6455C316.405 96.7895 316.997 94.9335 316.997 93.0775C316.997 91.1575 316.533 89.6535 315.605 88.5655C314.709 87.4775 313.285 86.9335 311.333 86.9335C309.445 86.9335 307.973 87.5415 306.917 88.7575C305.893 89.9415 305.349 91.5415 305.285 93.5575H300.005C300.101 89.9095 301.189 87.1255 303.269 85.2055C305.381 83.2535 308.053 82.2775 311.285 82.2775C314.773 82.2775 317.493 83.2375 319.445 85.1575C321.429 87.0775 322.421 89.6375 322.421 92.8375C322.421 95.1415 321.829 97.3655 320.645 99.5095C319.493 101.622 318.101 103.526 316.469 105.222C314.869 106.886 312.821 108.822 310.325 111.03L308.165 112.95H323.381V117.51H300.053V113.526L303.509 110.55ZM330.213 110.55C333.285 107.894 335.701 105.718 337.461 104.022C339.253 102.294 340.741 100.502 341.925 98.6455C343.109 96.7895 343.701 94.9335 343.701 93.0775C343.701 91.1575 343.237 89.6535 342.309 88.5655C341.413 87.4775 339.989 86.9335 338.037 86.9335C336.149 86.9335 334.677 87.5415 333.621 88.7575C332.597 89.9415 332.053 91.5415 331.989 93.5575H326.709C326.805 89.9095 327.893 87.1255 329.973 85.2055C332.085 83.2535 334.757 82.2775 337.989 82.2775C341.477 82.2775 344.197 83.2375 346.149 85.1575C348.133 87.0775 349.125 89.6375 349.125 92.8375C349.125 95.1415 348.533 97.3655 347.349 99.5095C346.197 101.622 344.805 103.526 343.173 105.222C341.573 106.886 339.525 108.822 337.029 111.03L334.869 112.95H350.085V117.51H326.757V113.526L330.213 110.55ZM359.796 99.7015C356.468 98.0375 354.804 95.4135 354.804 91.8295C354.804 90.1015 355.236 88.5175 356.1 87.0775C356.964 85.6375 358.26 84.5015 359.988 83.6695C361.716 82.8055 363.828 82.3735 366.324 82.3735C368.788 82.3735 370.884 82.8055 372.612 83.6695C374.372 84.5015 375.684 85.6375 376.548 87.0775C377.412 88.5175 377.844 90.1015 377.844 91.8295C377.844 93.6215 377.38 95.2055 376.452 96.5815C375.556 97.9255 374.356 98.9655 372.852 99.7015C374.676 100.374 376.116 101.478 377.172 103.014C378.228 104.518 378.756 106.294 378.756 108.342C378.756 110.422 378.228 112.262 377.172 113.862C376.116 115.462 374.644 116.694 372.756 117.558C370.868 118.422 368.724 118.854 366.324 118.854C363.924 118.854 361.78 118.422 359.892 117.558C358.036 116.694 356.58 115.462 355.524 113.862C354.468 112.262 353.94 110.422 353.94 108.342C353.94 106.262 354.468 104.47 355.524 102.966C356.58 101.462 358.004 100.374 359.796 99.7015ZM372.612 92.5015C372.612 90.7095 372.052 89.3335 370.932 88.3735C369.812 87.4135 368.276 86.9335 366.324 86.9335C364.404 86.9335 362.884 87.4135 361.764 88.3735C360.644 89.3335 360.084 90.7255 360.084 92.5495C360.084 94.1495 360.66 95.4615 361.812 96.4855C362.996 97.4775 364.5 97.9735 366.324 97.9735C368.148 97.9735 369.652 97.4615 370.836 96.4375C372.02 95.4135 372.612 94.1015 372.612 92.5015ZM366.324 102.102C364.212 102.102 362.484 102.63 361.14 103.686C359.828 104.71 359.172 106.198 359.172 108.15C359.172 109.974 359.812 111.462 361.092 112.614C362.372 113.734 364.116 114.294 366.324 114.294C368.5 114.294 370.212 113.718 371.46 112.566C372.74 111.414 373.38 109.942 373.38 108.15C373.38 106.23 372.724 104.742 371.412 103.686C370.132 102.63 368.436 102.102 366.324 102.102Z" fill="#131316"/>
<rect x="398.605" y="89.4895" width="45.7942" height="23" rx="4" fill="#6AC75A" fill-opacity="0.3"/>
<g clip-path="url(#clip0_1_1201)">
<path d="M414.936 104.204L416.4 98.7395L410.936 97.2754L412.436 99.8735L408.105 102.373L409.105 104.106L413.436 101.606L414.936 104.204Z" fill="#58944E"/>
</g>
<path d="M422.8 102.88V102.19L426.31 97.3295H427.4V102.09H428.4V102.88H427.4V104.49H426.5V102.88H422.8ZM426.54 98.2795L423.85 102.09H426.54V98.2795ZM429.109 98.8895C429.109 98.4362 429.245 98.0762 429.519 97.8095C429.792 97.5362 430.142 97.3995 430.569 97.3995C430.995 97.3995 431.345 97.5362 431.619 97.8095C431.892 98.0762 432.029 98.4362 432.029 98.8895C432.029 99.3495 431.892 99.7162 431.619 99.9895C431.345 100.256 430.995 100.39 430.569 100.39C430.142 100.39 429.792 100.256 429.519 99.9895C429.245 99.7162 429.109 99.3495 429.109 98.8895ZM434.949 97.5095L430.899 104.49H429.999L434.049 97.5095H434.949ZM430.569 97.9595C430.342 97.9595 430.162 98.0395 430.029 98.1995C429.902 98.3528 429.839 98.5828 429.839 98.8895C429.839 99.1962 429.902 99.4295 430.029 99.5895C430.162 99.7495 430.342 99.8295 430.569 99.8295C430.795 99.8295 430.975 99.7495 431.109 99.5895C431.242 99.4228 431.309 99.1895 431.309 98.8895C431.309 98.5828 431.242 98.3528 431.109 98.1995C430.975 98.0395 430.795 97.9595 430.569 97.9595ZM432.939 103.11C432.939 102.65 433.075 102.286 433.349 102.02C433.622 101.746 433.972 101.61 434.399 101.61C434.825 101.61 435.172 101.746 435.439 102.02C435.712 102.286 435.849 102.65 435.849 103.11C435.849 103.563 435.712 103.926 435.439 104.2C435.172 104.473 434.825 104.61 434.399 104.61C433.972 104.61 433.622 104.476 433.349 104.21C433.075 103.936 432.939 103.57 432.939 103.11ZM434.389 102.18C434.162 102.18 433.982 102.26 433.849 102.42C433.715 102.573 433.649 102.803 433.649 103.11C433.649 103.41 433.715 103.64 433.849 103.8C433.982 103.953 434.162 104.03 434.389 104.03C434.615 104.03 434.795 103.953 434.929 103.8C435.062 103.64 435.129 103.41 435.129 103.11C435.129 102.803 435.062 102.573 434.929 102.42C434.795 102.26 434.615 102.18 434.389 102.18Z" fill="#58944E"/>
<rect x="265.16" y="183.523" width="246.387" height="163.244" rx="16" fill="#F6FEE0"/>
<path d="M298.165 225.369C298.165 224.27 298.411 223.289 298.901 222.425C299.403 221.55 300.08 220.873 300.933 220.393C301.797 219.902 302.763 219.657 303.829 219.657C305.077 219.657 306.171 219.977 307.109 220.617C308.048 221.257 308.704 222.142 309.077 223.273H306.501C306.245 222.739 305.883 222.339 305.413 222.073C304.955 221.806 304.421 221.673 303.813 221.673C303.163 221.673 302.581 221.827 302.069 222.137C301.568 222.435 301.173 222.862 300.885 223.417C300.608 223.971 300.469 224.622 300.469 225.369C300.469 226.105 300.608 226.755 300.885 227.321C301.173 227.875 301.568 228.307 302.069 228.617C302.581 228.915 303.163 229.065 303.813 229.065C304.421 229.065 304.955 228.931 305.413 228.665C305.883 228.387 306.245 227.982 306.501 227.449H309.077C308.704 228.59 308.048 229.481 307.109 230.121C306.181 230.75 305.088 231.065 303.829 231.065C302.763 231.065 301.797 230.825 300.933 230.345C300.08 229.854 299.403 229.177 298.901 228.313C298.411 227.449 298.165 226.467 298.165 225.369ZM314.927 231.113C314.073 231.113 313.305 230.926 312.623 230.553C311.94 230.169 311.401 229.63 311.007 228.937C310.623 228.243 310.431 227.443 310.431 226.537C310.431 225.63 310.628 224.83 311.023 224.137C311.428 223.443 311.977 222.91 312.671 222.537C313.364 222.153 314.137 221.961 314.991 221.961C315.844 221.961 316.617 222.153 317.311 222.537C318.004 222.91 318.548 223.443 318.943 224.137C319.348 224.83 319.551 225.63 319.551 226.537C319.551 227.443 319.343 228.243 318.927 228.937C318.521 229.63 317.967 230.169 317.263 230.553C316.569 230.926 315.791 231.113 314.927 231.113ZM314.927 229.161C315.332 229.161 315.711 229.065 316.063 228.873C316.425 228.67 316.713 228.371 316.927 227.977C317.14 227.582 317.247 227.102 317.247 226.537C317.247 225.694 317.023 225.049 316.575 224.601C316.137 224.142 315.599 223.913 314.959 223.913C314.319 223.913 313.78 224.142 313.343 224.601C312.916 225.049 312.703 225.694 312.703 226.537C312.703 227.379 312.911 228.03 313.327 228.489C313.753 228.937 314.287 229.161 314.927 229.161ZM326.106 221.977C327.162 221.977 328.015 222.313 328.666 222.985C329.317 223.646 329.642 224.574 329.642 225.769V230.969H327.402V226.073C327.402 225.369 327.226 224.83 326.874 224.457C326.522 224.073 326.042 223.881 325.434 223.881C324.815 223.881 324.325 224.073 323.962 224.457C323.61 224.83 323.434 225.369 323.434 226.073V230.969H321.194V222.105H323.434V223.209C323.733 222.825 324.111 222.526 324.57 222.313C325.039 222.089 325.551 221.977 326.106 221.977ZM335.468 228.905L337.708 222.105H340.092L336.812 230.969H334.092L330.828 222.105H333.228L335.468 228.905ZM349.59 226.345C349.59 226.665 349.569 226.953 349.526 227.209H343.046C343.099 227.849 343.323 228.35 343.718 228.713C344.113 229.075 344.598 229.257 345.174 229.257C346.006 229.257 346.598 228.899 346.95 228.185H349.366C349.11 229.038 348.619 229.742 347.894 230.297C347.169 230.841 346.278 231.113 345.222 231.113C344.369 231.113 343.601 230.926 342.918 230.553C342.246 230.169 341.718 229.63 341.334 228.937C340.961 228.243 340.774 227.443 340.774 226.537C340.774 225.619 340.961 224.814 341.334 224.121C341.707 223.427 342.23 222.894 342.902 222.521C343.574 222.147 344.347 221.961 345.222 221.961C346.065 221.961 346.817 222.142 347.478 222.505C348.15 222.867 348.667 223.385 349.03 224.057C349.403 224.718 349.59 225.481 349.59 226.345ZM347.27 225.705C347.259 225.129 347.051 224.67 346.646 224.329C346.241 223.977 345.745 223.801 345.158 223.801C344.603 223.801 344.134 223.971 343.75 224.313C343.377 224.643 343.147 225.107 343.062 225.705H347.27ZM353.465 223.481C353.753 223.011 354.126 222.643 354.585 222.377C355.054 222.11 355.588 221.977 356.185 221.977V224.329H355.593C354.889 224.329 354.356 224.494 353.993 224.825C353.641 225.155 353.465 225.731 353.465 226.553V230.969H351.225V222.105H353.465V223.481ZM361.086 231.113C360.361 231.113 359.71 230.985 359.134 230.729C358.558 230.462 358.099 230.105 357.758 229.657C357.427 229.209 357.246 228.713 357.214 228.169H359.47C359.513 228.51 359.678 228.793 359.966 229.017C360.265 229.241 360.633 229.353 361.07 229.353C361.497 229.353 361.827 229.267 362.062 229.097C362.307 228.926 362.43 228.707 362.43 228.441C362.43 228.153 362.281 227.939 361.982 227.801C361.694 227.651 361.23 227.491 360.59 227.321C359.929 227.161 359.385 226.995 358.958 226.825C358.542 226.654 358.179 226.393 357.87 226.041C357.571 225.689 357.422 225.214 357.422 224.617C357.422 224.126 357.561 223.678 357.838 223.273C358.126 222.867 358.531 222.547 359.054 222.313C359.587 222.078 360.211 221.961 360.926 221.961C361.982 221.961 362.825 222.227 363.454 222.761C364.083 223.283 364.43 223.993 364.494 224.889H362.35C362.318 224.537 362.169 224.259 361.902 224.057C361.646 223.843 361.299 223.737 360.862 223.737C360.457 223.737 360.142 223.811 359.918 223.961C359.705 224.11 359.598 224.318 359.598 224.585C359.598 224.883 359.747 225.113 360.046 225.273C360.345 225.422 360.809 225.577 361.438 225.737C362.078 225.897 362.606 226.062 363.022 226.233C363.438 226.403 363.795 226.67 364.094 227.033C364.403 227.385 364.563 227.854 364.574 228.441C364.574 228.953 364.43 229.411 364.142 229.817C363.865 230.222 363.459 230.542 362.926 230.777C362.403 231.001 361.79 231.113 361.086 231.113ZM367.549 221.049C367.154 221.049 366.823 220.926 366.557 220.681C366.301 220.425 366.173 220.11 366.173 219.737C366.173 219.363 366.301 219.054 366.557 218.809C366.823 218.553 367.154 218.425 367.549 218.425C367.943 218.425 368.269 218.553 368.525 218.809C368.791 219.054 368.925 219.363 368.925 219.737C368.925 220.11 368.791 220.425 368.525 220.681C368.269 220.926 367.943 221.049 367.549 221.049ZM368.653 222.105V230.969H366.413V222.105H368.653ZM374.802 231.113C373.948 231.113 373.18 230.926 372.498 230.553C371.815 230.169 371.276 229.63 370.882 228.937C370.498 228.243 370.306 227.443 370.306 226.537C370.306 225.63 370.503 224.83 370.898 224.137C371.303 223.443 371.852 222.91 372.546 222.537C373.239 222.153 374.012 221.961 374.866 221.961C375.719 221.961 376.492 222.153 377.186 222.537C377.879 222.91 378.423 223.443 378.818 224.137C379.223 224.83 379.426 225.63 379.426 226.537C379.426 227.443 379.218 228.243 378.802 228.937C378.396 229.63 377.842 230.169 377.138 230.553C376.444 230.926 375.666 231.113 374.802 231.113ZM374.802 229.161C375.207 229.161 375.586 229.065 375.938 228.873C376.3 228.67 376.588 228.371 376.802 227.977C377.015 227.582 377.122 227.102 377.122 226.537C377.122 225.694 376.898 225.049 376.45 224.601C376.012 224.142 375.474 223.913 374.834 223.913C374.194 223.913 373.655 224.142 373.218 224.601C372.791 225.049 372.578 225.694 372.578 226.537C372.578 227.379 372.786 228.03 373.202 228.489C373.628 228.937 374.162 229.161 374.802 229.161ZM385.981 221.977C387.037 221.977 387.89 222.313 388.541 222.985C389.192 223.646 389.517 224.574 389.517 225.769V230.969H387.277V226.073C387.277 225.369 387.101 224.83 386.749 224.457C386.397 224.073 385.917 223.881 385.309 223.881C384.69 223.881 384.2 224.073 383.837 224.457C383.485 224.83 383.309 225.369 383.309 226.073V230.969H381.069V222.105H383.309V223.209C383.608 222.825 383.986 222.526 384.445 222.313C384.914 222.089 385.426 221.977 385.981 221.977ZM397.699 223.481C397.987 223.011 398.361 222.643 398.819 222.377C399.289 222.11 399.822 221.977 400.419 221.977V224.329H399.827C399.123 224.329 398.59 224.494 398.227 224.825C397.875 225.155 397.699 225.731 397.699 226.553V230.969H395.459V222.105H397.699V223.481ZM401.352 226.505C401.352 225.609 401.528 224.814 401.88 224.121C402.243 223.427 402.728 222.894 403.336 222.521C403.955 222.147 404.643 221.961 405.4 221.961C406.062 221.961 406.638 222.094 407.128 222.361C407.63 222.627 408.03 222.963 408.328 223.369V222.105H410.584V230.969H408.328V229.673C408.04 230.089 407.64 230.435 407.128 230.713C406.627 230.979 406.046 231.113 405.384 231.113C404.638 231.113 403.955 230.921 403.336 230.537C402.728 230.153 402.243 229.614 401.88 228.921C401.528 228.217 401.352 227.411 401.352 226.505ZM408.328 226.537C408.328 225.993 408.222 225.529 408.008 225.145C407.795 224.75 407.507 224.451 407.144 224.249C406.782 224.035 406.392 223.929 405.976 223.929C405.56 223.929 405.176 224.03 404.824 224.233C404.472 224.435 404.184 224.734 403.96 225.129C403.747 225.513 403.64 225.971 403.64 226.505C403.64 227.038 403.747 227.507 403.96 227.913C404.184 228.307 404.472 228.611 404.824 228.825C405.187 229.038 405.571 229.145 405.976 229.145C406.392 229.145 406.782 229.043 407.144 228.841C407.507 228.627 407.795 228.329 408.008 227.945C408.222 227.55 408.328 227.081 408.328 226.537ZM415.38 223.945V228.233C415.38 228.531 415.449 228.75 415.588 228.889C415.737 229.017 415.983 229.081 416.324 229.081H417.364V230.969H415.956C414.068 230.969 413.124 230.051 413.124 228.217V223.945H412.068V222.105H413.124V219.913H415.38V222.105H417.364V223.945H415.38ZM427.215 226.345C427.215 226.665 427.194 226.953 427.151 227.209H420.671C420.724 227.849 420.948 228.35 421.343 228.713C421.738 229.075 422.223 229.257 422.799 229.257C423.631 229.257 424.223 228.899 424.575 228.185H426.991C426.735 229.038 426.244 229.742 425.519 230.297C424.794 230.841 423.903 231.113 422.847 231.113C421.994 231.113 421.226 230.926 420.543 230.553C419.871 230.169 419.343 229.63 418.959 228.937C418.586 228.243 418.399 227.443 418.399 226.537C418.399 225.619 418.586 224.814 418.959 224.121C419.332 223.427 419.855 222.894 420.527 222.521C421.199 222.147 421.972 221.961 422.847 221.961C423.69 221.961 424.442 222.142 425.103 222.505C425.775 222.867 426.292 223.385 426.655 224.057C427.028 224.718 427.215 225.481 427.215 226.345ZM424.895 225.705C424.884 225.129 424.676 224.67 424.271 224.329C423.866 223.977 423.37 223.801 422.783 223.801C422.228 223.801 421.759 223.971 421.375 224.313C421.002 224.643 420.772 225.107 420.687 225.705H424.895Z" fill="#131316"/>
<path d="M299.765 271.512V266.52H309.749V301.512H304.229V271.512H299.765ZM322.987 294.936L317.179 308.184H313.627L317.035 294.936H322.987ZM325.952 275.16C326.144 272.184 327.28 269.864 329.36 268.2C331.472 266.536 334.16 265.704 337.424 265.704C339.664 265.704 341.6 266.104 343.232 266.904C344.864 267.704 346.096 268.792 346.928 270.168C347.76 271.544 348.176 273.096 348.176 274.824C348.176 276.808 347.648 278.504 346.592 279.912C345.536 281.32 344.272 282.264 342.8 282.744V282.936C344.688 283.512 346.16 284.568 347.216 286.104C348.272 287.608 348.8 289.544 348.8 291.912C348.8 293.8 348.368 295.48 347.504 296.952C346.64 298.424 345.36 299.592 343.664 300.456C341.968 301.288 339.936 301.704 337.568 301.704C334.112 301.704 331.264 300.824 329.024 299.064C326.816 297.272 325.632 294.712 325.472 291.384H330.752C330.88 293.08 331.536 294.472 332.72 295.56C333.904 296.616 335.504 297.144 337.52 297.144C339.472 297.144 340.976 296.616 342.032 295.56C343.088 294.472 343.616 293.08 343.616 291.384C343.616 289.144 342.896 287.56 341.456 286.632C340.048 285.672 337.872 285.192 334.928 285.192H333.68V280.68H334.976C337.568 280.648 339.536 280.216 340.88 279.384C342.256 278.552 342.944 277.24 342.944 275.448C342.944 273.912 342.448 272.696 341.456 271.8C340.464 270.872 339.056 270.408 337.232 270.408C335.44 270.408 334.048 270.872 333.056 271.8C332.064 272.696 331.472 273.816 331.28 275.16H325.952ZM376.108 271.224H360.028V280.776C360.7 279.88 361.692 279.128 363.004 278.52C364.348 277.912 365.772 277.608 367.276 277.608C369.964 277.608 372.14 278.184 373.804 279.336C375.5 280.488 376.7 281.944 377.404 283.704C378.14 285.464 378.508 287.32 378.508 289.272C378.508 291.64 378.044 293.752 377.116 295.608C376.22 297.432 374.86 298.872 373.036 299.928C371.244 300.984 369.036 301.512 366.412 301.512C362.924 301.512 360.124 300.648 358.012 298.92C355.9 297.192 354.636 294.904 354.22 292.056H359.548C359.9 293.56 360.684 294.76 361.9 295.656C363.116 296.52 364.636 296.952 366.46 296.952C368.732 296.952 370.428 296.264 371.548 294.888C372.7 293.512 373.276 291.688 373.276 289.416C373.276 287.112 372.7 285.352 371.548 284.136C370.396 282.888 368.7 282.264 366.46 282.264C364.892 282.264 363.564 282.664 362.476 283.464C361.42 284.232 360.652 285.288 360.172 286.632H354.988V266.424H376.108V271.224Z" fill="#131316"/>
<rect x="397.605" y="273.012" width="49.0208" height="23" rx="4" fill="#FF6D43" fill-opacity="0.3"/>
<g clip-path="url(#clip1_1_1201)">
<path d="M409.141 287.694L414.798 287.694L414.798 282.037L412.677 284.159L409.141 280.623L407.727 282.037L411.262 285.573L409.141 287.694Z" fill="#945F4E"/>
</g>
<path d="M422.006 281.612V280.782H423.886V288.012H422.966V281.612H422.006ZM425.339 287.282C426.186 286.602 426.849 286.046 427.329 285.612C427.809 285.172 428.213 284.716 428.539 284.242C428.873 283.762 429.039 283.292 429.039 282.832C429.039 282.399 428.933 282.059 428.719 281.812C428.513 281.559 428.176 281.432 427.709 281.432C427.256 281.432 426.903 281.576 426.649 281.862C426.403 282.142 426.269 282.519 426.249 282.992H425.369C425.396 282.246 425.623 281.669 426.049 281.262C426.476 280.856 427.026 280.652 427.699 280.652C428.386 280.652 428.929 280.842 429.329 281.222C429.736 281.602 429.939 282.126 429.939 282.792C429.939 283.346 429.773 283.886 429.439 284.412C429.113 284.932 428.739 285.392 428.319 285.792C427.899 286.186 427.363 286.646 426.709 287.172H430.149V287.932H425.339V287.282ZM431.001 282.412C431.001 281.959 431.138 281.599 431.411 281.332C431.685 281.059 432.035 280.922 432.461 280.922C432.888 280.922 433.238 281.059 433.511 281.332C433.785 281.599 433.921 281.959 433.921 282.412C433.921 282.872 433.785 283.239 433.511 283.512C433.238 283.779 432.888 283.912 432.461 283.912C432.035 283.912 431.685 283.779 431.411 283.512C431.138 283.239 431.001 282.872 431.001 282.412ZM436.841 281.032L432.791 288.012H431.891L435.941 281.032H436.841ZM432.461 281.482C432.235 281.482 432.055 281.562 431.921 281.722C431.795 281.876 431.731 282.106 431.731 282.412C431.731 282.719 431.795 282.952 431.921 283.112C432.055 283.272 432.235 283.352 432.461 283.352C432.688 283.352 432.868 283.272 433.001 283.112C433.135 282.946 433.201 282.712 433.201 282.412C433.201 282.106 433.135 281.876 433.001 281.722C432.868 281.562 432.688 281.482 432.461 281.482ZM434.831 286.632C434.831 286.172 434.968 285.809 435.241 285.542C435.515 285.269 435.865 285.132 436.291 285.132C436.718 285.132 437.065 285.269 437.331 285.542C437.605 285.809 437.741 286.172 437.741 286.632C437.741 287.086 437.605 287.449 437.331 287.722C437.065 287.996 436.718 288.132 436.291 288.132C435.865 288.132 435.515 287.999 435.241 287.732C434.968 287.459 434.831 287.092 434.831 286.632ZM436.281 285.702C436.055 285.702 435.875 285.782 435.741 285.942C435.608 286.096 435.541 286.326 435.541 286.632C435.541 286.932 435.608 287.162 435.741 287.322C435.875 287.476 436.055 287.552 436.281 287.552C436.508 287.552 436.688 287.476 436.821 287.322C436.955 287.162 437.021 286.932 437.021 286.632C437.021 286.326 436.955 286.096 436.821 285.942C436.688 285.782 436.508 285.702 436.281 285.702Z" fill="#945F4E"/>
<rect x="0.523438" width="246.387" height="346.767" rx="16" fill="#131316"/>
<rect x="32.9686" y="84.1567" width="40.5575" height="40.5575" rx="8" fill="white"/>
<rect x="32.9686" y="144.993" width="40.5575" height="40.5575" rx="8" fill="#F6FEE0"/>
<rect x="32.9686" y="205.829" width="40.5575" height="40.5575" rx="8" fill="#DAF4FE"/>
<rect x="32.9686" y="266.666" width="40.5575" height="40.5575" rx="8" fill="#DFECF4" fill-opacity="0.2"/>
<rect x="33.4686" y="267.166" width="39.5575" height="39.5575" rx="7.5" stroke="#DFECF4" stroke-opacity="0.5"/>
<g clip-path="url(#clip2_1_1201)">
<path d="M57.3047 230.164H59.3326" stroke="#131316" stroke-width="1.5" stroke-linecap="round" stroke-linejoin="round"/>
<path d="M47.1641 222.052H49.1919" stroke="#131316" stroke-width="1.5" stroke-linecap="round" stroke-linejoin="round"/>
<path d="M53.2466 229.15C54.3666 229.15 55.2745 227.788 55.2745 226.108C55.2745 224.428 54.3666 223.066 53.2466 223.066C52.1267 223.066 51.2188 224.428 51.2188 226.108C51.2188 227.788 52.1267 229.15 53.2466 229.15Z" stroke="#131316" stroke-width="1.5" stroke-miterlimit="10"/>
<path d="M59.3324 217.996H47.1651C44.9252 217.996 43.1094 219.812 43.1094 222.052V230.164C43.1094 232.404 44.9252 234.219 47.1651 234.219H59.3324C61.5723 234.219 63.3881 232.404 63.3881 230.164V222.052C63.3881 219.812 61.5723 217.996 59.3324 217.996Z" stroke="#131316" stroke-width="1.5" stroke-miterlimit="10"/>
</g>
<path d="M41.6728 44.3895V46.1975H38.6968V55.5575H36.4568V46.1975H33.4808V44.3895H41.6728ZM47.2431 55.7015C46.3898 55.7015 45.6218 55.5148 44.9391 55.1415C44.2565 54.7575 43.7178 54.2188 43.3231 53.5255C42.9391 52.8322 42.7471 52.0322 42.7471 51.1255C42.7471 50.2188 42.9445 49.4188 43.3391 48.7255C43.7445 48.0322 44.2938 47.4988 44.9871 47.1255C45.6805 46.7415 46.4538 46.5495 47.3071 46.5495C48.1605 46.5495 48.9338 46.7415 49.6271 47.1255C50.3205 47.4988 50.8645 48.0322 51.2591 48.7255C51.6645 49.4188 51.8671 50.2188 51.8671 51.1255C51.8671 52.0322 51.6591 52.8322 51.2431 53.5255C50.8378 54.2188 50.2831 54.7575 49.5791 55.1415C48.8858 55.5148 48.1071 55.7015 47.2431 55.7015ZM47.2431 53.7495C47.6485 53.7495 48.0271 53.6535 48.3791 53.4615C48.7418 53.2588 49.0298 52.9602 49.2431 52.5655C49.4565 52.1708 49.5631 51.6908 49.5631 51.1255C49.5631 50.2828 49.3391 49.6375 48.8911 49.1895C48.4538 48.7308 47.9151 48.5015 47.2751 48.5015C46.6351 48.5015 46.0965 48.7308 45.6591 49.1895C45.2325 49.6375 45.0191 50.2828 45.0191 51.1255C45.0191 51.9682 45.2271 52.6188 45.6431 53.0775C46.0698 53.5255 46.6031 53.7495 47.2431 53.7495ZM56.7467 51.0935C56.7467 50.1975 56.9227 49.4028 57.2747 48.7095C57.6374 48.0162 58.1281 47.4828 58.7468 47.1095C59.3654 46.7362 60.0534 46.5495 60.8108 46.5495C61.3868 46.5495 61.9361 46.6775 62.4588 46.9335C62.9814 47.1788 63.3974 47.5095 63.7068 47.9255V43.7175H65.9788V55.5575H63.7068V54.2455C63.4294 54.6828 63.0401 55.0348 62.5388 55.3015C62.0374 55.5682 61.4561 55.7015 60.7948 55.7015C60.0481 55.7015 59.3654 55.5095 58.7468 55.1255C58.1281 54.7415 57.6374 54.2028 57.2747 53.5095C56.9227 52.8055 56.7467 52.0002 56.7467 51.0935ZM63.7228 51.1255C63.7228 50.5815 63.6161 50.1175 63.4028 49.7335C63.1894 49.3388 62.9014 49.0402 62.5388 48.8375C62.1761 48.6242 61.7868 48.5175 61.3708 48.5175C60.9548 48.5175 60.5708 48.6188 60.2188 48.8215C59.8668 49.0242 59.5788 49.3228 59.3548 49.7175C59.1414 50.1015 59.0348 50.5602 59.0348 51.0935C59.0348 51.6268 59.1414 52.0962 59.3548 52.5015C59.5788 52.8962 59.8668 53.2002 60.2188 53.4135C60.5814 53.6268 60.9654 53.7335 61.3708 53.7335C61.7868 53.7335 62.1761 53.6322 62.5388 53.4295C62.9014 53.2162 63.1894 52.9175 63.4028 52.5335C63.6161 52.1388 63.7228 51.6695 63.7228 51.1255ZM72.1025 55.7015C71.2492 55.7015 70.4812 55.5148 69.7985 55.1415C69.1158 54.7575 68.5772 54.2188 68.1825 53.5255C67.7985 52.8322 67.6065 52.0322 67.6065 51.1255C67.6065 50.2188 67.8038 49.4188 68.1985 48.7255C68.6038 48.0322 69.1532 47.4988 69.8465 47.1255C70.5398 46.7415 71.3132 46.5495 72.1665 46.5495C73.0198 46.5495 73.7932 46.7415 74.4865 47.1255C75.1798 47.4988 75.7238 48.0322 76.1185 48.7255C76.5238 49.4188 76.7265 50.2188 76.7265 51.1255C76.7265 52.0322 76.5185 52.8322 76.1025 53.5255C75.6972 54.2188 75.1425 54.7575 74.4385 55.1415C73.7452 55.5148 72.9665 55.7015 72.1025 55.7015ZM72.1025 53.7495C72.5078 53.7495 72.8865 53.6535 73.2385 53.4615C73.6012 53.2588 73.8892 52.9602 74.1025 52.5655C74.3158 52.1708 74.4225 51.6908 74.4225 51.1255C74.4225 50.2828 74.1985 49.6375 73.7505 49.1895C73.3132 48.7308 72.7745 48.5015 72.1345 48.5015C71.4945 48.5015 70.9558 48.7308 70.5185 49.1895C70.0918 49.6375 69.8785 50.2828 69.8785 51.1255C69.8785 51.9682 70.0865 52.6188 70.5025 53.0775C70.9292 53.5255 71.4625 53.7495 72.1025 53.7495ZM84.4221 43.7175V55.5575H82.1821V43.7175H84.4221ZM87.7713 45.6375C87.3766 45.6375 87.0459 45.5148 86.7793 45.2695C86.5233 45.0135 86.3953 44.6988 86.3953 44.3255C86.3953 43.9522 86.5233 43.6428 86.7793 43.3975C87.0459 43.1415 87.3766 43.0135 87.7713 43.0135C88.1659 43.0135 88.4913 43.1415 88.7473 43.3975C89.0139 43.6428 89.1473 43.9522 89.1473 44.3255C89.1473 44.6988 89.0139 45.0135 88.7473 45.2695C88.4913 45.5148 88.1659 45.6375 87.7713 45.6375ZM88.8753 46.6935V55.5575H86.6353V46.6935H88.8753ZM94.4804 55.7015C93.755 55.7015 93.1044 55.5735 92.5284 55.3175C91.9524 55.0508 91.4937 54.6935 91.1524 54.2455C90.8217 53.7975 90.6404 53.3015 90.6084 52.7575H92.8644C92.907 53.0988 93.0724 53.3815 93.3604 53.6055C93.659 53.8295 94.027 53.9415 94.4644 53.9415C94.891 53.9415 95.2217 53.8562 95.4564 53.6855C95.7017 53.5148 95.8244 53.2962 95.8244 53.0295C95.8244 52.7415 95.675 52.5282 95.3764 52.3895C95.0884 52.2402 94.6244 52.0802 93.9844 51.9095C93.323 51.7495 92.779 51.5842 92.3524 51.4135C91.9364 51.2428 91.5737 50.9815 91.2644 50.6295C90.9657 50.2775 90.8164 49.8028 90.8164 49.2055C90.8164 48.7148 90.955 48.2668 91.2324 47.8615C91.5204 47.4562 91.9257 47.1362 92.4484 46.9015C92.9817 46.6668 93.6057 46.5495 94.3204 46.5495C95.3764 46.5495 96.219 46.8162 96.8484 47.3495C97.4777 47.8722 97.8244 48.5815 97.8884 49.4775H95.7444C95.7124 49.1255 95.563 48.8482 95.2964 48.6455C95.0404 48.4322 94.6937 48.3255 94.2564 48.3255C93.851 48.3255 93.5364 48.4002 93.3124 48.5495C93.099 48.6988 92.9924 48.9068 92.9924 49.1735C92.9924 49.4722 93.1417 49.7015 93.4404 49.8615C93.739 50.0108 94.203 50.1655 94.8324 50.3255C95.4724 50.4855 96.0004 50.6508 96.4164 50.8215C96.8324 50.9922 97.1897 51.2588 97.4884 51.6215C97.7977 51.9735 97.9577 52.4428 97.9684 53.0295C97.9684 53.5415 97.8244 54.0002 97.5364 54.4055C97.259 54.8108 96.8537 55.1308 96.3204 55.3655C95.7977 55.5895 95.1844 55.7015 94.4804 55.7015ZM102.415 48.5335V52.8215C102.415 53.1202 102.484 53.3388 102.623 53.4775C102.772 53.6055 103.018 53.6695 103.359 53.6695H104.399V55.5575H102.991C101.103 55.5575 100.159 54.6402 100.159 52.8055V48.5335H99.1031V46.6935H100.159V44.5015H102.415V46.6935H104.399V48.5335H102.415Z" fill="white"/>
<path d="M87.5814 93.2764V100.226H86.4414V93.2764H87.5814ZM95.7481 94.6264C96.1815 94.6264 96.5681 94.7164 96.9081 94.8964C97.2548 95.0764 97.5248 95.3431 97.7181 95.6964C97.9181 96.0498 98.0181 96.4764 98.0181 96.9764V100.226H96.8881V97.1464C96.8881 96.6531 96.7648 96.2764 96.5181 96.0164C96.2715 95.7498 95.9348 95.6164 95.5081 95.6164C95.0815 95.6164 94.7415 95.7498 94.4881 96.0164C94.2415 96.2764 94.1181 96.6531 94.1181 97.1464V100.226H92.9881V97.1464C92.9881 96.6531 92.8648 96.2764 92.6181 96.0164C92.3715 95.7498 92.0348 95.6164 91.6081 95.6164C91.1815 95.6164 90.8415 95.7498 90.5881 96.0164C90.3415 96.2764 90.2181 96.6531 90.2181 97.1464V100.226H89.0781V94.7164H90.2181V95.3464C90.4048 95.1198 90.6415 94.9431 90.9281 94.8164C91.2148 94.6898 91.5215 94.6264 91.8481 94.6264C92.2881 94.6264 92.6815 94.7198 93.0281 94.9064C93.3748 95.0931 93.6415 95.3631 93.8281 95.7164C93.9948 95.3831 94.2548 95.1198 94.6081 94.9264C94.9615 94.7264 95.3415 94.6264 95.7481 94.6264ZM100.609 95.5264C100.802 95.2731 101.065 95.0598 101.399 94.8864C101.732 94.7131 102.109 94.6264 102.529 94.6264C103.009 94.6264 103.445 94.7464 103.839 94.9864C104.239 95.2198 104.552 95.5498 104.779 95.9764C105.005 96.4031 105.119 96.8931 105.119 97.4464C105.119 97.9998 105.005 98.4964 104.779 98.9364C104.552 99.3698 104.239 99.7098 103.839 99.9564C103.445 100.196 103.009 100.316 102.529 100.316C102.109 100.316 101.735 100.233 101.409 100.066C101.082 99.8931 100.815 99.6798 100.609 99.4264V102.846H99.4688V94.7164H100.609V95.5264ZM103.959 97.4464C103.959 97.0664 103.879 96.7398 103.719 96.4664C103.565 96.1864 103.359 95.9764 103.099 95.8364C102.845 95.6898 102.572 95.6164 102.279 95.6164C101.992 95.6164 101.719 95.6898 101.459 95.8364C101.205 95.9831 100.999 96.1964 100.839 96.4764C100.685 96.7564 100.609 97.0864 100.609 97.4664C100.609 97.8464 100.685 98.1798 100.839 98.4664C100.999 98.7464 101.205 98.9598 101.459 99.1064C101.719 99.2531 101.992 99.3264 102.279 99.3264C102.572 99.3264 102.845 99.2531 103.099 99.1064C103.359 98.9531 103.565 98.7331 103.719 98.4464C103.879 98.1598 103.959 97.8264 103.959 97.4464ZM108.636 100.316C108.116 100.316 107.646 100.2 107.226 99.9664C106.806 99.7264 106.476 99.3931 106.236 98.9664C105.996 98.5331 105.876 98.0331 105.876 97.4664C105.876 96.9064 105.999 96.4098 106.246 95.9764C106.493 95.5431 106.829 95.2098 107.256 94.9764C107.683 94.7431 108.159 94.6264 108.686 94.6264C109.213 94.6264 109.689 94.7431 110.116 94.9764C110.543 95.2098 110.879 95.5431 111.126 95.9764C111.373 96.4098 111.496 96.9064 111.496 97.4664C111.496 98.0264 111.369 98.5231 111.116 98.9564C110.863 99.3898 110.516 99.7264 110.076 99.9664C109.643 100.2 109.163 100.316 108.636 100.316ZM108.636 99.3264C108.929 99.3264 109.203 99.2564 109.456 99.1164C109.716 98.9764 109.926 98.7664 110.086 98.4864C110.246 98.2064 110.326 97.8664 110.326 97.4664C110.326 97.0664 110.249 96.7298 110.096 96.4564C109.943 96.1764 109.739 95.9664 109.486 95.8264C109.233 95.6864 108.959 95.6164 108.666 95.6164C108.373 95.6164 108.099 95.6864 107.846 95.8264C107.599 95.9664 107.403 96.1764 107.256 96.4564C107.109 96.7298 107.036 97.0664 107.036 97.4664C107.036 98.0598 107.186 98.5198 107.486 98.8464C107.793 99.1664 108.176 99.3264 108.636 99.3264ZM113.763 95.5164C113.93 95.2364 114.15 95.0198 114.423 94.8664C114.703 94.7064 115.033 94.6264 115.413 94.6264V95.8064H115.123C114.676 95.8064 114.336 95.9198 114.103 96.1464C113.876 96.3731 113.763 96.7664 113.763 97.3264V100.226H112.623V94.7164H113.763V95.5164ZM117.791 95.6464V98.6964C117.791 98.9031 117.838 99.0531 117.931 99.1464C118.031 99.2331 118.198 99.2764 118.431 99.2764H119.131V100.226H118.231C117.718 100.226 117.324 100.106 117.051 99.8664C116.778 99.6264 116.641 99.2364 116.641 98.6964V95.6464H115.991V94.7164H116.641V93.3464H117.791V94.7164H119.131V95.6464H117.791ZM122.399 97.4464C122.399 96.8931 122.513 96.4031 122.739 95.9764C122.973 95.5498 123.286 95.2198 123.679 94.9864C124.079 94.7464 124.523 94.6264 125.009 94.6264C125.369 94.6264 125.723 94.7064 126.069 94.8664C126.423 95.0198 126.703 95.2264 126.909 95.4864V92.8264H128.059V100.226H126.909V99.3964C126.723 99.6631 126.463 99.8831 126.129 100.056C125.803 100.23 125.426 100.316 124.999 100.316C124.519 100.316 124.079 100.196 123.679 99.9564C123.286 99.7098 122.973 99.3698 122.739 98.9364C122.513 98.4964 122.399 97.9998 122.399 97.4464ZM126.909 97.4664C126.909 97.0864 126.829 96.7564 126.669 96.4764C126.516 96.1964 126.313 95.9831 126.059 95.8364C125.806 95.6898 125.533 95.6164 125.239 95.6164C124.946 95.6164 124.673 95.6898 124.419 95.8364C124.166 95.9764 123.959 96.1864 123.799 96.4664C123.646 96.7398 123.569 97.0664 123.569 97.4464C123.569 97.8264 123.646 98.1598 123.799 98.4464C123.959 98.7331 124.166 98.9531 124.419 99.1064C124.679 99.2531 124.953 99.3264 125.239 99.3264C125.533 99.3264 125.806 99.2531 126.059 99.1064C126.313 98.9598 126.516 98.7464 126.669 98.4664C126.829 98.1798 126.909 97.8464 126.909 97.4664ZM129.177 97.4464C129.177 96.8931 129.29 96.4031 129.517 95.9764C129.75 95.5498 130.063 95.2198 130.457 94.9864C130.857 94.7464 131.297 94.6264 131.777 94.6264C132.21 94.6264 132.587 94.7131 132.907 94.8864C133.233 95.0531 133.493 95.2631 133.687 95.5164V94.7164H134.837V100.226H133.687V99.4064C133.493 99.6664 133.23 99.8831 132.897 100.056C132.563 100.23 132.183 100.316 131.757 100.316C131.283 100.316 130.85 100.196 130.457 99.9564C130.063 99.7098 129.75 99.3698 129.517 98.9364C129.29 98.4964 129.177 97.9998 129.177 97.4464ZM133.687 97.4664C133.687 97.0864 133.607 96.7564 133.447 96.4764C133.293 96.1964 133.09 95.9831 132.837 95.8364C132.583 95.6898 132.31 95.6164 132.017 95.6164C131.723 95.6164 131.45 95.6898 131.197 95.8364C130.943 95.9764 130.737 96.1864 130.577 96.4664C130.423 96.7398 130.347 97.0664 130.347 97.4464C130.347 97.8264 130.423 98.1598 130.577 98.4464C130.737 98.7331 130.943 98.9531 131.197 99.1064C131.457 99.2531 131.73 99.3264 132.017 99.3264C132.31 99.3264 132.583 99.2531 132.837 99.1064C133.09 98.9598 133.293 98.7464 133.447 98.4664C133.607 98.1798 133.687 97.8464 133.687 97.4664ZM137.664 95.6464V98.6964C137.664 98.9031 137.711 99.0531 137.804 99.1464C137.904 99.2331 138.071 99.2764 138.304 99.2764H139.004V100.226H138.104C137.591 100.226 137.197 100.106 136.924 99.8664C136.651 99.6264 136.514 99.2364 136.514 98.6964V95.6464H135.864V94.7164H136.514V93.3464H137.664V94.7164H139.004V95.6464H137.664ZM139.675 97.4464C139.675 96.8931 139.788 96.4031 140.015 95.9764C140.248 95.5498 140.561 95.2198 140.955 94.9864C141.355 94.7464 141.795 94.6264 142.275 94.6264C142.708 94.6264 143.085 94.7131 143.405 94.8864C143.731 95.0531 143.991 95.2631 144.185 95.5164V94.7164H145.335V100.226H144.185V99.4064C143.991 99.6664 143.728 99.8831 143.395 100.056C143.061 100.23 142.681 100.316 142.255 100.316C141.781 100.316 141.348 100.196 140.955 99.9564C140.561 99.7098 140.248 99.3698 140.015 98.9364C139.788 98.4964 139.675 97.9998 139.675 97.4464ZM144.185 97.4664C144.185 97.0864 144.105 96.7564 143.945 96.4764C143.791 96.1964 143.588 95.9831 143.335 95.8364C143.081 95.6898 142.808 95.6164 142.515 95.6164C142.221 95.6164 141.948 95.6898 141.695 95.8364C141.441 95.9764 141.235 96.1864 141.075 96.4664C140.921 96.7398 140.845 97.0664 140.845 97.4464C140.845 97.8264 140.921 98.1598 141.075 98.4464C141.235 98.7331 141.441 98.9531 141.695 99.1064C141.955 99.2531 142.228 99.3264 142.515 99.3264C142.808 99.3264 143.081 99.2531 143.335 99.1064C143.588 98.9598 143.791 98.7464 143.945 98.4664C144.105 98.1798 144.185 97.8464 144.185 97.4664Z" fill="white"/>
<path d="M90.0354 113.547C90.0354 114.011 89.8754 114.398 89.5554 114.707C89.2407 115.011 88.7581 115.163 88.1074 115.163H87.0354V117.491H86.3074V111.915H88.1074C88.7367 111.915 89.2141 112.067 89.5394 112.371C89.8701 112.675 90.0354 113.067 90.0354 113.547ZM88.1074 114.563C88.5127 114.563 88.8114 114.475 89.0034 114.299C89.1954 114.123 89.2914 113.873 89.2914 113.547C89.2914 112.859 88.8967 112.515 88.1074 112.515H87.0354V114.563H88.1074ZM90.6682 115.283C90.6682 114.835 90.7589 114.443 90.9402 114.107C91.1216 113.766 91.3696 113.502 91.6842 113.315C92.0042 113.129 92.3589 113.035 92.7482 113.035C93.1322 113.035 93.4656 113.118 93.7482 113.283C94.0309 113.449 94.2416 113.657 94.3802 113.907V113.107H95.1162V117.491H94.3802V116.675C94.2362 116.931 94.0202 117.145 93.7322 117.315C93.4496 117.481 93.1189 117.563 92.7402 117.563C92.3509 117.563 91.9989 117.467 91.6842 117.275C91.3696 117.083 91.1216 116.814 90.9402 116.467C90.7589 116.121 90.6682 115.726 90.6682 115.283ZM94.3802 115.291C94.3802 114.961 94.3136 114.673 94.1802 114.427C94.0469 114.182 93.8656 113.995 93.6362 113.867C93.4122 113.734 93.1642 113.667 92.8922 113.667C92.6202 113.667 92.3722 113.731 92.1482 113.859C91.9242 113.987 91.7456 114.174 91.6122 114.419C91.4789 114.665 91.4122 114.953 91.4122 115.283C91.4122 115.619 91.4789 115.913 91.6122 116.163C91.7456 116.409 91.9242 116.598 92.1482 116.731C92.3722 116.859 92.6202 116.923 92.8922 116.923C93.1642 116.923 93.4122 116.859 93.6362 116.731C93.8656 116.598 94.0469 116.409 94.1802 116.163C94.3136 115.913 94.3802 115.622 94.3802 115.291ZM97.8985 117.563C97.5625 117.563 97.2611 117.507 96.9945 117.395C96.7278 117.278 96.5171 117.118 96.3625 116.915C96.2078 116.707 96.1225 116.47 96.1065 116.203H96.8585C96.8798 116.422 96.9811 116.601 97.1625 116.739C97.3491 116.878 97.5918 116.947 97.8905 116.947C98.1678 116.947 98.3865 116.886 98.5465 116.763C98.7065 116.641 98.7865 116.486 98.7865 116.299C98.7865 116.107 98.7011 115.966 98.5305 115.875C98.3598 115.779 98.0958 115.686 97.7385 115.595C97.4131 115.51 97.1465 115.425 96.9385 115.339C96.7358 115.249 96.5598 115.118 96.4105 114.947C96.2665 114.771 96.1945 114.542 96.1945 114.259C96.1945 114.035 96.2611 113.83 96.3945 113.643C96.5278 113.457 96.7171 113.31 96.9625 113.203C97.2078 113.091 97.4878 113.035 97.8025 113.035C98.2878 113.035 98.6798 113.158 98.9785 113.403C99.2771 113.649 99.4371 113.985 99.4585 114.411H98.7305C98.7145 114.182 98.6211 113.998 98.4505 113.859C98.2851 113.721 98.0611 113.651 97.7785 113.651C97.5171 113.651 97.3091 113.707 97.1545 113.819C96.9998 113.931 96.9225 114.078 96.9225 114.259C96.9225 114.403 96.9678 114.523 97.0585 114.619C97.1545 114.71 97.2718 114.785 97.4105 114.843C97.5545 114.897 97.7518 114.958 98.0025 115.027C98.3171 115.113 98.5731 115.198 98.7705 115.283C98.9678 115.363 99.1358 115.486 99.2745 115.651C99.4185 115.817 99.4931 116.033 99.4985 116.299C99.4985 116.539 99.4318 116.755 99.2985 116.947C99.1651 117.139 98.9758 117.291 98.7305 117.403C98.4905 117.51 98.2131 117.563 97.8985 117.563ZM101.414 113.707V116.291C101.414 116.505 101.459 116.657 101.55 116.747C101.641 116.833 101.798 116.875 102.022 116.875H102.558V117.491H101.902C101.497 117.491 101.193 117.398 100.99 117.211C100.787 117.025 100.686 116.718 100.686 116.291V113.707H100.118V113.107H100.686V112.003H101.414V113.107H102.558V113.707H101.414ZM109.013 112.275L106.789 117.491H106.053L108.309 112.347H105.221V111.723H109.013V112.275ZM111.801 115.283C111.801 114.835 111.892 114.443 112.073 114.107C112.254 113.766 112.502 113.502 112.817 113.315C113.137 113.129 113.494 113.035 113.889 113.035C114.23 113.035 114.548 113.115 114.841 113.275C115.134 113.43 115.358 113.635 115.513 113.891V111.571H116.249V117.491H115.513V116.667C115.369 116.929 115.156 117.145 114.873 117.315C114.59 117.481 114.26 117.563 113.881 117.563C113.492 117.563 113.137 117.467 112.817 117.275C112.502 117.083 112.254 116.814 112.073 116.467C111.892 116.121 111.801 115.726 111.801 115.283ZM115.513 115.291C115.513 114.961 115.446 114.673 115.313 114.427C115.18 114.182 114.998 113.995 114.769 113.867C114.545 113.734 114.297 113.667 114.025 113.667C113.753 113.667 113.505 113.731 113.281 113.859C113.057 113.987 112.878 114.174 112.745 114.419C112.612 114.665 112.545 114.953 112.545 115.283C112.545 115.619 112.612 115.913 112.745 116.163C112.878 116.409 113.057 116.598 113.281 116.731C113.505 116.859 113.753 116.923 114.025 116.923C114.297 116.923 114.545 116.859 114.769 116.731C114.998 116.598 115.18 116.409 115.313 116.163C115.446 115.913 115.513 115.622 115.513 115.291ZM117.207 115.283C117.207 114.835 117.298 114.443 117.479 114.107C117.661 113.766 117.909 113.502 118.223 113.315C118.543 113.129 118.898 113.035 119.287 113.035C119.671 113.035 120.005 113.118 120.287 113.283C120.57 113.449 120.781 113.657 120.919 113.907V113.107H121.655V117.491H120.919V116.675C120.775 116.931 120.559 117.145 120.271 117.315C119.989 117.481 119.658 117.563 119.279 117.563C118.89 117.563 118.538 117.467 118.223 117.275C117.909 117.083 117.661 116.814 117.479 116.467C117.298 116.121 117.207 115.726 117.207 115.283ZM120.919 115.291C120.919 114.961 120.853 114.673 120.719 114.427C120.586 114.182 120.405 113.995 120.175 113.867C119.951 113.734 119.703 113.667 119.431 113.667C119.159 113.667 118.911 113.731 118.687 113.859C118.463 113.987 118.285 114.174 118.151 114.419C118.018 114.665 117.951 114.953 117.951 115.283C117.951 115.619 118.018 115.913 118.151 116.163C118.285 116.409 118.463 116.598 118.687 116.731C118.911 116.859 119.159 116.923 119.431 116.923C119.703 116.923 119.951 116.859 120.175 116.731C120.405 116.598 120.586 116.409 120.719 116.163C120.853 115.913 120.919 115.622 120.919 115.291ZM126.662 113.107L124.022 119.555H123.27L124.134 117.443L122.366 113.107H123.174L124.55 116.659L125.91 113.107H126.662ZM128.945 117.563C128.609 117.563 128.308 117.507 128.041 117.395C127.775 117.278 127.564 117.118 127.409 116.915C127.255 116.707 127.169 116.47 127.153 116.203H127.905C127.927 116.422 128.028 116.601 128.209 116.739C128.396 116.878 128.639 116.947 128.937 116.947C129.215 116.947 129.433 116.886 129.593 116.763C129.753 116.641 129.833 116.486 129.833 116.299C129.833 116.107 129.748 115.966 129.577 115.875C129.407 115.779 129.143 115.686 128.785 115.595C128.46 115.51 128.193 115.425 127.985 115.339C127.783 115.249 127.607 115.118 127.457 114.947C127.313 114.771 127.241 114.542 127.241 114.259C127.241 114.035 127.308 113.83 127.441 113.643C127.575 113.457 127.764 113.31 128.009 113.203C128.255 113.091 128.535 113.035 128.849 113.035C129.335 113.035 129.727 113.158 130.025 113.403C130.324 113.649 130.484 113.985 130.505 114.411H129.777C129.761 114.182 129.668 113.998 129.497 113.859C129.332 113.721 129.108 113.651 128.825 113.651C128.564 113.651 128.356 113.707 128.201 113.819C128.047 113.931 127.969 114.078 127.969 114.259C127.969 114.403 128.015 114.523 128.105 114.619C128.201 114.71 128.319 114.785 128.457 114.843C128.601 114.897 128.799 114.958 129.049 115.027C129.364 115.113 129.62 115.198 129.817 115.283C130.015 115.363 130.183 115.486 130.321 115.651C130.465 115.817 130.54 116.033 130.545 116.299C130.545 116.539 130.479 116.755 130.345 116.947C130.212 117.139 130.023 117.291 129.777 117.403C129.537 117.51 129.26 117.563 128.945 117.563Z" fill="#DBEDF8"/>
<path d="M90.5314 154.113V155.043H87.5814V157.093H89.8814V158.023H87.5814V161.063H86.4414V154.113H90.5314ZM93.9779 161.153C93.4579 161.153 92.9879 161.036 92.5679 160.803C92.1479 160.563 91.8179 160.229 91.5779 159.803C91.3379 159.369 91.2179 158.869 91.2179 158.303C91.2179 157.743 91.3412 157.246 91.5879 156.813C91.8346 156.379 92.1712 156.046 92.5979 155.813C93.0246 155.579 93.5012 155.463 94.0279 155.463C94.5546 155.463 95.0312 155.579 95.4579 155.813C95.8846 156.046 96.2212 156.379 96.4679 156.813C96.7146 157.246 96.8379 157.743 96.8379 158.303C96.8379 158.863 96.7112 159.359 96.4579 159.793C96.2046 160.226 95.8579 160.563 95.4179 160.803C94.9846 161.036 94.5046 161.153 93.9779 161.153ZM93.9779 160.163C94.2712 160.163 94.5446 160.093 94.7979 159.953C95.0579 159.813 95.2679 159.603 95.4279 159.323C95.5879 159.043 95.6679 158.703 95.6679 158.303C95.6679 157.903 95.5912 157.566 95.4379 157.293C95.2846 157.013 95.0812 156.803 94.8279 156.663C94.5746 156.523 94.3012 156.453 94.0079 156.453C93.7146 156.453 93.4412 156.523 93.1879 156.663C92.9412 156.803 92.7446 157.013 92.5979 157.293C92.4512 157.566 92.3779 157.903 92.3779 158.303C92.3779 158.896 92.5279 159.356 92.8279 159.683C93.1346 160.003 93.5179 160.163 93.9779 160.163ZM99.1048 153.663V161.063H97.9648V153.663H99.1048ZM101.742 153.663V161.063H100.602V153.663H101.742ZM105.628 161.153C105.108 161.153 104.638 161.036 104.218 160.803C103.798 160.563 103.468 160.229 103.228 159.803C102.988 159.369 102.868 158.869 102.868 158.303C102.868 157.743 102.992 157.246 103.238 156.813C103.485 156.379 103.822 156.046 104.248 155.813C104.675 155.579 105.152 155.463 105.678 155.463C106.205 155.463 106.682 155.579 107.108 155.813C107.535 156.046 107.872 156.379 108.118 156.813C108.365 157.246 108.488 157.743 108.488 158.303C108.488 158.863 108.362 159.359 108.108 159.793C107.855 160.226 107.508 160.563 107.068 160.803C106.635 161.036 106.155 161.153 105.628 161.153ZM105.628 160.163C105.922 160.163 106.195 160.093 106.448 159.953C106.708 159.813 106.918 159.603 107.078 159.323C107.238 159.043 107.318 158.703 107.318 158.303C107.318 157.903 107.242 157.566 107.088 157.293C106.935 157.013 106.732 156.803 106.478 156.663C106.225 156.523 105.952 156.453 105.658 156.453C105.365 156.453 105.092 156.523 104.838 156.663C104.592 156.803 104.395 157.013 104.248 157.293C104.102 157.566 104.028 157.903 104.028 158.303C104.028 158.896 104.178 159.356 104.478 159.683C104.785 160.003 105.168 160.163 105.628 160.163ZM117.015 155.553L115.305 161.063H114.105L112.995 156.993L111.885 161.063H110.685L108.965 155.553H110.125L111.275 159.983L112.445 155.553H113.635L114.755 159.963L115.895 155.553H117.015ZM125.455 155.553V161.063H124.315V160.413C124.135 160.639 123.898 160.819 123.605 160.953C123.318 161.079 123.012 161.143 122.685 161.143C122.252 161.143 121.862 161.053 121.515 160.873C121.175 160.693 120.905 160.426 120.705 160.073C120.512 159.719 120.415 159.293 120.415 158.793V155.553H121.545V158.623C121.545 159.116 121.668 159.496 121.915 159.763C122.162 160.023 122.498 160.153 122.925 160.153C123.352 160.153 123.688 160.023 123.935 159.763C124.188 159.496 124.315 159.116 124.315 158.623V155.553H125.455ZM128.099 156.363C128.292 156.109 128.556 155.896 128.889 155.723C129.222 155.549 129.599 155.463 130.019 155.463C130.499 155.463 130.936 155.583 131.329 155.823C131.729 156.056 132.042 156.386 132.269 156.813C132.496 157.239 132.609 157.729 132.609 158.283C132.609 158.836 132.496 159.333 132.269 159.773C132.042 160.206 131.729 160.546 131.329 160.793C130.936 161.033 130.499 161.153 130.019 161.153C129.599 161.153 129.226 161.069 128.899 160.903C128.572 160.729 128.306 160.516 128.099 160.263V163.683H126.959V155.553H128.099V156.363ZM131.449 158.283C131.449 157.903 131.369 157.576 131.209 157.303C131.056 157.023 130.849 156.813 130.589 156.673C130.336 156.526 130.062 156.453 129.769 156.453C129.482 156.453 129.209 156.526 128.949 156.673C128.696 156.819 128.489 157.033 128.329 157.313C128.176 157.593 128.099 157.923 128.099 158.303C128.099 158.683 128.176 159.016 128.329 159.303C128.489 159.583 128.696 159.796 128.949 159.943C129.209 160.089 129.482 160.163 129.769 160.163C130.062 160.163 130.336 160.089 130.589 159.943C130.849 159.789 131.056 159.569 131.209 159.283C131.369 158.996 131.449 158.663 131.449 158.283ZM143.734 155.553L142.024 161.063H140.824L139.714 156.993L138.604 161.063H137.404L135.684 155.553H136.844L137.994 159.983L139.164 155.553H140.354L141.474 159.963L142.614 155.553H143.734ZM145.166 154.823C144.959 154.823 144.786 154.753 144.646 154.613C144.506 154.473 144.436 154.299 144.436 154.093C144.436 153.886 144.506 153.713 144.646 153.573C144.786 153.433 144.959 153.363 145.166 153.363C145.366 153.363 145.536 153.433 145.676 153.573C145.816 153.713 145.886 153.886 145.886 154.093C145.886 154.299 145.816 154.473 145.676 154.613C145.536 154.753 145.366 154.823 145.166 154.823ZM145.726 155.553V161.063H144.586V155.553H145.726ZM148.553 156.483V159.533C148.553 159.739 148.599 159.889 148.693 159.983C148.793 160.069 148.959 160.113 149.193 160.113H149.893V161.063H148.993C148.479 161.063 148.086 160.943 147.813 160.703C147.539 160.463 147.403 160.073 147.403 159.533V156.483H146.753V155.553H147.403V154.183H148.553V155.553H149.893V156.483H148.553ZM153.793 155.463C154.213 155.463 154.587 155.553 154.913 155.733C155.247 155.913 155.507 156.179 155.693 156.533C155.887 156.886 155.983 157.313 155.983 157.813V161.063H154.853V157.983C154.853 157.489 154.73 157.113 154.483 156.853C154.237 156.586 153.9 156.453 153.473 156.453C153.047 156.453 152.707 156.586 152.453 156.853C152.207 157.113 152.083 157.489 152.083 157.983V161.063H150.943V153.663H152.083V156.193C152.277 155.959 152.52 155.779 152.813 155.653C153.113 155.526 153.44 155.463 153.793 155.463ZM161.365 156.483V159.533C161.365 159.739 161.412 159.889 161.505 159.983C161.605 160.069 161.772 160.113 162.005 160.113H162.705V161.063H161.805C161.292 161.063 160.898 160.943 160.625 160.703C160.352 160.463 160.215 160.073 160.215 159.533V156.483H159.565V155.553H160.215V154.183H161.365V155.553H162.705V156.483H161.365ZM166.606 155.463C167.026 155.463 167.399 155.553 167.726 155.733C168.059 155.913 168.319 156.179 168.506 156.533C168.699 156.886 168.796 157.313 168.796 157.813V161.063H167.666V157.983C167.666 157.489 167.543 157.113 167.296 156.853C167.049 156.586 166.713 156.453 166.286 156.453C165.859 156.453 165.519 156.586 165.266 156.853C165.019 157.113 164.896 157.489 164.896 157.983V161.063H163.756V153.663H164.896V156.193C165.089 155.959 165.333 155.779 165.626 155.653C165.926 155.526 166.253 155.463 166.606 155.463ZM175.3 158.173C175.3 158.379 175.287 158.566 175.26 158.733H171.05C171.083 159.173 171.247 159.526 171.54 159.793C171.833 160.059 172.193 160.193 172.62 160.193C173.233 160.193 173.667 159.936 173.92 159.423H175.15C174.983 159.929 174.68 160.346 174.24 160.673C173.807 160.993 173.267 161.153 172.62 161.153C172.093 161.153 171.62 161.036 171.2 160.803C170.787 160.563 170.46 160.229 170.22 159.803C169.987 159.369 169.87 158.869 169.87 158.303C169.87 157.736 169.983 157.239 170.21 156.813C170.443 156.379 170.767 156.046 171.18 155.813C171.6 155.579 172.08 155.463 172.62 155.463C173.14 155.463 173.603 155.576 174.01 155.803C174.417 156.029 174.733 156.349 174.96 156.763C175.187 157.169 175.3 157.639 175.3 158.173ZM174.11 157.813C174.103 157.393 173.953 157.056 173.66 156.803C173.367 156.549 173.003 156.423 172.57 156.423C172.177 156.423 171.84 156.549 171.56 156.803C171.28 157.049 171.113 157.386 171.06 157.813H174.11ZM178.64 158.303C178.64 157.736 178.753 157.239 178.98 156.813C179.213 156.379 179.533 156.046 179.94 155.813C180.346 155.579 180.813 155.463 181.34 155.463C182.006 155.463 182.556 155.623 182.99 155.943C183.43 156.256 183.726 156.706 183.88 157.293H182.65C182.55 157.019 182.39 156.806 182.17 156.653C181.95 156.499 181.673 156.423 181.34 156.423C180.873 156.423 180.5 156.589 180.22 156.923C179.946 157.249 179.81 157.709 179.81 158.303C179.81 158.896 179.946 159.359 180.22 159.693C180.5 160.026 180.873 160.193 181.34 160.193C182 160.193 182.436 159.903 182.65 159.323H183.88C183.72 159.883 183.42 160.329 182.98 160.663C182.54 160.989 181.993 161.153 181.34 161.153C180.813 161.153 180.346 161.036 179.94 160.803C179.533 160.563 179.213 160.229 178.98 159.803C178.753 159.369 178.64 158.869 178.64 158.303ZM186.156 153.663V161.063H185.016V153.663H186.156ZM188.232 154.823C188.026 154.823 187.852 154.753 187.712 154.613C187.572 154.473 187.502 154.299 187.502 154.093C187.502 153.886 187.572 153.713 187.712 153.573C187.852 153.433 188.026 153.363 188.232 153.363C188.432 153.363 188.602 153.433 188.742 153.573C188.882 153.713 188.952 153.886 188.952 154.093C188.952 154.299 188.882 154.473 188.742 154.613C188.602 154.753 188.432 154.823 188.232 154.823ZM188.792 155.553V161.063H187.652V155.553H188.792ZM195.339 158.173C195.339 158.379 195.326 158.566 195.299 158.733H191.089C191.122 159.173 191.286 159.526 191.579 159.793C191.872 160.059 192.232 160.193 192.659 160.193C193.272 160.193 193.706 159.936 193.959 159.423H195.189C195.022 159.929 194.719 160.346 194.279 160.673C193.846 160.993 193.306 161.153 192.659 161.153C192.132 161.153 191.659 161.036 191.239 160.803C190.826 160.563 190.499 160.229 190.259 159.803C190.026 159.369 189.909 158.869 189.909 158.303C189.909 157.736 190.022 157.239 190.249 156.813C190.482 156.379 190.806 156.046 191.219 155.813C191.639 155.579 192.119 155.463 192.659 155.463C193.179 155.463 193.642 155.576 194.049 155.803C194.456 156.029 194.772 156.349 194.999 156.763C195.226 157.169 195.339 157.639 195.339 158.173ZM194.149 157.813C194.142 157.393 193.992 157.056 193.699 156.803C193.406 156.549 193.042 156.423 192.609 156.423C192.216 156.423 191.879 156.549 191.599 156.803C191.319 157.049 191.152 157.386 191.099 157.813H194.149ZM199.241 155.463C199.674 155.463 200.061 155.553 200.401 155.733C200.748 155.913 201.018 156.179 201.211 156.533C201.404 156.886 201.501 157.313 201.501 157.813V161.063H200.371V157.983C200.371 157.489 200.248 157.113 200.001 156.853C199.754 156.586 199.418 156.453 198.991 156.453C198.564 156.453 198.224 156.586 197.971 156.853C197.724 157.113 197.601 157.489 197.601 157.983V161.063H196.461V155.553H197.601V156.183C197.788 155.956 198.024 155.779 198.311 155.653C198.604 155.526 198.914 155.463 199.241 155.463ZM204.285 156.483V159.533C204.285 159.739 204.332 159.889 204.425 159.983C204.525 160.069 204.692 160.113 204.925 160.113H205.625V161.063H204.725C204.212 161.063 203.818 160.943 203.545 160.703C203.272 160.463 203.135 160.073 203.135 159.533V156.483H202.485V155.553H203.135V154.183H204.285V155.553H205.625V156.483H204.285Z" fill="white"/>
<path d="M90.0354 174.384C90.0354 174.848 89.8754 175.234 89.5554 175.544C89.2407 175.848 88.7581 176 88.1074 176H87.0354V178.328H86.3074V172.752H88.1074C88.7367 172.752 89.2141 172.904 89.5394 173.208C89.8701 173.512 90.0354 173.904 90.0354 174.384ZM88.1074 175.4C88.5127 175.4 88.8114 175.312 89.0034 175.136C89.1954 174.96 89.2914 174.709 89.2914 174.384C89.2914 173.696 88.8967 173.352 88.1074 173.352H87.0354V175.4H88.1074ZM90.6682 176.12C90.6682 175.672 90.7589 175.28 90.9402 174.944C91.1216 174.602 91.3696 174.338 91.6842 174.152C92.0042 173.965 92.3589 173.872 92.7482 173.872C93.1322 173.872 93.4656 173.954 93.7482 174.12C94.0309 174.285 94.2416 174.493 94.3802 174.744V173.944H95.1162V178.328H94.3802V177.512C94.2362 177.768 94.0202 177.981 93.7322 178.152C93.4496 178.317 93.1189 178.4 92.7402 178.4C92.3509 178.4 91.9989 178.304 91.6842 178.112C91.3696 177.92 91.1216 177.65 90.9402 177.304C90.7589 176.957 90.6682 176.562 90.6682 176.12ZM94.3802 176.128C94.3802 175.797 94.3136 175.509 94.1802 175.264C94.0469 175.018 93.8656 174.832 93.6362 174.704C93.4122 174.57 93.1642 174.504 92.8922 174.504C92.6202 174.504 92.3722 174.568 92.1482 174.696C91.9242 174.824 91.7456 175.01 91.6122 175.256C91.4789 175.501 91.4122 175.789 91.4122 176.12C91.4122 176.456 91.4789 176.749 91.6122 177C91.7456 177.245 91.9242 177.434 92.1482 177.568C92.3722 177.696 92.6202 177.76 92.8922 177.76C93.1642 177.76 93.4122 177.696 93.6362 177.568C93.8656 177.434 94.0469 177.245 94.1802 177C94.3136 176.749 94.3802 176.458 94.3802 176.128ZM97.8985 178.4C97.5625 178.4 97.2611 178.344 96.9945 178.232C96.7278 178.114 96.5171 177.954 96.3625 177.752C96.2078 177.544 96.1225 177.306 96.1065 177.04H96.8585C96.8798 177.258 96.9811 177.437 97.1625 177.576C97.3491 177.714 97.5918 177.784 97.8905 177.784C98.1678 177.784 98.3865 177.722 98.5465 177.6C98.7065 177.477 98.7865 177.322 98.7865 177.136C98.7865 176.944 98.7011 176.802 98.5305 176.712C98.3598 176.616 98.0958 176.522 97.7385 176.432C97.4131 176.346 97.1465 176.261 96.9385 176.176C96.7358 176.085 96.5598 175.954 96.4105 175.784C96.2665 175.608 96.1945 175.378 96.1945 175.096C96.1945 174.872 96.2611 174.666 96.3945 174.48C96.5278 174.293 96.7171 174.146 96.9625 174.04C97.2078 173.928 97.4878 173.872 97.8025 173.872C98.2878 173.872 98.6798 173.994 98.9785 174.24C99.2771 174.485 99.4371 174.821 99.4585 175.248H98.7305C98.7145 175.018 98.6211 174.834 98.4505 174.696C98.2851 174.557 98.0611 174.488 97.7785 174.488C97.5171 174.488 97.3091 174.544 97.1545 174.656C96.9998 174.768 96.9225 174.914 96.9225 175.096C96.9225 175.24 96.9678 175.36 97.0585 175.456C97.1545 175.546 97.2718 175.621 97.4105 175.68C97.5545 175.733 97.7518 175.794 98.0025 175.864C98.3171 175.949 98.5731 176.034 98.7705 176.12C98.9678 176.2 99.1358 176.322 99.2745 176.488C99.4185 176.653 99.4931 176.869 99.4985 177.136C99.4985 177.376 99.4318 177.592 99.2985 177.784C99.1651 177.976 98.9758 178.128 98.7305 178.24C98.4905 178.346 98.2131 178.4 97.8985 178.4ZM101.414 174.544V177.128C101.414 177.341 101.459 177.493 101.55 177.584C101.641 177.669 101.798 177.712 102.022 177.712H102.558V178.328H101.902C101.497 178.328 101.193 178.234 100.99 178.048C100.787 177.861 100.686 177.554 100.686 177.128V174.544H100.118V173.944H100.686V172.84H101.414V173.944H102.558V174.544H101.414ZM109.013 173.112L106.789 178.328H106.053L108.309 173.184H105.221V172.56H109.013V173.112ZM111.801 176.12C111.801 175.672 111.892 175.28 112.073 174.944C112.254 174.602 112.502 174.338 112.817 174.152C113.137 173.965 113.494 173.872 113.889 173.872C114.23 173.872 114.548 173.952 114.841 174.112C115.134 174.266 115.358 174.472 115.513 174.728V172.408H116.249V178.328H115.513V177.504C115.369 177.765 115.156 177.981 114.873 178.152C114.59 178.317 114.26 178.4 113.881 178.4C113.492 178.4 113.137 178.304 112.817 178.112C112.502 177.92 112.254 177.65 112.073 177.304C111.892 176.957 111.801 176.562 111.801 176.12ZM115.513 176.128C115.513 175.797 115.446 175.509 115.313 175.264C115.18 175.018 114.998 174.832 114.769 174.704C114.545 174.57 114.297 174.504 114.025 174.504C113.753 174.504 113.505 174.568 113.281 174.696C113.057 174.824 112.878 175.01 112.745 175.256C112.612 175.501 112.545 175.789 112.545 176.12C112.545 176.456 112.612 176.749 112.745 177C112.878 177.245 113.057 177.434 113.281 177.568C113.505 177.696 113.753 177.76 114.025 177.76C114.297 177.76 114.545 177.696 114.769 177.568C114.998 177.434 115.18 177.245 115.313 177C115.446 176.749 115.513 176.458 115.513 176.128ZM117.207 176.12C117.207 175.672 117.298 175.28 117.479 174.944C117.661 174.602 117.909 174.338 118.223 174.152C118.543 173.965 118.898 173.872 119.287 173.872C119.671 173.872 120.005 173.954 120.287 174.12C120.57 174.285 120.781 174.493 120.919 174.744V173.944H121.655V178.328H120.919V177.512C120.775 177.768 120.559 177.981 120.271 178.152C119.989 178.317 119.658 178.4 119.279 178.4C118.89 178.4 118.538 178.304 118.223 178.112C117.909 177.92 117.661 177.65 117.479 177.304C117.298 176.957 117.207 176.562 117.207 176.12ZM120.919 176.128C120.919 175.797 120.853 175.509 120.719 175.264C120.586 175.018 120.405 174.832 120.175 174.704C119.951 174.57 119.703 174.504 119.431 174.504C119.159 174.504 118.911 174.568 118.687 174.696C118.463 174.824 118.285 175.01 118.151 175.256C118.018 175.501 117.951 175.789 117.951 176.12C117.951 176.456 118.018 176.749 118.151 177C118.285 177.245 118.463 177.434 118.687 177.568C118.911 177.696 119.159 177.76 119.431 177.76C119.703 177.76 119.951 177.696 120.175 177.568C120.405 177.434 120.586 177.245 120.719 177C120.853 176.749 120.919 176.458 120.919 176.128ZM126.662 173.944L124.022 180.392H123.27L124.134 178.28L122.366 173.944H123.174L124.55 177.496L125.91 173.944H126.662ZM128.945 178.4C128.609 178.4 128.308 178.344 128.041 178.232C127.775 178.114 127.564 177.954 127.409 177.752C127.255 177.544 127.169 177.306 127.153 177.04H127.905C127.927 177.258 128.028 177.437 128.209 177.576C128.396 177.714 128.639 177.784 128.937 177.784C129.215 177.784 129.433 177.722 129.593 177.6C129.753 177.477 129.833 177.322 129.833 177.136C129.833 176.944 129.748 176.802 129.577 176.712C129.407 176.616 129.143 176.522 128.785 176.432C128.46 176.346 128.193 176.261 127.985 176.176C127.783 176.085 127.607 175.954 127.457 175.784C127.313 175.608 127.241 175.378 127.241 175.096C127.241 174.872 127.308 174.666 127.441 174.48C127.575 174.293 127.764 174.146 128.009 174.04C128.255 173.928 128.535 173.872 128.849 173.872C129.335 173.872 129.727 173.994 130.025 174.24C130.324 174.485 130.484 174.821 130.505 175.248H129.777C129.761 175.018 129.668 174.834 129.497 174.696C129.332 174.557 129.108 174.488 128.825 174.488C128.564 174.488 128.356 174.544 128.201 174.656C128.047 174.768 127.969 174.914 127.969 175.096C127.969 175.24 128.015 175.36 128.105 175.456C128.201 175.546 128.319 175.621 128.457 175.68C128.601 175.733 128.799 175.794 129.049 175.864C129.364 175.949 129.62 176.034 129.817 176.12C130.015 176.2 130.183 176.322 130.321 176.488C130.465 176.653 130.54 176.869 130.545 177.136C130.545 177.376 130.479 177.592 130.345 177.784C130.212 177.976 130.023 178.128 129.777 178.24C129.537 178.346 129.26 178.4 128.945 178.4Z" fill="#DBEDF8"/>
<path d="M90.0514 221.899L88.4514 219.119H87.5814V221.899H86.4414V214.949H88.8414C89.3747 214.949 89.8247 215.042 90.1914 215.229C90.5647 215.416 90.8414 215.666 91.0214 215.979C91.2081 216.292 91.3014 216.642 91.3014 217.029C91.3014 217.482 91.1681 217.896 90.9014 218.269C90.6414 218.636 90.2381 218.886 89.6914 219.019L91.4114 221.899H90.0514ZM87.5814 218.209H88.8414C89.2681 218.209 89.5881 218.102 89.8014 217.889C90.0214 217.676 90.1314 217.389 90.1314 217.029C90.1314 216.669 90.0247 216.389 89.8114 216.189C89.5981 215.982 89.2747 215.879 88.8414 215.879H87.5814V218.209ZM97.8098 219.009C97.8098 219.216 97.7964 219.402 97.7698 219.569H93.5598C93.5931 220.009 93.7564 220.362 94.0498 220.629C94.3431 220.896 94.7031 221.029 95.1298 221.029C95.7431 221.029 96.1764 220.772 96.4298 220.259H97.6598C97.4931 220.766 97.1898 221.182 96.7498 221.509C96.3164 221.829 95.7764 221.989 95.1298 221.989C94.6031 221.989 94.1298 221.872 93.7098 221.639C93.2964 221.399 92.9698 221.066 92.7298 220.639C92.4964 220.206 92.3798 219.706 92.3798 219.139C92.3798 218.572 92.4931 218.076 92.7198 217.649C92.9531 217.216 93.2764 216.882 93.6898 216.649C94.1098 216.416 94.5898 216.299 95.1298 216.299C95.6498 216.299 96.1131 216.412 96.5198 216.639C96.9264 216.866 97.2431 217.186 97.4698 217.599C97.6964 218.006 97.8098 218.476 97.8098 219.009ZM96.6198 218.649C96.6131 218.229 96.4631 217.892 96.1698 217.639C95.8764 217.386 95.5131 217.259 95.0798 217.259C94.6864 217.259 94.3498 217.386 94.0698 217.639C93.7898 217.886 93.6231 218.222 93.5698 218.649H96.6198ZM100.932 221.989C100.498 221.989 100.108 221.912 99.7616 221.759C99.4216 221.599 99.1516 221.386 98.9516 221.119C98.7516 220.846 98.645 220.542 98.6316 220.209H99.8116C99.8316 220.442 99.9416 220.639 100.142 220.799C100.348 220.952 100.605 221.029 100.912 221.029C101.232 221.029 101.478 220.969 101.652 220.849C101.832 220.722 101.922 220.562 101.922 220.369C101.922 220.162 101.822 220.009 101.622 219.909C101.428 219.809 101.118 219.699 100.692 219.579C100.278 219.466 99.9416 219.356 99.6816 219.249C99.4216 219.142 99.195 218.979 99.0016 218.759C98.815 218.539 98.7216 218.249 98.7216 217.889C98.7216 217.596 98.8083 217.329 98.9816 217.089C99.155 216.842 99.4016 216.649 99.7216 216.509C100.048 216.369 100.422 216.299 100.842 216.299C101.468 216.299 101.972 216.459 102.352 216.779C102.738 217.092 102.945 217.522 102.972 218.069H101.832C101.812 217.822 101.712 217.626 101.532 217.479C101.352 217.332 101.108 217.259 100.802 217.259C100.502 217.259 100.272 217.316 100.112 217.429C99.9516 217.542 99.8716 217.692 99.8716 217.879C99.8716 218.026 99.925 218.149 100.032 218.249C100.138 218.349 100.268 218.429 100.422 218.489C100.575 218.542 100.802 218.612 101.102 218.699C101.502 218.806 101.828 218.916 102.082 219.029C102.342 219.136 102.565 219.296 102.752 219.509C102.938 219.722 103.035 220.006 103.042 220.359C103.042 220.672 102.955 220.952 102.782 221.199C102.608 221.446 102.362 221.639 102.042 221.779C101.728 221.919 101.358 221.989 100.932 221.989ZM109.323 219.009C109.323 219.216 109.31 219.402 109.283 219.569H105.073C105.107 220.009 105.27 220.362 105.563 220.629C105.857 220.896 106.217 221.029 106.643 221.029C107.257 221.029 107.69 220.772 107.943 220.259H109.173C109.007 220.766 108.703 221.182 108.263 221.509C107.83 221.829 107.29 221.989 106.643 221.989C106.117 221.989 105.643 221.872 105.223 221.639C104.81 221.399 104.483 221.066 104.243 220.639C104.01 220.206 103.893 219.706 103.893 219.139C103.893 218.572 104.007 218.076 104.233 217.649C104.467 217.216 104.79 216.882 105.203 216.649C105.623 216.416 106.103 216.299 106.643 216.299C107.163 216.299 107.627 216.412 108.033 216.639C108.44 216.866 108.757 217.186 108.983 217.599C109.21 218.006 109.323 218.476 109.323 219.009ZM108.133 218.649C108.127 218.229 107.977 217.892 107.683 217.639C107.39 217.386 107.027 217.259 106.593 217.259C106.2 217.259 105.863 217.386 105.583 217.639C105.303 217.886 105.137 218.222 105.083 218.649H108.133ZM110.065 219.119C110.065 218.566 110.179 218.076 110.405 217.649C110.639 217.222 110.952 216.892 111.345 216.659C111.745 216.419 112.185 216.299 112.665 216.299C113.099 216.299 113.475 216.386 113.795 216.559C114.122 216.726 114.382 216.936 114.575 217.189V216.389H115.725V221.899H114.575V221.079C114.382 221.339 114.119 221.556 113.785 221.729C113.452 221.902 113.072 221.989 112.645 221.989C112.172 221.989 111.739 221.869 111.345 221.629C110.952 221.382 110.639 221.042 110.405 220.609C110.179 220.169 110.065 219.672 110.065 219.119ZM114.575 219.139C114.575 218.759 114.495 218.429 114.335 218.149C114.182 217.869 113.979 217.656 113.725 217.509C113.472 217.362 113.199 217.289 112.905 217.289C112.612 217.289 112.339 217.362 112.085 217.509C111.832 217.649 111.625 217.859 111.465 218.139C111.312 218.412 111.235 218.739 111.235 219.119C111.235 219.499 111.312 219.832 111.465 220.119C111.625 220.406 111.832 220.626 112.085 220.779C112.345 220.926 112.619 220.999 112.905 220.999C113.199 220.999 113.472 220.926 113.725 220.779C113.979 220.632 114.182 220.419 114.335 220.139C114.495 219.852 114.575 219.519 114.575 219.139ZM118.363 217.189C118.529 216.909 118.749 216.692 119.023 216.539C119.303 216.379 119.633 216.299 120.013 216.299V217.479H119.723C119.276 217.479 118.936 217.592 118.703 217.819C118.476 218.046 118.363 218.439 118.363 218.999V221.899H117.223V216.389H118.363V217.189ZM120.681 219.139C120.681 218.572 120.794 218.076 121.021 217.649C121.254 217.216 121.574 216.882 121.981 216.649C122.387 216.416 122.854 216.299 123.381 216.299C124.047 216.299 124.597 216.459 125.031 216.779C125.471 217.092 125.767 217.542 125.921 218.129H124.691C124.591 217.856 124.431 217.642 124.211 217.489C123.991 217.336 123.714 217.259 123.381 217.259C122.914 217.259 122.541 217.426 122.261 217.759C121.987 218.086 121.851 218.546 121.851 219.139C121.851 219.732 121.987 220.196 122.261 220.529C122.541 220.862 122.914 221.029 123.381 221.029C124.041 221.029 124.477 220.739 124.691 220.159H125.921C125.761 220.719 125.461 221.166 125.021 221.499C124.581 221.826 124.034 221.989 123.381 221.989C122.854 221.989 122.387 221.872 121.981 221.639C121.574 221.399 121.254 221.066 121.021 220.639C120.794 220.206 120.681 219.706 120.681 219.139ZM129.907 216.299C130.327 216.299 130.7 216.389 131.027 216.569C131.36 216.749 131.62 217.016 131.807 217.369C132 217.722 132.097 218.149 132.097 218.649V221.899H130.967V218.819C130.967 218.326 130.843 217.949 130.597 217.689C130.35 217.422 130.013 217.289 129.587 217.289C129.16 217.289 128.82 217.422 128.567 217.689C128.32 217.949 128.197 218.326 128.197 218.819V221.899H127.057V214.499H128.197V217.029C128.39 216.796 128.633 216.616 128.927 216.489C129.227 216.362 129.553 216.299 129.907 216.299ZM137.288 217.199C137.482 216.946 137.745 216.732 138.078 216.559C138.412 216.386 138.788 216.299 139.208 216.299C139.688 216.299 140.125 216.419 140.518 216.659C140.918 216.892 141.232 217.222 141.458 217.649C141.685 218.076 141.798 218.566 141.798 219.119C141.798 219.672 141.685 220.169 141.458 220.609C141.232 221.042 140.918 221.382 140.518 221.629C140.125 221.869 139.688 221.989 139.208 221.989C138.788 221.989 138.415 221.906 138.088 221.739C137.762 221.566 137.495 221.352 137.288 221.099V224.519H136.148V216.389H137.288V217.199ZM140.638 219.119C140.638 218.739 140.558 218.412 140.398 218.139C140.245 217.859 140.038 217.649 139.778 217.509C139.525 217.362 139.252 217.289 138.958 217.289C138.672 217.289 138.398 217.362 138.138 217.509C137.885 217.656 137.678 217.869 137.518 218.149C137.365 218.429 137.288 218.759 137.288 219.139C137.288 219.519 137.365 219.852 137.518 220.139C137.678 220.419 137.885 220.632 138.138 220.779C138.398 220.926 138.672 220.999 138.958 220.999C139.252 220.999 139.525 220.926 139.778 220.779C140.038 220.626 140.245 220.406 140.398 220.119C140.558 219.832 140.638 219.499 140.638 219.119ZM144.066 217.189C144.232 216.909 144.452 216.692 144.726 216.539C145.006 216.379 145.336 216.299 145.716 216.299V217.479H145.426C144.979 217.479 144.639 217.592 144.406 217.819C144.179 218.046 144.066 218.439 144.066 218.999V221.899H142.926V216.389H144.066V217.189ZM147.344 215.659C147.137 215.659 146.964 215.589 146.824 215.449C146.684 215.309 146.614 215.136 146.614 214.929C146.614 214.722 146.684 214.549 146.824 214.409C146.964 214.269 147.137 214.199 147.344 214.199C147.544 214.199 147.714 214.269 147.854 214.409C147.994 214.549 148.064 214.722 148.064 214.929C148.064 215.136 147.994 215.309 147.854 215.449C147.714 215.589 147.544 215.659 147.344 215.659ZM147.904 216.389V221.899H146.764V216.389H147.904ZM149.02 219.139C149.02 218.572 149.134 218.076 149.36 217.649C149.594 217.216 149.914 216.882 150.32 216.649C150.727 216.416 151.194 216.299 151.72 216.299C152.387 216.299 152.937 216.459 153.37 216.779C153.81 217.092 154.107 217.542 154.26 218.129H153.03C152.93 217.856 152.77 217.642 152.55 217.489C152.33 217.336 152.054 217.259 151.72 217.259C151.254 217.259 150.88 217.426 150.6 217.759C150.327 218.086 150.19 218.546 150.19 219.139C150.19 219.732 150.327 220.196 150.6 220.529C150.88 220.862 151.254 221.029 151.72 221.029C152.38 221.029 152.817 220.739 153.03 220.159H154.26C154.1 220.719 153.8 221.166 153.36 221.499C152.92 221.826 152.374 221.989 151.72 221.989C151.194 221.989 150.727 221.872 150.32 221.639C149.914 221.399 149.594 221.066 149.36 220.639C149.134 220.206 149.02 219.706 149.02 219.139ZM155.976 215.659C155.77 215.659 155.596 215.589 155.456 215.449C155.316 215.309 155.246 215.136 155.246 214.929C155.246 214.722 155.316 214.549 155.456 214.409C155.596 214.269 155.77 214.199 155.976 214.199C156.176 214.199 156.346 214.269 156.486 214.409C156.626 214.549 156.696 214.722 156.696 214.929C156.696 215.136 156.626 215.309 156.486 215.449C156.346 215.589 156.176 215.659 155.976 215.659ZM156.536 216.389V221.899H155.396V216.389H156.536ZM160.813 216.299C161.247 216.299 161.633 216.389 161.973 216.569C162.32 216.749 162.59 217.016 162.783 217.369C162.977 217.722 163.073 218.149 163.073 218.649V221.899H161.943V218.819C161.943 218.326 161.82 217.949 161.573 217.689C161.327 217.422 160.99 217.289 160.563 217.289C160.137 217.289 159.797 217.422 159.543 217.689C159.297 217.949 159.173 218.326 159.173 218.819V221.899H158.033V216.389H159.173V217.019C159.36 216.792 159.597 216.616 159.883 216.489C160.177 216.362 160.487 216.299 160.813 216.299ZM166.747 216.299C167.174 216.299 167.551 216.386 167.877 216.559C168.211 216.726 168.471 216.936 168.657 217.189V216.389H169.807V221.989C169.807 222.496 169.701 222.946 169.487 223.339C169.274 223.739 168.964 224.052 168.557 224.279C168.157 224.506 167.677 224.619 167.117 224.619C166.371 224.619 165.751 224.442 165.257 224.089C164.764 223.742 164.484 223.269 164.417 222.669H165.547C165.634 222.956 165.817 223.186 166.097 223.359C166.384 223.539 166.724 223.629 167.117 223.629C167.577 223.629 167.947 223.489 168.227 223.209C168.514 222.929 168.657 222.522 168.657 221.989V221.069C168.464 221.329 168.201 221.549 167.867 221.729C167.541 221.902 167.167 221.989 166.747 221.989C166.267 221.989 165.827 221.869 165.427 221.629C165.034 221.382 164.721 221.042 164.487 220.609C164.261 220.169 164.147 219.672 164.147 219.119C164.147 218.566 164.261 218.076 164.487 217.649C164.721 217.222 165.034 216.892 165.427 216.659C165.827 216.419 166.267 216.299 166.747 216.299ZM168.657 219.139C168.657 218.759 168.577 218.429 168.417 218.149C168.264 217.869 168.061 217.656 167.807 217.509C167.554 217.362 167.281 217.289 166.987 217.289C166.694 217.289 166.421 217.362 166.167 217.509C165.914 217.649 165.707 217.859 165.547 218.139C165.394 218.412 165.317 218.739 165.317 219.119C165.317 219.499 165.394 219.832 165.547 220.119C165.707 220.406 165.914 220.626 166.167 220.779C166.427 220.926 166.701 220.999 166.987 220.999C167.281 220.999 167.554 220.926 167.807 220.779C168.061 220.632 168.264 220.419 168.417 220.139C168.577 219.852 168.657 219.519 168.657 219.139Z" fill="white"/>
<path d="M90.6314 288.413H87.7214L87.2214 289.833H86.0314L88.5214 282.873H89.8414L92.3314 289.833H91.1314L90.6314 288.413ZM90.3114 287.483L89.1814 284.253L88.0414 287.483H90.3114ZM93.0341 287.053C93.0341 286.499 93.1474 286.009 93.3741 285.583C93.6074 285.156 93.9207 284.826 94.3141 284.593C94.7141 284.353 95.1574 284.233 95.6441 284.233C96.0041 284.233 96.3574 284.313 96.7041 284.473C97.0574 284.626 97.3374 284.833 97.5441 285.093V282.433H98.6941V289.833H97.5441V289.003C97.3574 289.269 97.0974 289.489 96.7641 289.663C96.4374 289.836 96.0607 289.923 95.6341 289.923C95.1541 289.923 94.7141 289.803 94.3141 289.563C93.9207 289.316 93.6074 288.976 93.3741 288.543C93.1474 288.103 93.0341 287.606 93.0341 287.053ZM97.5441 287.073C97.5441 286.693 97.4641 286.363 97.3041 286.083C97.1507 285.803 96.9474 285.589 96.6941 285.443C96.4407 285.296 96.1674 285.223 95.8741 285.223C95.5807 285.223 95.3074 285.296 95.0541 285.443C94.8007 285.583 94.5941 285.793 94.4341 286.073C94.2807 286.346 94.2041 286.673 94.2041 287.053C94.2041 287.433 94.2807 287.766 94.4341 288.053C94.5941 288.339 94.8007 288.559 95.0541 288.713C95.3141 288.859 95.5874 288.933 95.8741 288.933C96.1674 288.933 96.4407 288.859 96.6941 288.713C96.9474 288.566 97.1507 288.353 97.3041 288.073C97.4641 287.786 97.5441 287.453 97.5441 287.073ZM99.8114 287.053C99.8114 286.499 99.9247 286.009 100.151 285.583C100.385 285.156 100.698 284.826 101.091 284.593C101.491 284.353 101.935 284.233 102.421 284.233C102.781 284.233 103.135 284.313 103.481 284.473C103.835 284.626 104.115 284.833 104.321 285.093V282.433H105.471V289.833H104.321V289.003C104.135 289.269 103.875 289.489 103.541 289.663C103.215 289.836 102.838 289.923 102.411 289.923C101.931 289.923 101.491 289.803 101.091 289.563C100.698 289.316 100.385 288.976 100.151 288.543C99.9247 288.103 99.8114 287.606 99.8114 287.053ZM104.321 287.073C104.321 286.693 104.241 286.363 104.081 286.083C103.928 285.803 103.725 285.589 103.471 285.443C103.218 285.296 102.945 285.223 102.651 285.223C102.358 285.223 102.085 285.296 101.831 285.443C101.578 285.583 101.371 285.793 101.211 286.073C101.058 286.346 100.981 286.673 100.981 287.053C100.981 287.433 101.058 287.766 101.211 288.053C101.371 288.339 101.578 288.559 101.831 288.713C102.091 288.859 102.365 288.933 102.651 288.933C102.945 288.933 103.218 288.859 103.471 288.713C103.725 288.566 103.928 288.353 104.081 288.073C104.241 287.786 104.321 287.453 104.321 287.073ZM110.896 285.253V288.303C110.896 288.509 110.943 288.659 111.036 288.753C111.136 288.839 111.303 288.883 111.536 288.883H112.236V289.833H111.336C110.823 289.833 110.43 289.713 110.156 289.473C109.883 289.233 109.746 288.843 109.746 288.303V285.253H109.096V284.323H109.746V282.953H110.896V284.323H112.236V285.253H110.896ZM112.907 287.053C112.907 286.499 113.02 286.009 113.247 285.583C113.48 285.156 113.794 284.826 114.187 284.593C114.587 284.353 115.027 284.233 115.507 284.233C115.94 284.233 116.317 284.319 116.637 284.493C116.964 284.659 117.224 284.869 117.417 285.123V284.323H118.567V289.833H117.417V289.013C117.224 289.273 116.96 289.489 116.627 289.663C116.294 289.836 115.914 289.923 115.487 289.923C115.014 289.923 114.58 289.803 114.187 289.563C113.794 289.316 113.48 288.976 113.247 288.543C113.02 288.103 112.907 287.606 112.907 287.053ZM117.417 287.073C117.417 286.693 117.337 286.363 117.177 286.083C117.024 285.803 116.82 285.589 116.567 285.443C116.314 285.296 116.04 285.223 115.747 285.223C115.454 285.223 115.18 285.296 114.927 285.443C114.674 285.583 114.467 285.793 114.307 286.073C114.154 286.346 114.077 286.673 114.077 287.053C114.077 287.433 114.154 287.766 114.307 288.053C114.467 288.339 114.674 288.559 114.927 288.713C115.187 288.859 115.46 288.933 115.747 288.933C116.04 288.933 116.314 288.859 116.567 288.713C116.82 288.566 117.024 288.353 117.177 288.073C117.337 287.786 117.417 287.453 117.417 287.073ZM122.064 289.923C121.631 289.923 121.241 289.846 120.894 289.693C120.554 289.533 120.284 289.319 120.084 289.053C119.884 288.779 119.778 288.476 119.764 288.143H120.944C120.964 288.376 121.074 288.573 121.274 288.733C121.481 288.886 121.738 288.963 122.044 288.963C122.364 288.963 122.611 288.903 122.784 288.783C122.964 288.656 123.054 288.496 123.054 288.303C123.054 288.096 122.954 287.943 122.754 287.843C122.561 287.743 122.251 287.633 121.824 287.513C121.411 287.399 121.074 287.289 120.814 287.183C120.554 287.076 120.328 286.913 120.134 286.693C119.948 286.473 119.854 286.183 119.854 285.823C119.854 285.529 119.941 285.263 120.114 285.023C120.288 284.776 120.534 284.583 120.854 284.443C121.181 284.303 121.554 284.233 121.974 284.233C122.601 284.233 123.104 284.393 123.484 284.713C123.871 285.026 124.078 285.456 124.104 286.003H122.964C122.944 285.756 122.844 285.559 122.664 285.413C122.484 285.266 122.241 285.193 121.934 285.193C121.634 285.193 121.404 285.249 121.244 285.363C121.084 285.476 121.004 285.626 121.004 285.813C121.004 285.959 121.058 286.083 121.164 286.183C121.271 286.283 121.401 286.363 121.554 286.423C121.708 286.476 121.934 286.546 122.234 286.633C122.634 286.739 122.961 286.849 123.214 286.963C123.474 287.069 123.698 287.229 123.884 287.443C124.071 287.656 124.168 287.939 124.174 288.293C124.174 288.606 124.088 288.886 123.914 289.133C123.741 289.379 123.494 289.573 123.174 289.713C122.861 289.853 122.491 289.923 122.064 289.923ZM127.586 287.083L130.126 289.833H128.586L126.546 287.463V289.833H125.406V282.433H126.546V286.733L128.546 284.323H130.126L127.586 287.083Z" fill="white"/>
<path d="M90.0354 235.22C90.0354 235.684 89.8754 236.07 89.5554 236.38C89.2407 236.684 88.7581 236.836 88.1074 236.836H87.0354V239.164H86.3074V233.588H88.1074C88.7367 233.588 89.2141 233.74 89.5394 234.044C89.8701 234.348 90.0354 234.74 90.0354 235.22ZM88.1074 236.236C88.5127 236.236 88.8114 236.148 89.0034 235.972C89.1954 235.796 89.2914 235.545 89.2914 235.22C89.2914 234.532 88.8967 234.188 88.1074 234.188H87.0354V236.236H88.1074ZM90.6682 236.956C90.6682 236.508 90.7589 236.116 90.9402 235.78C91.1216 235.438 91.3696 235.174 91.6842 234.988C92.0042 234.801 92.3589 234.708 92.7482 234.708C93.1322 234.708 93.4656 234.79 93.7482 234.956C94.0309 235.121 94.2416 235.329 94.3802 235.58V234.78H95.1162V239.164H94.3802V238.348C94.2362 238.604 94.0202 238.817 93.7322 238.988C93.4496 239.153 93.1189 239.236 92.7402 239.236C92.3509 239.236 91.9989 239.14 91.6842 238.948C91.3696 238.756 91.1216 238.486 90.9402 238.14C90.7589 237.793 90.6682 237.398 90.6682 236.956ZM94.3802 236.964C94.3802 236.633 94.3136 236.345 94.1802 236.1C94.0469 235.854 93.8656 235.668 93.6362 235.54C93.4122 235.406 93.1642 235.34 92.8922 235.34C92.6202 235.34 92.3722 235.404 92.1482 235.532C91.9242 235.66 91.7456 235.846 91.6122 236.092C91.4789 236.337 91.4122 236.625 91.4122 236.956C91.4122 237.292 91.4789 237.585 91.6122 237.836C91.7456 238.081 91.9242 238.27 92.1482 238.404C92.3722 238.532 92.6202 238.596 92.8922 238.596C93.1642 238.596 93.4122 238.532 93.6362 238.404C93.8656 238.27 94.0469 238.081 94.1802 237.836C94.3136 237.585 94.3802 237.294 94.3802 236.964ZM97.8985 239.236C97.5625 239.236 97.2611 239.18 96.9945 239.068C96.7278 238.95 96.5171 238.79 96.3625 238.588C96.2078 238.38 96.1225 238.142 96.1065 237.876H96.8585C96.8798 238.094 96.9811 238.273 97.1625 238.412C97.3491 238.55 97.5918 238.62 97.8905 238.62C98.1678 238.62 98.3865 238.558 98.5465 238.436C98.7065 238.313 98.7865 238.158 98.7865 237.972C98.7865 237.78 98.7011 237.638 98.5305 237.548C98.3598 237.452 98.0958 237.358 97.7385 237.268C97.4131 237.182 97.1465 237.097 96.9385 237.012C96.7358 236.921 96.5598 236.79 96.4105 236.62C96.2665 236.444 96.1945 236.214 96.1945 235.932C96.1945 235.708 96.2611 235.502 96.3945 235.316C96.5278 235.129 96.7171 234.982 96.9625 234.876C97.2078 234.764 97.4878 234.708 97.8025 234.708C98.2878 234.708 98.6798 234.83 98.9785 235.076C99.2771 235.321 99.4371 235.657 99.4585 236.084H98.7305C98.7145 235.854 98.6211 235.67 98.4505 235.532C98.2851 235.393 98.0611 235.324 97.7785 235.324C97.5171 235.324 97.3091 235.38 97.1545 235.492C96.9998 235.604 96.9225 235.75 96.9225 235.932C96.9225 236.076 96.9678 236.196 97.0585 236.292C97.1545 236.382 97.2718 236.457 97.4105 236.516C97.5545 236.569 97.7518 236.63 98.0025 236.7C98.3171 236.785 98.5731 236.87 98.7705 236.956C98.9678 237.036 99.1358 237.158 99.2745 237.324C99.4185 237.489 99.4931 237.705 99.4985 237.972C99.4985 238.212 99.4318 238.428 99.2985 238.62C99.1651 238.812 98.9758 238.964 98.7305 239.076C98.4905 239.182 98.2131 239.236 97.8985 239.236ZM101.414 235.38V237.964C101.414 238.177 101.459 238.329 101.55 238.42C101.641 238.505 101.798 238.548 102.022 238.548H102.558V239.164H101.902C101.497 239.164 101.193 239.07 100.99 238.884C100.787 238.697 100.686 238.39 100.686 237.964V235.38H100.118V234.78H100.686V233.676H101.414V234.78H102.558V235.38H101.414ZM109.013 233.948L106.789 239.164H106.053L108.309 234.02H105.221V233.396H109.013V233.948ZM111.801 236.956C111.801 236.508 111.892 236.116 112.073 235.78C112.254 235.438 112.502 235.174 112.817 234.988C113.137 234.801 113.494 234.708 113.889 234.708C114.23 234.708 114.548 234.788 114.841 234.948C115.134 235.102 115.358 235.308 115.513 235.564V233.244H116.249V239.164H115.513V238.34C115.369 238.601 115.156 238.817 114.873 238.988C114.59 239.153 114.26 239.236 113.881 239.236C113.492 239.236 113.137 239.14 112.817 238.948C112.502 238.756 112.254 238.486 112.073 238.14C111.892 237.793 111.801 237.398 111.801 236.956ZM115.513 236.964C115.513 236.633 115.446 236.345 115.313 236.1C115.18 235.854 114.998 235.668 114.769 235.54C114.545 235.406 114.297 235.34 114.025 235.34C113.753 235.34 113.505 235.404 113.281 235.532C113.057 235.66 112.878 235.846 112.745 236.092C112.612 236.337 112.545 236.625 112.545 236.956C112.545 237.292 112.612 237.585 112.745 237.836C112.878 238.081 113.057 238.27 113.281 238.404C113.505 238.532 113.753 238.596 114.025 238.596C114.297 238.596 114.545 238.532 114.769 238.404C114.998 238.27 115.18 238.081 115.313 237.836C115.446 237.585 115.513 237.294 115.513 236.964ZM117.207 236.956C117.207 236.508 117.298 236.116 117.479 235.78C117.661 235.438 117.909 235.174 118.223 234.988C118.543 234.801 118.898 234.708 119.287 234.708C119.671 234.708 120.005 234.79 120.287 234.956C120.57 235.121 120.781 235.329 120.919 235.58V234.78H121.655V239.164H120.919V238.348C120.775 238.604 120.559 238.817 120.271 238.988C119.989 239.153 119.658 239.236 119.279 239.236C118.89 239.236 118.538 239.14 118.223 238.948C117.909 238.756 117.661 238.486 117.479 238.14C117.298 237.793 117.207 237.398 117.207 236.956ZM120.919 236.964C120.919 236.633 120.853 236.345 120.719 236.1C120.586 235.854 120.405 235.668 120.175 235.54C119.951 235.406 119.703 235.34 119.431 235.34C119.159 235.34 118.911 235.404 118.687 235.532C118.463 235.66 118.285 235.846 118.151 236.092C118.018 236.337 117.951 236.625 117.951 236.956C117.951 237.292 118.018 237.585 118.151 237.836C118.285 238.081 118.463 238.27 118.687 238.404C118.911 238.532 119.159 238.596 119.431 238.596C119.703 238.596 119.951 238.532 120.175 238.404C120.405 238.27 120.586 238.081 120.719 237.836C120.853 237.585 120.919 237.294 120.919 236.964ZM126.662 234.78L124.022 241.228H123.27L124.134 239.116L122.366 234.78H123.174L124.55 238.332L125.91 234.78H126.662ZM128.945 239.236C128.609 239.236 128.308 239.18 128.041 239.068C127.775 238.95 127.564 238.79 127.409 238.588C127.255 238.38 127.169 238.142 127.153 237.876H127.905C127.927 238.094 128.028 238.273 128.209 238.412C128.396 238.55 128.639 238.62 128.937 238.62C129.215 238.62 129.433 238.558 129.593 238.436C129.753 238.313 129.833 238.158 129.833 237.972C129.833 237.78 129.748 237.638 129.577 237.548C129.407 237.452 129.143 237.358 128.785 237.268C128.46 237.182 128.193 237.097 127.985 237.012C127.783 236.921 127.607 236.79 127.457 236.62C127.313 236.444 127.241 236.214 127.241 235.932C127.241 235.708 127.308 235.502 127.441 235.316C127.575 235.129 127.764 234.982 128.009 234.876C128.255 234.764 128.535 234.708 128.849 234.708C129.335 234.708 129.727 234.83 130.025 235.076C130.324 235.321 130.484 235.657 130.505 236.084H129.777C129.761 235.854 129.668 235.67 129.497 235.532C129.332 235.393 129.108 235.324 128.825 235.324C128.564 235.324 128.356 235.38 128.201 235.492C128.047 235.604 127.969 235.75 127.969 235.932C127.969 236.076 128.015 236.196 128.105 236.292C128.201 236.382 128.319 236.457 128.457 236.516C128.601 236.569 128.799 236.63 129.049 236.7C129.364 236.785 129.62 236.87 129.817 236.956C130.015 237.036 130.183 237.158 130.321 237.324C130.465 237.489 130.54 237.705 130.545 237.972C130.545 238.212 130.479 238.428 130.345 238.62C130.212 238.812 130.023 238.964 129.777 239.076C129.537 239.182 129.26 239.236 128.945 239.236Z" fill="#DBEDF8"/>
<g clip-path="url(#clip3_1_1201)">
<path d="M58.3201 95.3101H48.1807C45.9408 95.3101 44.125 97.1259 44.125 99.3658V109.505C44.125 111.745 45.9408 113.561 48.1807 113.561H58.3201C60.5601 113.561 62.3759 111.745 62.3759 109.505V99.3658C62.3759 97.1259 60.5601 95.3101 58.3201 95.3101Z" stroke="#131316" stroke-width="1.5" stroke-miterlimit="10"/>
<path d="M53.25 99.3658V109.505" stroke="#131316" stroke-width="1.5" stroke-linecap="round" stroke-linejoin="round"/>
<path d="M57.3045 101.901V109.505" stroke="#131316" stroke-width="1.5" stroke-linecap="round" stroke-linejoin="round"/>
<path d="M49.1914 103.594V109.505" stroke="#131316" stroke-width="1.5" stroke-linecap="round" stroke-linejoin="round"/>
</g>
<g clip-path="url(#clip4_1_1201)">
<path d="M62.3759 166.286V170.341C62.3759 171.417 61.9486 172.449 61.188 173.209C60.4274 173.97 59.3958 174.397 58.3201 174.397H48.1807C47.1051 174.397 46.0735 173.97 45.3129 173.209C44.5523 172.449 44.125 171.417 44.125 170.341V160.202C44.125 159.126 44.5523 158.095 45.3129 157.334C46.0735 156.574 47.1051 156.146 48.1807 156.146H52.2365" stroke="#131316" stroke-width="1.5" stroke-linecap="round" stroke-linejoin="round"/>
<path d="M58.2655 156.653L50.2069 164.703V168.307H53.8107L61.8693 160.248C62.0288 160.089 62.1554 159.9 62.2418 159.691C62.3281 159.483 62.3726 159.26 62.3726 159.034C62.3726 158.809 62.3281 158.585 62.2418 158.377C62.1554 158.169 62.0288 157.979 61.8693 157.82L60.6852 156.645C60.3625 156.326 59.9269 156.148 59.4735 156.15C59.0202 156.151 58.5859 156.332 58.2655 156.653Z" stroke="#131316" stroke-width="1.5" stroke-linecap="round" stroke-linejoin="round"/>
<path d="M59.3309 162.23L56.2891 159.188" stroke="#131316" stroke-width="1.5" stroke-miterlimit="10" stroke-linecap="round"/>
</g>
<g clip-path="url(#clip5_1_1201)">
<path d="M56.3346 287.15H49.668" stroke="white" stroke-width="1.5" stroke-linecap="round" stroke-linejoin="round"/>
<path d="M53 290.483V283.817" stroke="white" stroke-width="1.5" stroke-linecap="round" stroke-linejoin="round"/>
</g>
<defs>
<clipPath id="clip0_1_1201">
<rect width="8" height="9" fill="white" transform="translate(414.4 95.2754) rotate(60)"/>
</clipPath>
<clipPath id="clip1_1_1201">
<rect width="8" height="9" fill="white" transform="translate(417.626 284.866) rotate(135)"/>
</clipPath>
<clipPath id="clip2_1_1201">
<rect width="22.3066" height="18.2509" fill="white" transform="translate(42.0938 216.983)"/>
</clipPath>
<clipPath id="clip3_1_1201">
<rect width="20.2787" height="20.2787" fill="white" transform="translate(43.1094 94.2961)"/>
</clipPath>
<clipPath id="clip4_1_1201">
<rect width="21.2927" height="21.2927" fill="white" transform="translate(43.1094 154.118)"/>
</clipPath>
<clipPath id="clip5_1_1201">
<rect width="8" height="8" fill="white" transform="translate(49 283.15)"/>
</clipPath>
</defs>
</svg>
